%TF.GenerationSoftware,KiCad,Pcbnew,(6.0.1)*%
%TF.CreationDate,2022-03-15T19:28:32-04:00*%
%TF.ProjectId,WiFi-Board,57694669-2d42-46f6-9172-642e6b696361,rev?*%
%TF.SameCoordinates,Original*%
%TF.FileFunction,Copper,L2,Inr*%
%TF.FilePolarity,Positive*%
%FSLAX46Y46*%
G04 Gerber Fmt 4.6, Leading zero omitted, Abs format (unit mm)*
G04 Created by KiCad (PCBNEW (6.0.1)) date 2022-03-15 19:28:32*
%MOMM*%
%LPD*%
G01*
G04 APERTURE LIST*
%TA.AperFunction,ComponentPad*%
%ADD10R,1.700000X1.700000*%
%TD*%
%TA.AperFunction,ComponentPad*%
%ADD11O,1.700000X1.700000*%
%TD*%
%TA.AperFunction,ComponentPad*%
%ADD12C,5.600000*%
%TD*%
%TA.AperFunction,ComponentPad*%
%ADD13R,1.600000X1.600000*%
%TD*%
%TA.AperFunction,ComponentPad*%
%ADD14O,1.600000X1.600000*%
%TD*%
%TA.AperFunction,ViaPad*%
%ADD15C,0.800000*%
%TD*%
G04 APERTURE END LIST*
D10*
%TO.N,Net-(J1-Pad1)*%
%TO.C,J1*%
X130033000Y-124709000D03*
D11*
%TO.N,+3V3*%
X130033000Y-127249000D03*
%TO.N,unconnected-(J1-Pad3)*%
X127493000Y-124709000D03*
%TO.N,unconnected-(J1-Pad4)*%
X127493000Y-127249000D03*
%TO.N,unconnected-(J1-Pad5)*%
X124953000Y-124709000D03*
%TO.N,GND*%
X124953000Y-127249000D03*
%TD*%
D12*
%TO.N,GND*%
%TO.C,REF\u002A\u002A*%
X104140000Y-125984000D03*
%TD*%
%TO.N,GND*%
%TO.C,REF\u002A\u002A*%
X156464000Y-103632000D03*
%TD*%
D13*
%TO.N,/SW1*%
%TO.C,SW1*%
X129784000Y-102880000D03*
D14*
%TO.N,/SW2*%
X127244000Y-102880000D03*
%TO.N,/SW3*%
X124704000Y-102880000D03*
%TO.N,/SW4*%
X122164000Y-102880000D03*
%TO.N,Net-(R4-Pad2)*%
X122164000Y-110500000D03*
X124704000Y-110500000D03*
X127244000Y-110500000D03*
X129784000Y-110500000D03*
%TD*%
D10*
%TO.N,+3V3*%
%TO.C,J2*%
X157480000Y-114808000D03*
D11*
%TO.N,/MISO*%
X157480000Y-117348000D03*
%TO.N,/MOSI*%
X157480000Y-119888000D03*
%TO.N,/SCK*%
X157480000Y-122428000D03*
%TO.N,/~{SS}*%
X157480000Y-124968000D03*
%TO.N,GND*%
X157480000Y-127508000D03*
%TD*%
D15*
%TO.N,+3V3*%
X151384000Y-125476000D03*
X111760000Y-121412000D03*
X122936000Y-117348000D03*
X131572000Y-118872000D03*
X117348000Y-121412000D03*
X103632000Y-102108000D03*
X114808000Y-121412000D03*
%TO.N,GND*%
X115824000Y-116332000D03*
X102108000Y-102108000D03*
X132080000Y-117348000D03*
%TO.N,/MISO*%
X153924000Y-112776000D03*
%TO.N,/CTS*%
X142748000Y-119380000D03*
%TO.N,/RTS*%
X143764000Y-120396000D03*
%TO.N,/UART2*%
X114300000Y-105664000D03*
%TO.N,/UART1*%
X112776000Y-108677313D03*
%TD*%
%TA.AperFunction,Conductor*%
%TO.N,+3V3*%
G36*
X154726532Y-100604002D02*
G01*
X154773025Y-100657658D01*
X154783129Y-100727932D01*
X154753635Y-100792512D01*
X154723117Y-100818116D01*
X154611193Y-100885101D01*
X154608467Y-100887163D01*
X154608465Y-100887164D01*
X154602620Y-100891585D01*
X154325367Y-101101270D01*
X154064559Y-101347043D01*
X153831819Y-101619546D01*
X153829900Y-101622358D01*
X153829897Y-101622363D01*
X153772874Y-101705956D01*
X153629871Y-101915591D01*
X153461077Y-102231714D01*
X153327411Y-102564218D01*
X153326491Y-102567492D01*
X153326489Y-102567497D01*
X153232520Y-102901803D01*
X153230437Y-102909213D01*
X153171290Y-103262663D01*
X153150661Y-103620434D01*
X153150833Y-103623829D01*
X153150833Y-103623830D01*
X153158869Y-103782460D01*
X153168792Y-103978340D01*
X153169329Y-103981695D01*
X153169330Y-103981701D01*
X153190794Y-104115707D01*
X153225470Y-104332195D01*
X153320033Y-104677859D01*
X153451374Y-105011288D01*
X153452957Y-105014303D01*
X153602284Y-105298729D01*
X153617957Y-105328582D01*
X153619858Y-105331411D01*
X153619864Y-105331421D01*
X153720133Y-105480635D01*
X153817834Y-105626029D01*
X154048665Y-105900150D01*
X154307751Y-106147738D01*
X154592061Y-106365897D01*
X154624056Y-106385350D01*
X154895355Y-106550303D01*
X154895360Y-106550306D01*
X154898270Y-106552075D01*
X154901358Y-106553521D01*
X154901357Y-106553521D01*
X155219710Y-106702649D01*
X155219720Y-106702653D01*
X155222794Y-106704093D01*
X155226012Y-106705195D01*
X155226015Y-106705196D01*
X155558615Y-106819071D01*
X155558623Y-106819073D01*
X155561838Y-106820174D01*
X155911435Y-106898959D01*
X155963728Y-106904917D01*
X156264114Y-106939142D01*
X156264122Y-106939142D01*
X156267497Y-106939527D01*
X156270901Y-106939545D01*
X156270904Y-106939545D01*
X156465227Y-106940562D01*
X156625857Y-106941403D01*
X156629243Y-106941053D01*
X156629245Y-106941053D01*
X156978932Y-106904917D01*
X156978941Y-106904916D01*
X156982324Y-106904566D01*
X156985657Y-106903852D01*
X156985660Y-106903851D01*
X157158186Y-106866864D01*
X157332727Y-106829446D01*
X157672968Y-106716922D01*
X157999066Y-106568311D01*
X158093052Y-106512506D01*
X158304262Y-106387099D01*
X158304267Y-106387096D01*
X158307207Y-106385350D01*
X158593786Y-106170180D01*
X158855451Y-105925319D01*
X159089140Y-105653630D01*
X159262160Y-105401884D01*
X159317228Y-105357073D01*
X159387781Y-105349148D01*
X159451419Y-105380625D01*
X159487936Y-105441510D01*
X159492000Y-105473251D01*
X159492000Y-129366000D01*
X159471998Y-129434121D01*
X159418342Y-129480614D01*
X159366000Y-129492000D01*
X104748953Y-129492000D01*
X104680832Y-129471998D01*
X104634339Y-129418342D01*
X104624235Y-129348068D01*
X104653729Y-129283488D01*
X104713455Y-129245104D01*
X104722541Y-129242799D01*
X105008727Y-129181446D01*
X105348968Y-129068922D01*
X105675066Y-128920311D01*
X105775742Y-128860534D01*
X105980262Y-128739099D01*
X105980267Y-128739096D01*
X105983207Y-128737350D01*
X105986696Y-128734731D01*
X106152692Y-128610097D01*
X106269786Y-128522180D01*
X106531451Y-128277319D01*
X106765140Y-128005630D01*
X106871750Y-127850512D01*
X106966190Y-127713101D01*
X106966195Y-127713094D01*
X106968120Y-127710292D01*
X106969732Y-127707298D01*
X106969737Y-127707290D01*
X107136395Y-127397772D01*
X107138017Y-127394760D01*
X107210727Y-127215695D01*
X123590251Y-127215695D01*
X123603110Y-127438715D01*
X123604247Y-127443761D01*
X123604248Y-127443767D01*
X123620651Y-127516548D01*
X123652222Y-127656639D01*
X123736266Y-127863616D01*
X123786863Y-127946183D01*
X123850291Y-128049688D01*
X123852987Y-128054088D01*
X123999250Y-128222938D01*
X124171126Y-128365632D01*
X124364000Y-128478338D01*
X124572692Y-128558030D01*
X124577760Y-128559061D01*
X124577763Y-128559062D01*
X124672862Y-128578410D01*
X124791597Y-128602567D01*
X124796772Y-128602757D01*
X124796774Y-128602757D01*
X125009673Y-128610564D01*
X125009677Y-128610564D01*
X125014837Y-128610753D01*
X125019957Y-128610097D01*
X125019959Y-128610097D01*
X125231288Y-128583025D01*
X125231289Y-128583025D01*
X125236416Y-128582368D01*
X125241366Y-128580883D01*
X125445429Y-128519661D01*
X125445434Y-128519659D01*
X125450384Y-128518174D01*
X125650994Y-128419896D01*
X125832860Y-128290173D01*
X125991096Y-128132489D01*
X125998191Y-128122616D01*
X126121453Y-127951077D01*
X126122776Y-127952028D01*
X126169645Y-127908857D01*
X126239580Y-127896625D01*
X126305026Y-127924144D01*
X126332875Y-127955994D01*
X126392987Y-128054088D01*
X126539250Y-128222938D01*
X126711126Y-128365632D01*
X126904000Y-128478338D01*
X127112692Y-128558030D01*
X127117760Y-128559061D01*
X127117763Y-128559062D01*
X127212862Y-128578410D01*
X127331597Y-128602567D01*
X127336772Y-128602757D01*
X127336774Y-128602757D01*
X127549673Y-128610564D01*
X127549677Y-128610564D01*
X127554837Y-128610753D01*
X127559957Y-128610097D01*
X127559959Y-128610097D01*
X127771288Y-128583025D01*
X127771289Y-128583025D01*
X127776416Y-128582368D01*
X127781366Y-128580883D01*
X127985429Y-128519661D01*
X127985434Y-128519659D01*
X127990384Y-128518174D01*
X128190994Y-128419896D01*
X128372860Y-128290173D01*
X128531096Y-128132489D01*
X128538191Y-128122616D01*
X128661453Y-127951077D01*
X128662640Y-127951930D01*
X128709960Y-127908362D01*
X128779897Y-127896145D01*
X128845338Y-127923678D01*
X128873166Y-127955511D01*
X128930694Y-128049388D01*
X128936777Y-128057699D01*
X129076213Y-128218667D01*
X129083580Y-128225883D01*
X129247434Y-128361916D01*
X129255881Y-128367831D01*
X129439756Y-128475279D01*
X129449042Y-128479729D01*
X129648001Y-128555703D01*
X129657899Y-128558579D01*
X129761250Y-128579606D01*
X129775299Y-128578410D01*
X129779000Y-128568065D01*
X129779000Y-128567517D01*
X130287000Y-128567517D01*
X130291064Y-128581359D01*
X130304478Y-128583393D01*
X130311184Y-128582534D01*
X130321262Y-128580392D01*
X130525255Y-128519191D01*
X130534842Y-128515433D01*
X130726095Y-128421739D01*
X130734945Y-128416464D01*
X130908328Y-128292792D01*
X130916200Y-128286139D01*
X131067052Y-128135812D01*
X131073730Y-128127965D01*
X131198003Y-127955020D01*
X131203313Y-127946183D01*
X131297670Y-127755267D01*
X131301469Y-127745672D01*
X131363377Y-127541910D01*
X131365555Y-127531837D01*
X131366986Y-127520962D01*
X131364775Y-127506778D01*
X131351617Y-127503000D01*
X130305115Y-127503000D01*
X130289876Y-127507475D01*
X130288671Y-127508865D01*
X130287000Y-127516548D01*
X130287000Y-128567517D01*
X129779000Y-128567517D01*
X129779000Y-127474695D01*
X156117251Y-127474695D01*
X156117548Y-127479848D01*
X156117548Y-127479851D01*
X156123011Y-127574590D01*
X156130110Y-127697715D01*
X156131247Y-127702761D01*
X156131248Y-127702767D01*
X156142076Y-127750811D01*
X156179222Y-127915639D01*
X156263266Y-128122616D01*
X156271552Y-128136137D01*
X156367550Y-128292792D01*
X156379987Y-128313088D01*
X156526250Y-128481938D01*
X156698126Y-128624632D01*
X156891000Y-128737338D01*
X157099692Y-128817030D01*
X157104760Y-128818061D01*
X157104763Y-128818062D01*
X157212017Y-128839883D01*
X157318597Y-128861567D01*
X157323772Y-128861757D01*
X157323774Y-128861757D01*
X157536673Y-128869564D01*
X157536677Y-128869564D01*
X157541837Y-128869753D01*
X157546957Y-128869097D01*
X157546959Y-128869097D01*
X157758288Y-128842025D01*
X157758289Y-128842025D01*
X157763416Y-128841368D01*
X157768366Y-128839883D01*
X157972429Y-128778661D01*
X157972434Y-128778659D01*
X157977384Y-128777174D01*
X158177994Y-128678896D01*
X158359860Y-128549173D01*
X158384897Y-128524224D01*
X158441209Y-128468107D01*
X158518096Y-128391489D01*
X158577594Y-128308689D01*
X158645435Y-128214277D01*
X158648453Y-128210077D01*
X158688874Y-128128292D01*
X158745136Y-128014453D01*
X158745137Y-128014451D01*
X158747430Y-128009811D01*
X158812370Y-127796069D01*
X158841529Y-127574590D01*
X158841611Y-127571240D01*
X158843074Y-127511365D01*
X158843074Y-127511361D01*
X158843156Y-127508000D01*
X158824852Y-127285361D01*
X158770431Y-127068702D01*
X158681354Y-126863840D01*
X158584883Y-126714718D01*
X158562822Y-126680617D01*
X158562820Y-126680614D01*
X158560014Y-126676277D01*
X158409670Y-126511051D01*
X158405619Y-126507852D01*
X158405615Y-126507848D01*
X158238414Y-126375800D01*
X158238410Y-126375798D01*
X158234359Y-126372598D01*
X158193053Y-126349796D01*
X158143084Y-126299364D01*
X158128312Y-126229921D01*
X158153428Y-126163516D01*
X158180780Y-126136909D01*
X158247908Y-126089027D01*
X158359860Y-126009173D01*
X158363721Y-126005326D01*
X158464883Y-125904516D01*
X158518096Y-125851489D01*
X158577594Y-125768689D01*
X158645435Y-125674277D01*
X158648453Y-125670077D01*
X158662172Y-125642320D01*
X158745136Y-125474453D01*
X158745137Y-125474451D01*
X158747430Y-125469811D01*
X158812370Y-125256069D01*
X158841529Y-125034590D01*
X158843156Y-124968000D01*
X158824852Y-124745361D01*
X158770431Y-124528702D01*
X158681354Y-124323840D01*
X158560014Y-124136277D01*
X158409670Y-123971051D01*
X158405619Y-123967852D01*
X158405615Y-123967848D01*
X158238414Y-123835800D01*
X158238410Y-123835798D01*
X158234359Y-123832598D01*
X158193053Y-123809796D01*
X158143084Y-123759364D01*
X158128312Y-123689921D01*
X158153428Y-123623516D01*
X158180780Y-123596909D01*
X158242173Y-123553118D01*
X158359860Y-123469173D01*
X158365140Y-123463912D01*
X158476640Y-123352800D01*
X158518096Y-123311489D01*
X158570067Y-123239164D01*
X158645435Y-123134277D01*
X158648453Y-123130077D01*
X158682971Y-123060236D01*
X158745136Y-122934453D01*
X158745137Y-122934451D01*
X158747430Y-122929811D01*
X158812370Y-122716069D01*
X158841529Y-122494590D01*
X158843156Y-122428000D01*
X158824852Y-122205361D01*
X158770431Y-121988702D01*
X158681354Y-121783840D01*
X158560014Y-121596277D01*
X158409670Y-121431051D01*
X158405619Y-121427852D01*
X158405615Y-121427848D01*
X158238414Y-121295800D01*
X158238410Y-121295798D01*
X158234359Y-121292598D01*
X158193053Y-121269796D01*
X158143084Y-121219364D01*
X158128312Y-121149921D01*
X158153428Y-121083516D01*
X158180780Y-121056909D01*
X158224603Y-121025650D01*
X158359860Y-120929173D01*
X158518096Y-120771489D01*
X158577594Y-120688689D01*
X158645435Y-120594277D01*
X158648453Y-120590077D01*
X158741738Y-120401329D01*
X158745136Y-120394453D01*
X158745137Y-120394451D01*
X158747430Y-120389811D01*
X158812370Y-120176069D01*
X158841529Y-119954590D01*
X158843156Y-119888000D01*
X158824852Y-119665361D01*
X158770431Y-119448702D01*
X158681354Y-119243840D01*
X158560014Y-119056277D01*
X158409670Y-118891051D01*
X158405619Y-118887852D01*
X158405615Y-118887848D01*
X158238414Y-118755800D01*
X158238410Y-118755798D01*
X158234359Y-118752598D01*
X158193053Y-118729796D01*
X158143084Y-118679364D01*
X158128312Y-118609921D01*
X158153428Y-118543516D01*
X158180780Y-118516909D01*
X158244441Y-118471500D01*
X158359860Y-118389173D01*
X158518096Y-118231489D01*
X158527670Y-118218166D01*
X158645435Y-118054277D01*
X158648453Y-118050077D01*
X158658006Y-118030749D01*
X158745136Y-117854453D01*
X158745137Y-117854451D01*
X158747430Y-117849811D01*
X158812370Y-117636069D01*
X158841529Y-117414590D01*
X158843156Y-117348000D01*
X158824852Y-117125361D01*
X158770431Y-116908702D01*
X158681354Y-116703840D01*
X158641906Y-116642862D01*
X158562822Y-116520617D01*
X158562820Y-116520614D01*
X158560014Y-116516277D01*
X158556540Y-116512459D01*
X158556533Y-116512450D01*
X158412435Y-116354088D01*
X158381383Y-116290242D01*
X158389779Y-116219744D01*
X158434956Y-116164976D01*
X158461400Y-116151307D01*
X158568052Y-116111325D01*
X158583649Y-116102786D01*
X158685724Y-116026285D01*
X158698285Y-116013724D01*
X158774786Y-115911649D01*
X158783324Y-115896054D01*
X158828478Y-115775606D01*
X158832105Y-115760351D01*
X158837631Y-115709486D01*
X158838000Y-115702672D01*
X158838000Y-115080115D01*
X158833525Y-115064876D01*
X158832135Y-115063671D01*
X158824452Y-115062000D01*
X156140116Y-115062000D01*
X156124877Y-115066475D01*
X156123672Y-115067865D01*
X156122001Y-115075548D01*
X156122001Y-115702669D01*
X156122371Y-115709490D01*
X156127895Y-115760352D01*
X156131521Y-115775604D01*
X156176676Y-115896054D01*
X156185214Y-115911649D01*
X156261715Y-116013724D01*
X156274276Y-116026285D01*
X156376351Y-116102786D01*
X156391946Y-116111324D01*
X156500827Y-116152142D01*
X156557591Y-116194784D01*
X156582291Y-116261345D01*
X156567083Y-116330694D01*
X156547691Y-116357175D01*
X156432387Y-116477834D01*
X156420629Y-116490138D01*
X156294743Y-116674680D01*
X156200688Y-116877305D01*
X156140989Y-117092570D01*
X156117251Y-117314695D01*
X156117548Y-117319848D01*
X156117548Y-117319851D01*
X156123011Y-117414590D01*
X156130110Y-117537715D01*
X156131247Y-117542761D01*
X156131248Y-117542767D01*
X156151119Y-117630939D01*
X156179222Y-117755639D01*
X156263266Y-117962616D01*
X156265965Y-117967020D01*
X156373072Y-118141803D01*
X156379987Y-118153088D01*
X156526250Y-118321938D01*
X156698126Y-118464632D01*
X156768595Y-118505811D01*
X156771445Y-118507476D01*
X156820169Y-118559114D01*
X156833240Y-118628897D01*
X156806509Y-118694669D01*
X156766055Y-118728027D01*
X156753607Y-118734507D01*
X156749474Y-118737610D01*
X156749471Y-118737612D01*
X156609033Y-118843056D01*
X156574965Y-118868635D01*
X156420629Y-119030138D01*
X156294743Y-119214680D01*
X156279003Y-119248590D01*
X156221052Y-119373435D01*
X156200688Y-119417305D01*
X156140989Y-119632570D01*
X156117251Y-119854695D01*
X156117548Y-119859848D01*
X156117548Y-119859851D01*
X156123011Y-119954590D01*
X156130110Y-120077715D01*
X156131247Y-120082761D01*
X156131248Y-120082767D01*
X156151765Y-120173803D01*
X156179222Y-120295639D01*
X156263266Y-120502616D01*
X156379987Y-120693088D01*
X156526250Y-120861938D01*
X156698126Y-121004632D01*
X156768595Y-121045811D01*
X156771445Y-121047476D01*
X156820169Y-121099114D01*
X156833240Y-121168897D01*
X156806509Y-121234669D01*
X156766055Y-121268027D01*
X156753607Y-121274507D01*
X156749474Y-121277610D01*
X156749471Y-121277612D01*
X156725247Y-121295800D01*
X156574965Y-121408635D01*
X156420629Y-121570138D01*
X156294743Y-121754680D01*
X156200688Y-121957305D01*
X156140989Y-122172570D01*
X156117251Y-122394695D01*
X156117548Y-122399848D01*
X156117548Y-122399851D01*
X156123011Y-122494590D01*
X156130110Y-122617715D01*
X156131247Y-122622761D01*
X156131248Y-122622767D01*
X156143061Y-122675182D01*
X156179222Y-122835639D01*
X156263266Y-123042616D01*
X156379987Y-123233088D01*
X156526250Y-123401938D01*
X156698126Y-123544632D01*
X156747696Y-123573598D01*
X156771445Y-123587476D01*
X156820169Y-123639114D01*
X156833240Y-123708897D01*
X156806509Y-123774669D01*
X156766055Y-123808027D01*
X156753607Y-123814507D01*
X156749474Y-123817610D01*
X156749471Y-123817612D01*
X156579100Y-123945530D01*
X156574965Y-123948635D01*
X156544279Y-123980746D01*
X156466830Y-124061792D01*
X156420629Y-124110138D01*
X156417715Y-124114410D01*
X156417714Y-124114411D01*
X156345409Y-124220406D01*
X156294743Y-124294680D01*
X156279003Y-124328590D01*
X156218605Y-124458707D01*
X156200688Y-124497305D01*
X156140989Y-124712570D01*
X156117251Y-124934695D01*
X156117548Y-124939848D01*
X156117548Y-124939851D01*
X156123011Y-125034590D01*
X156130110Y-125157715D01*
X156131247Y-125162761D01*
X156131248Y-125162767D01*
X156138891Y-125196680D01*
X156179222Y-125375639D01*
X156263266Y-125582616D01*
X156287888Y-125622795D01*
X156365945Y-125750173D01*
X156379987Y-125773088D01*
X156526250Y-125941938D01*
X156698126Y-126084632D01*
X156768595Y-126125811D01*
X156771445Y-126127476D01*
X156820169Y-126179114D01*
X156833240Y-126248897D01*
X156806509Y-126314669D01*
X156766055Y-126348027D01*
X156753607Y-126354507D01*
X156749474Y-126357610D01*
X156749471Y-126357612D01*
X156663813Y-126421926D01*
X156574965Y-126488635D01*
X156571393Y-126492373D01*
X156459164Y-126609814D01*
X156420629Y-126650138D01*
X156417715Y-126654410D01*
X156417714Y-126654411D01*
X156345409Y-126760406D01*
X156294743Y-126834680D01*
X156279003Y-126868590D01*
X156218605Y-126998707D01*
X156200688Y-127037305D01*
X156140989Y-127252570D01*
X156117251Y-127474695D01*
X129779000Y-127474695D01*
X129779000Y-127121000D01*
X129799002Y-127052879D01*
X129852658Y-127006386D01*
X129905000Y-126995000D01*
X131351344Y-126995000D01*
X131364875Y-126991027D01*
X131366180Y-126981947D01*
X131324214Y-126814875D01*
X131320894Y-126805124D01*
X131235972Y-126609814D01*
X131231105Y-126600739D01*
X131115426Y-126421926D01*
X131109136Y-126413757D01*
X130965293Y-126255677D01*
X130934241Y-126191831D01*
X130942635Y-126121333D01*
X130987812Y-126066564D01*
X131014256Y-126052895D01*
X131121297Y-126012767D01*
X131129705Y-126009615D01*
X131246261Y-125922261D01*
X131333615Y-125805705D01*
X131384745Y-125669316D01*
X131391500Y-125607134D01*
X131391500Y-123810866D01*
X131384745Y-123748684D01*
X131333615Y-123612295D01*
X131246261Y-123495739D01*
X131129705Y-123408385D01*
X130993316Y-123357255D01*
X130931134Y-123350500D01*
X129134866Y-123350500D01*
X129072684Y-123357255D01*
X128936295Y-123408385D01*
X128819739Y-123495739D01*
X128732385Y-123612295D01*
X128729233Y-123620703D01*
X128687919Y-123730907D01*
X128645277Y-123787671D01*
X128578716Y-123812371D01*
X128509367Y-123797163D01*
X128476743Y-123771476D01*
X128426151Y-123715875D01*
X128426142Y-123715866D01*
X128422670Y-123712051D01*
X128418619Y-123708852D01*
X128418615Y-123708848D01*
X128251414Y-123576800D01*
X128251410Y-123576798D01*
X128247359Y-123573598D01*
X128051789Y-123465638D01*
X128046920Y-123463914D01*
X128046916Y-123463912D01*
X127846087Y-123392795D01*
X127846083Y-123392794D01*
X127841212Y-123391069D01*
X127836119Y-123390162D01*
X127836116Y-123390161D01*
X127626373Y-123352800D01*
X127626367Y-123352799D01*
X127621284Y-123351894D01*
X127547452Y-123350992D01*
X127403081Y-123349228D01*
X127403079Y-123349228D01*
X127397911Y-123349165D01*
X127177091Y-123382955D01*
X126964756Y-123452357D01*
X126934443Y-123468137D01*
X126787498Y-123544632D01*
X126766607Y-123555507D01*
X126762474Y-123558610D01*
X126762471Y-123558612D01*
X126592100Y-123686530D01*
X126587965Y-123689635D01*
X126554515Y-123724638D01*
X126453730Y-123830104D01*
X126433629Y-123851138D01*
X126326201Y-124008621D01*
X126271293Y-124053621D01*
X126200768Y-124061792D01*
X126137021Y-124030538D01*
X126116324Y-124006054D01*
X126035822Y-123881617D01*
X126035820Y-123881614D01*
X126033014Y-123877277D01*
X125882670Y-123712051D01*
X125878619Y-123708852D01*
X125878615Y-123708848D01*
X125711414Y-123576800D01*
X125711410Y-123576798D01*
X125707359Y-123573598D01*
X125511789Y-123465638D01*
X125506920Y-123463914D01*
X125506916Y-123463912D01*
X125306087Y-123392795D01*
X125306083Y-123392794D01*
X125301212Y-123391069D01*
X125296119Y-123390162D01*
X125296116Y-123390161D01*
X125086373Y-123352800D01*
X125086367Y-123352799D01*
X125081284Y-123351894D01*
X125007452Y-123350992D01*
X124863081Y-123349228D01*
X124863079Y-123349228D01*
X124857911Y-123349165D01*
X124637091Y-123382955D01*
X124424756Y-123452357D01*
X124394443Y-123468137D01*
X124247498Y-123544632D01*
X124226607Y-123555507D01*
X124222474Y-123558610D01*
X124222471Y-123558612D01*
X124052100Y-123686530D01*
X124047965Y-123689635D01*
X124014515Y-123724638D01*
X123913730Y-123830104D01*
X123893629Y-123851138D01*
X123767743Y-124035680D01*
X123673688Y-124238305D01*
X123613989Y-124453570D01*
X123590251Y-124675695D01*
X123603110Y-124898715D01*
X123604247Y-124903761D01*
X123604248Y-124903767D01*
X123628304Y-125010508D01*
X123652222Y-125116639D01*
X123736266Y-125323616D01*
X123773685Y-125384678D01*
X123850291Y-125509688D01*
X123852987Y-125514088D01*
X123999250Y-125682938D01*
X124171126Y-125825632D01*
X124208193Y-125847292D01*
X124244445Y-125868476D01*
X124293169Y-125920114D01*
X124306240Y-125989897D01*
X124279509Y-126055669D01*
X124239055Y-126089027D01*
X124226607Y-126095507D01*
X124222474Y-126098610D01*
X124222471Y-126098612D01*
X124052100Y-126226530D01*
X124047965Y-126229635D01*
X124014515Y-126264638D01*
X123913730Y-126370104D01*
X123893629Y-126391138D01*
X123767743Y-126575680D01*
X123673688Y-126778305D01*
X123613989Y-126993570D01*
X123590251Y-127215695D01*
X107210727Y-127215695D01*
X107272842Y-127062724D01*
X107275647Y-127052879D01*
X107329496Y-126863840D01*
X107371020Y-126718070D01*
X107378817Y-126672457D01*
X107430829Y-126368175D01*
X107430829Y-126368173D01*
X107431401Y-126364828D01*
X107431843Y-126357612D01*
X107453168Y-126008928D01*
X107453278Y-126007131D01*
X107453330Y-125992357D01*
X107453353Y-125985819D01*
X107453353Y-125985806D01*
X107453359Y-125984000D01*
X107433979Y-125626159D01*
X107376066Y-125272505D01*
X107280297Y-124927173D01*
X107275938Y-124916218D01*
X107149052Y-124597369D01*
X107147793Y-124594205D01*
X107094001Y-124492610D01*
X106981702Y-124280513D01*
X106981698Y-124280506D01*
X106980103Y-124277494D01*
X106779190Y-123980746D01*
X106547403Y-123707432D01*
X106287454Y-123460750D01*
X106002384Y-123243585D01*
X105999472Y-123241828D01*
X105999467Y-123241825D01*
X105698443Y-123060236D01*
X105698437Y-123060233D01*
X105695528Y-123058478D01*
X105428340Y-122934453D01*
X105373571Y-122909030D01*
X105373569Y-122909029D01*
X105370475Y-122907593D01*
X105157895Y-122835639D01*
X105034255Y-122793789D01*
X105034250Y-122793788D01*
X105031028Y-122792697D01*
X104832681Y-122748724D01*
X104684493Y-122715871D01*
X104684487Y-122715870D01*
X104681158Y-122715132D01*
X104677769Y-122714758D01*
X104677764Y-122714757D01*
X104328338Y-122676180D01*
X104328333Y-122676180D01*
X104324957Y-122675807D01*
X104321558Y-122675801D01*
X104321557Y-122675801D01*
X104152080Y-122675505D01*
X103966592Y-122675182D01*
X103853413Y-122687277D01*
X103613639Y-122712901D01*
X103613631Y-122712902D01*
X103610256Y-122713263D01*
X103260117Y-122789606D01*
X102920271Y-122903317D01*
X102917178Y-122904739D01*
X102917177Y-122904740D01*
X102910974Y-122907593D01*
X102594694Y-123053066D01*
X102591760Y-123054822D01*
X102591758Y-123054823D01*
X102466018Y-123130077D01*
X102287193Y-123237101D01*
X102284467Y-123239163D01*
X102284465Y-123239164D01*
X102135410Y-123351894D01*
X102001367Y-123453270D01*
X101998882Y-123455612D01*
X101998877Y-123455616D01*
X101962010Y-123490358D01*
X101740559Y-123699043D01*
X101738347Y-123701633D01*
X101738345Y-123701635D01*
X101704481Y-123741285D01*
X101507819Y-123971546D01*
X101505900Y-123974358D01*
X101505897Y-123974363D01*
X101465113Y-124034150D01*
X101338059Y-124220406D01*
X101322088Y-124243818D01*
X101267177Y-124288821D01*
X101196652Y-124296992D01*
X101132905Y-124265738D01*
X101096175Y-124204981D01*
X101092000Y-124172814D01*
X101092000Y-119380000D01*
X141834496Y-119380000D01*
X141835186Y-119386565D01*
X141849824Y-119525834D01*
X141854458Y-119569928D01*
X141913473Y-119751556D01*
X142008960Y-119916944D01*
X142013378Y-119921851D01*
X142013379Y-119921852D01*
X142045844Y-119957908D01*
X142136747Y-120058866D01*
X142291248Y-120171118D01*
X142297276Y-120173802D01*
X142297278Y-120173803D01*
X142369756Y-120206072D01*
X142465712Y-120248794D01*
X142559112Y-120268647D01*
X142646056Y-120287128D01*
X142646061Y-120287128D01*
X142652513Y-120288500D01*
X142725746Y-120288500D01*
X142793867Y-120308502D01*
X142840360Y-120362158D01*
X142851056Y-120401329D01*
X142862165Y-120507020D01*
X142870458Y-120585928D01*
X142929473Y-120767556D01*
X143024960Y-120932944D01*
X143029378Y-120937851D01*
X143029379Y-120937852D01*
X143148325Y-121069955D01*
X143152747Y-121074866D01*
X143307248Y-121187118D01*
X143313276Y-121189802D01*
X143313278Y-121189803D01*
X143475681Y-121262109D01*
X143481712Y-121264794D01*
X143542016Y-121277612D01*
X143662056Y-121303128D01*
X143662061Y-121303128D01*
X143668513Y-121304500D01*
X143859487Y-121304500D01*
X143865939Y-121303128D01*
X143865944Y-121303128D01*
X143985984Y-121277612D01*
X144046288Y-121264794D01*
X144052319Y-121262109D01*
X144214722Y-121189803D01*
X144214724Y-121189802D01*
X144220752Y-121187118D01*
X144375253Y-121074866D01*
X144379675Y-121069955D01*
X144498621Y-120937852D01*
X144498622Y-120937851D01*
X144503040Y-120932944D01*
X144598527Y-120767556D01*
X144657542Y-120585928D01*
X144665836Y-120507020D01*
X144676814Y-120402565D01*
X144677504Y-120396000D01*
X144666426Y-120290596D01*
X144658232Y-120212635D01*
X144658232Y-120212633D01*
X144657542Y-120206072D01*
X144598527Y-120024444D01*
X144503040Y-119859056D01*
X144375253Y-119717134D01*
X144220752Y-119604882D01*
X144214724Y-119602198D01*
X144214722Y-119602197D01*
X144052319Y-119529891D01*
X144052318Y-119529891D01*
X144046288Y-119527206D01*
X143952887Y-119507353D01*
X143865944Y-119488872D01*
X143865939Y-119488872D01*
X143859487Y-119487500D01*
X143786254Y-119487500D01*
X143718133Y-119467498D01*
X143671640Y-119413842D01*
X143660944Y-119374671D01*
X143642232Y-119196634D01*
X143642231Y-119196631D01*
X143641542Y-119190072D01*
X143582527Y-119008444D01*
X143487040Y-118843056D01*
X143408475Y-118755800D01*
X143363675Y-118706045D01*
X143363674Y-118706044D01*
X143359253Y-118701134D01*
X143247303Y-118619797D01*
X143210094Y-118592763D01*
X143210093Y-118592762D01*
X143204752Y-118588882D01*
X143198724Y-118586198D01*
X143198722Y-118586197D01*
X143036319Y-118513891D01*
X143036318Y-118513891D01*
X143030288Y-118511206D01*
X142936887Y-118491353D01*
X142849944Y-118472872D01*
X142849939Y-118472872D01*
X142843487Y-118471500D01*
X142652513Y-118471500D01*
X142646061Y-118472872D01*
X142646056Y-118472872D01*
X142559113Y-118491353D01*
X142465712Y-118511206D01*
X142459682Y-118513891D01*
X142459681Y-118513891D01*
X142297278Y-118586197D01*
X142297276Y-118586198D01*
X142291248Y-118588882D01*
X142285907Y-118592762D01*
X142285906Y-118592763D01*
X142248697Y-118619797D01*
X142136747Y-118701134D01*
X142132326Y-118706044D01*
X142132325Y-118706045D01*
X142087526Y-118755800D01*
X142008960Y-118843056D01*
X141913473Y-119008444D01*
X141854458Y-119190072D01*
X141853768Y-119196633D01*
X141853768Y-119196635D01*
X141835186Y-119373435D01*
X141834496Y-119380000D01*
X101092000Y-119380000D01*
X101092000Y-117348000D01*
X131166496Y-117348000D01*
X131167186Y-117354565D01*
X131173844Y-117417908D01*
X131186458Y-117537928D01*
X131245473Y-117719556D01*
X131248776Y-117725278D01*
X131248777Y-117725279D01*
X131269069Y-117760425D01*
X131340960Y-117884944D01*
X131468747Y-118026866D01*
X131623248Y-118139118D01*
X131629276Y-118141802D01*
X131629278Y-118141803D01*
X131654625Y-118153088D01*
X131797712Y-118216794D01*
X131884009Y-118235137D01*
X131978056Y-118255128D01*
X131978061Y-118255128D01*
X131984513Y-118256500D01*
X132175487Y-118256500D01*
X132181939Y-118255128D01*
X132181944Y-118255128D01*
X132275991Y-118235137D01*
X132362288Y-118216794D01*
X132505375Y-118153088D01*
X132530722Y-118141803D01*
X132530724Y-118141802D01*
X132536752Y-118139118D01*
X132691253Y-118026866D01*
X132819040Y-117884944D01*
X132890931Y-117760425D01*
X132911223Y-117725279D01*
X132911224Y-117725278D01*
X132914527Y-117719556D01*
X132973542Y-117537928D01*
X132986157Y-117417908D01*
X132992814Y-117354565D01*
X132993504Y-117348000D01*
X132989464Y-117309562D01*
X132974232Y-117164635D01*
X132974232Y-117164633D01*
X132973542Y-117158072D01*
X132914527Y-116976444D01*
X132819040Y-116811056D01*
X132722503Y-116703840D01*
X132695675Y-116674045D01*
X132695674Y-116674044D01*
X132691253Y-116669134D01*
X132536752Y-116556882D01*
X132530724Y-116554198D01*
X132530722Y-116554197D01*
X132368319Y-116481891D01*
X132368318Y-116481891D01*
X132362288Y-116479206D01*
X132268887Y-116459353D01*
X132181944Y-116440872D01*
X132181939Y-116440872D01*
X132175487Y-116439500D01*
X131984513Y-116439500D01*
X131978061Y-116440872D01*
X131978056Y-116440872D01*
X131891113Y-116459353D01*
X131797712Y-116479206D01*
X131791682Y-116481891D01*
X131791681Y-116481891D01*
X131629278Y-116554197D01*
X131629276Y-116554198D01*
X131623248Y-116556882D01*
X131468747Y-116669134D01*
X131464326Y-116674044D01*
X131464325Y-116674045D01*
X131437498Y-116703840D01*
X131340960Y-116811056D01*
X131245473Y-116976444D01*
X131186458Y-117158072D01*
X131185768Y-117164633D01*
X131185768Y-117164635D01*
X131170536Y-117309562D01*
X131166496Y-117348000D01*
X101092000Y-117348000D01*
X101092000Y-116332000D01*
X114910496Y-116332000D01*
X114911186Y-116338565D01*
X114925824Y-116477834D01*
X114930458Y-116521928D01*
X114989473Y-116703556D01*
X115084960Y-116868944D01*
X115212747Y-117010866D01*
X115367248Y-117123118D01*
X115373276Y-117125802D01*
X115373278Y-117125803D01*
X115445756Y-117158072D01*
X115541712Y-117200794D01*
X115635112Y-117220647D01*
X115722056Y-117239128D01*
X115722061Y-117239128D01*
X115728513Y-117240500D01*
X115919487Y-117240500D01*
X115925939Y-117239128D01*
X115925944Y-117239128D01*
X116012888Y-117220647D01*
X116106288Y-117200794D01*
X116202244Y-117158072D01*
X116274722Y-117125803D01*
X116274724Y-117125802D01*
X116280752Y-117123118D01*
X116435253Y-117010866D01*
X116563040Y-116868944D01*
X116658527Y-116703556D01*
X116717542Y-116521928D01*
X116722177Y-116477834D01*
X116736814Y-116338565D01*
X116737504Y-116332000D01*
X116725706Y-116219744D01*
X116718232Y-116148635D01*
X116718232Y-116148633D01*
X116717542Y-116142072D01*
X116658527Y-115960444D01*
X116563040Y-115795056D01*
X116545526Y-115775604D01*
X116439675Y-115658045D01*
X116439674Y-115658044D01*
X116435253Y-115653134D01*
X116280752Y-115540882D01*
X116274724Y-115538198D01*
X116274722Y-115538197D01*
X116112319Y-115465891D01*
X116112318Y-115465891D01*
X116106288Y-115463206D01*
X116012887Y-115443353D01*
X115925944Y-115424872D01*
X115925939Y-115424872D01*
X115919487Y-115423500D01*
X115728513Y-115423500D01*
X115722061Y-115424872D01*
X115722056Y-115424872D01*
X115635113Y-115443353D01*
X115541712Y-115463206D01*
X115535682Y-115465891D01*
X115535681Y-115465891D01*
X115373278Y-115538197D01*
X115373276Y-115538198D01*
X115367248Y-115540882D01*
X115212747Y-115653134D01*
X115208326Y-115658044D01*
X115208325Y-115658045D01*
X115102475Y-115775604D01*
X115084960Y-115795056D01*
X114989473Y-115960444D01*
X114930458Y-116142072D01*
X114929768Y-116148633D01*
X114929768Y-116148635D01*
X114922294Y-116219744D01*
X114910496Y-116332000D01*
X101092000Y-116332000D01*
X101092000Y-114535885D01*
X156122000Y-114535885D01*
X156126475Y-114551124D01*
X156127865Y-114552329D01*
X156135548Y-114554000D01*
X157207885Y-114554000D01*
X157223124Y-114549525D01*
X157224329Y-114548135D01*
X157226000Y-114540452D01*
X157226000Y-114535885D01*
X157734000Y-114535885D01*
X157738475Y-114551124D01*
X157739865Y-114552329D01*
X157747548Y-114554000D01*
X158819884Y-114554000D01*
X158835123Y-114549525D01*
X158836328Y-114548135D01*
X158837999Y-114540452D01*
X158837999Y-113913331D01*
X158837629Y-113906510D01*
X158832105Y-113855648D01*
X158828479Y-113840396D01*
X158783324Y-113719946D01*
X158774786Y-113704351D01*
X158698285Y-113602276D01*
X158685724Y-113589715D01*
X158583649Y-113513214D01*
X158568054Y-113504676D01*
X158447606Y-113459522D01*
X158432351Y-113455895D01*
X158381486Y-113450369D01*
X158374672Y-113450000D01*
X157752115Y-113450000D01*
X157736876Y-113454475D01*
X157735671Y-113455865D01*
X157734000Y-113463548D01*
X157734000Y-114535885D01*
X157226000Y-114535885D01*
X157226000Y-113468116D01*
X157221525Y-113452877D01*
X157220135Y-113451672D01*
X157212452Y-113450001D01*
X156585331Y-113450001D01*
X156578510Y-113450371D01*
X156527648Y-113455895D01*
X156512396Y-113459521D01*
X156391946Y-113504676D01*
X156376351Y-113513214D01*
X156274276Y-113589715D01*
X156261715Y-113602276D01*
X156185214Y-113704351D01*
X156176676Y-113719946D01*
X156131522Y-113840394D01*
X156127895Y-113855649D01*
X156122369Y-113906514D01*
X156122000Y-113913328D01*
X156122000Y-114535885D01*
X101092000Y-114535885D01*
X101092000Y-112776000D01*
X153010496Y-112776000D01*
X153030458Y-112965928D01*
X153089473Y-113147556D01*
X153184960Y-113312944D01*
X153312747Y-113454866D01*
X153467248Y-113567118D01*
X153473276Y-113569802D01*
X153473278Y-113569803D01*
X153635681Y-113642109D01*
X153641712Y-113644794D01*
X153735112Y-113664647D01*
X153822056Y-113683128D01*
X153822061Y-113683128D01*
X153828513Y-113684500D01*
X154019487Y-113684500D01*
X154025939Y-113683128D01*
X154025944Y-113683128D01*
X154112887Y-113664647D01*
X154206288Y-113644794D01*
X154212319Y-113642109D01*
X154374722Y-113569803D01*
X154374724Y-113569802D01*
X154380752Y-113567118D01*
X154535253Y-113454866D01*
X154663040Y-113312944D01*
X154758527Y-113147556D01*
X154817542Y-112965928D01*
X154837504Y-112776000D01*
X154817542Y-112586072D01*
X154758527Y-112404444D01*
X154663040Y-112239056D01*
X154535253Y-112097134D01*
X154380752Y-111984882D01*
X154374724Y-111982198D01*
X154374722Y-111982197D01*
X154212319Y-111909891D01*
X154212318Y-111909891D01*
X154206288Y-111907206D01*
X154112887Y-111887353D01*
X154025944Y-111868872D01*
X154025939Y-111868872D01*
X154019487Y-111867500D01*
X153828513Y-111867500D01*
X153822061Y-111868872D01*
X153822056Y-111868872D01*
X153735113Y-111887353D01*
X153641712Y-111907206D01*
X153635682Y-111909891D01*
X153635681Y-111909891D01*
X153473278Y-111982197D01*
X153473276Y-111982198D01*
X153467248Y-111984882D01*
X153312747Y-112097134D01*
X153184960Y-112239056D01*
X153089473Y-112404444D01*
X153030458Y-112586072D01*
X153010496Y-112776000D01*
X101092000Y-112776000D01*
X101092000Y-110500000D01*
X120850502Y-110500000D01*
X120870457Y-110728087D01*
X120929716Y-110949243D01*
X120932039Y-110954224D01*
X120932039Y-110954225D01*
X121024151Y-111151762D01*
X121024154Y-111151767D01*
X121026477Y-111156749D01*
X121157802Y-111344300D01*
X121319700Y-111506198D01*
X121324208Y-111509355D01*
X121324211Y-111509357D01*
X121402389Y-111564098D01*
X121507251Y-111637523D01*
X121512233Y-111639846D01*
X121512238Y-111639849D01*
X121709775Y-111731961D01*
X121714757Y-111734284D01*
X121720065Y-111735706D01*
X121720067Y-111735707D01*
X121930598Y-111792119D01*
X121930600Y-111792119D01*
X121935913Y-111793543D01*
X122164000Y-111813498D01*
X122392087Y-111793543D01*
X122397400Y-111792119D01*
X122397402Y-111792119D01*
X122607933Y-111735707D01*
X122607935Y-111735706D01*
X122613243Y-111734284D01*
X122618225Y-111731961D01*
X122815762Y-111639849D01*
X122815767Y-111639846D01*
X122820749Y-111637523D01*
X122925611Y-111564098D01*
X123003789Y-111509357D01*
X123003792Y-111509355D01*
X123008300Y-111506198D01*
X123170198Y-111344300D01*
X123301523Y-111156749D01*
X123303846Y-111151767D01*
X123303849Y-111151762D01*
X123319805Y-111117543D01*
X123366722Y-111064258D01*
X123434999Y-111044797D01*
X123502959Y-111065339D01*
X123548195Y-111117543D01*
X123564151Y-111151762D01*
X123564154Y-111151767D01*
X123566477Y-111156749D01*
X123697802Y-111344300D01*
X123859700Y-111506198D01*
X123864208Y-111509355D01*
X123864211Y-111509357D01*
X123942389Y-111564098D01*
X124047251Y-111637523D01*
X124052233Y-111639846D01*
X124052238Y-111639849D01*
X124249775Y-111731961D01*
X124254757Y-111734284D01*
X124260065Y-111735706D01*
X124260067Y-111735707D01*
X124470598Y-111792119D01*
X124470600Y-111792119D01*
X124475913Y-111793543D01*
X124704000Y-111813498D01*
X124932087Y-111793543D01*
X124937400Y-111792119D01*
X124937402Y-111792119D01*
X125147933Y-111735707D01*
X125147935Y-111735706D01*
X125153243Y-111734284D01*
X125158225Y-111731961D01*
X125355762Y-111639849D01*
X125355767Y-111639846D01*
X125360749Y-111637523D01*
X125465611Y-111564098D01*
X125543789Y-111509357D01*
X125543792Y-111509355D01*
X125548300Y-111506198D01*
X125710198Y-111344300D01*
X125841523Y-111156749D01*
X125843846Y-111151767D01*
X125843849Y-111151762D01*
X125859805Y-111117543D01*
X125906722Y-111064258D01*
X125974999Y-111044797D01*
X126042959Y-111065339D01*
X126088195Y-111117543D01*
X126104151Y-111151762D01*
X126104154Y-111151767D01*
X126106477Y-111156749D01*
X126237802Y-111344300D01*
X126399700Y-111506198D01*
X126404208Y-111509355D01*
X126404211Y-111509357D01*
X126482389Y-111564098D01*
X126587251Y-111637523D01*
X126592233Y-111639846D01*
X126592238Y-111639849D01*
X126789775Y-111731961D01*
X126794757Y-111734284D01*
X126800065Y-111735706D01*
X126800067Y-111735707D01*
X127010598Y-111792119D01*
X127010600Y-111792119D01*
X127015913Y-111793543D01*
X127244000Y-111813498D01*
X127472087Y-111793543D01*
X127477400Y-111792119D01*
X127477402Y-111792119D01*
X127687933Y-111735707D01*
X127687935Y-111735706D01*
X127693243Y-111734284D01*
X127698225Y-111731961D01*
X127895762Y-111639849D01*
X127895767Y-111639846D01*
X127900749Y-111637523D01*
X128005611Y-111564098D01*
X128083789Y-111509357D01*
X128083792Y-111509355D01*
X128088300Y-111506198D01*
X128250198Y-111344300D01*
X128381523Y-111156749D01*
X128383846Y-111151767D01*
X128383849Y-111151762D01*
X128399805Y-111117543D01*
X128446722Y-111064258D01*
X128514999Y-111044797D01*
X128582959Y-111065339D01*
X128628195Y-111117543D01*
X128644151Y-111151762D01*
X128644154Y-111151767D01*
X128646477Y-111156749D01*
X128777802Y-111344300D01*
X128939700Y-111506198D01*
X128944208Y-111509355D01*
X128944211Y-111509357D01*
X129022389Y-111564098D01*
X129127251Y-111637523D01*
X129132233Y-111639846D01*
X129132238Y-111639849D01*
X129329775Y-111731961D01*
X129334757Y-111734284D01*
X129340065Y-111735706D01*
X129340067Y-111735707D01*
X129550598Y-111792119D01*
X129550600Y-111792119D01*
X129555913Y-111793543D01*
X129784000Y-111813498D01*
X130012087Y-111793543D01*
X130017400Y-111792119D01*
X130017402Y-111792119D01*
X130227933Y-111735707D01*
X130227935Y-111735706D01*
X130233243Y-111734284D01*
X130238225Y-111731961D01*
X130435762Y-111639849D01*
X130435767Y-111639846D01*
X130440749Y-111637523D01*
X130545611Y-111564098D01*
X130623789Y-111509357D01*
X130623792Y-111509355D01*
X130628300Y-111506198D01*
X130790198Y-111344300D01*
X130921523Y-111156749D01*
X130923846Y-111151767D01*
X130923849Y-111151762D01*
X131015961Y-110954225D01*
X131015961Y-110954224D01*
X131018284Y-110949243D01*
X131077543Y-110728087D01*
X131097498Y-110500000D01*
X131077543Y-110271913D01*
X131018284Y-110050757D01*
X130939805Y-109882457D01*
X130923849Y-109848238D01*
X130923846Y-109848233D01*
X130921523Y-109843251D01*
X130790198Y-109655700D01*
X130628300Y-109493802D01*
X130623792Y-109490645D01*
X130623789Y-109490643D01*
X130545611Y-109435902D01*
X130440749Y-109362477D01*
X130435767Y-109360154D01*
X130435762Y-109360151D01*
X130238225Y-109268039D01*
X130238224Y-109268039D01*
X130233243Y-109265716D01*
X130227935Y-109264294D01*
X130227933Y-109264293D01*
X130017402Y-109207881D01*
X130017400Y-109207881D01*
X130012087Y-109206457D01*
X129784000Y-109186502D01*
X129555913Y-109206457D01*
X129550600Y-109207881D01*
X129550598Y-109207881D01*
X129340067Y-109264293D01*
X129340065Y-109264294D01*
X129334757Y-109265716D01*
X129329776Y-109268039D01*
X129329775Y-109268039D01*
X129132238Y-109360151D01*
X129132233Y-109360154D01*
X129127251Y-109362477D01*
X129022389Y-109435902D01*
X128944211Y-109490643D01*
X128944208Y-109490645D01*
X128939700Y-109493802D01*
X128777802Y-109655700D01*
X128646477Y-109843251D01*
X128644154Y-109848233D01*
X128644151Y-109848238D01*
X128628195Y-109882457D01*
X128581278Y-109935742D01*
X128513001Y-109955203D01*
X128445041Y-109934661D01*
X128399805Y-109882457D01*
X128383849Y-109848238D01*
X128383846Y-109848233D01*
X128381523Y-109843251D01*
X128250198Y-109655700D01*
X128088300Y-109493802D01*
X128083792Y-109490645D01*
X128083789Y-109490643D01*
X128005611Y-109435902D01*
X127900749Y-109362477D01*
X127895767Y-109360154D01*
X127895762Y-109360151D01*
X127698225Y-109268039D01*
X127698224Y-109268039D01*
X127693243Y-109265716D01*
X127687935Y-109264294D01*
X127687933Y-109264293D01*
X127477402Y-109207881D01*
X127477400Y-109207881D01*
X127472087Y-109206457D01*
X127244000Y-109186502D01*
X127015913Y-109206457D01*
X127010600Y-109207881D01*
X127010598Y-109207881D01*
X126800067Y-109264293D01*
X126800065Y-109264294D01*
X126794757Y-109265716D01*
X126789776Y-109268039D01*
X126789775Y-109268039D01*
X126592238Y-109360151D01*
X126592233Y-109360154D01*
X126587251Y-109362477D01*
X126482389Y-109435902D01*
X126404211Y-109490643D01*
X126404208Y-109490645D01*
X126399700Y-109493802D01*
X126237802Y-109655700D01*
X126106477Y-109843251D01*
X126104154Y-109848233D01*
X126104151Y-109848238D01*
X126088195Y-109882457D01*
X126041278Y-109935742D01*
X125973001Y-109955203D01*
X125905041Y-109934661D01*
X125859805Y-109882457D01*
X125843849Y-109848238D01*
X125843846Y-109848233D01*
X125841523Y-109843251D01*
X125710198Y-109655700D01*
X125548300Y-109493802D01*
X125543792Y-109490645D01*
X125543789Y-109490643D01*
X125465611Y-109435902D01*
X125360749Y-109362477D01*
X125355767Y-109360154D01*
X125355762Y-109360151D01*
X125158225Y-109268039D01*
X125158224Y-109268039D01*
X125153243Y-109265716D01*
X125147935Y-109264294D01*
X125147933Y-109264293D01*
X124937402Y-109207881D01*
X124937400Y-109207881D01*
X124932087Y-109206457D01*
X124704000Y-109186502D01*
X124475913Y-109206457D01*
X124470600Y-109207881D01*
X124470598Y-109207881D01*
X124260067Y-109264293D01*
X124260065Y-109264294D01*
X124254757Y-109265716D01*
X124249776Y-109268039D01*
X124249775Y-109268039D01*
X124052238Y-109360151D01*
X124052233Y-109360154D01*
X124047251Y-109362477D01*
X123942389Y-109435902D01*
X123864211Y-109490643D01*
X123864208Y-109490645D01*
X123859700Y-109493802D01*
X123697802Y-109655700D01*
X123566477Y-109843251D01*
X123564154Y-109848233D01*
X123564151Y-109848238D01*
X123548195Y-109882457D01*
X123501278Y-109935742D01*
X123433001Y-109955203D01*
X123365041Y-109934661D01*
X123319805Y-109882457D01*
X123303849Y-109848238D01*
X123303846Y-109848233D01*
X123301523Y-109843251D01*
X123170198Y-109655700D01*
X123008300Y-109493802D01*
X123003792Y-109490645D01*
X123003789Y-109490643D01*
X122925611Y-109435902D01*
X122820749Y-109362477D01*
X122815767Y-109360154D01*
X122815762Y-109360151D01*
X122618225Y-109268039D01*
X122618224Y-109268039D01*
X122613243Y-109265716D01*
X122607935Y-109264294D01*
X122607933Y-109264293D01*
X122397402Y-109207881D01*
X122397400Y-109207881D01*
X122392087Y-109206457D01*
X122164000Y-109186502D01*
X121935913Y-109206457D01*
X121930600Y-109207881D01*
X121930598Y-109207881D01*
X121720067Y-109264293D01*
X121720065Y-109264294D01*
X121714757Y-109265716D01*
X121709776Y-109268039D01*
X121709775Y-109268039D01*
X121512238Y-109360151D01*
X121512233Y-109360154D01*
X121507251Y-109362477D01*
X121402389Y-109435902D01*
X121324211Y-109490643D01*
X121324208Y-109490645D01*
X121319700Y-109493802D01*
X121157802Y-109655700D01*
X121026477Y-109843251D01*
X121024154Y-109848233D01*
X121024151Y-109848238D01*
X121008195Y-109882457D01*
X120929716Y-110050757D01*
X120870457Y-110271913D01*
X120850502Y-110500000D01*
X101092000Y-110500000D01*
X101092000Y-108677313D01*
X111862496Y-108677313D01*
X111882458Y-108867241D01*
X111941473Y-109048869D01*
X112036960Y-109214257D01*
X112041378Y-109219164D01*
X112041379Y-109219165D01*
X112083294Y-109265716D01*
X112164747Y-109356179D01*
X112319248Y-109468431D01*
X112325276Y-109471115D01*
X112325278Y-109471116D01*
X112369137Y-109490643D01*
X112493712Y-109546107D01*
X112587113Y-109565960D01*
X112674056Y-109584441D01*
X112674061Y-109584441D01*
X112680513Y-109585813D01*
X112871487Y-109585813D01*
X112877939Y-109584441D01*
X112877944Y-109584441D01*
X112964888Y-109565960D01*
X113058288Y-109546107D01*
X113182863Y-109490643D01*
X113226722Y-109471116D01*
X113226724Y-109471115D01*
X113232752Y-109468431D01*
X113387253Y-109356179D01*
X113468706Y-109265716D01*
X113510621Y-109219165D01*
X113510622Y-109219164D01*
X113515040Y-109214257D01*
X113610527Y-109048869D01*
X113669542Y-108867241D01*
X113689504Y-108677313D01*
X113669542Y-108487385D01*
X113610527Y-108305757D01*
X113515040Y-108140369D01*
X113387253Y-107998447D01*
X113232752Y-107886195D01*
X113226724Y-107883511D01*
X113226722Y-107883510D01*
X113064319Y-107811204D01*
X113064318Y-107811204D01*
X113058288Y-107808519D01*
X112964887Y-107788666D01*
X112877944Y-107770185D01*
X112877939Y-107770185D01*
X112871487Y-107768813D01*
X112680513Y-107768813D01*
X112674061Y-107770185D01*
X112674056Y-107770185D01*
X112587113Y-107788666D01*
X112493712Y-107808519D01*
X112487682Y-107811204D01*
X112487681Y-107811204D01*
X112325278Y-107883510D01*
X112325276Y-107883511D01*
X112319248Y-107886195D01*
X112164747Y-107998447D01*
X112036960Y-108140369D01*
X111941473Y-108305757D01*
X111882458Y-108487385D01*
X111862496Y-108677313D01*
X101092000Y-108677313D01*
X101092000Y-105664000D01*
X113386496Y-105664000D01*
X113406458Y-105853928D01*
X113465473Y-106035556D01*
X113560960Y-106200944D01*
X113688747Y-106342866D01*
X113843248Y-106455118D01*
X113849276Y-106457802D01*
X113849278Y-106457803D01*
X114011681Y-106530109D01*
X114017712Y-106532794D01*
X114111113Y-106552647D01*
X114198056Y-106571128D01*
X114198061Y-106571128D01*
X114204513Y-106572500D01*
X114395487Y-106572500D01*
X114401939Y-106571128D01*
X114401944Y-106571128D01*
X114488888Y-106552647D01*
X114582288Y-106532794D01*
X114588319Y-106530109D01*
X114750722Y-106457803D01*
X114750724Y-106457802D01*
X114756752Y-106455118D01*
X114911253Y-106342866D01*
X115039040Y-106200944D01*
X115134527Y-106035556D01*
X115193542Y-105853928D01*
X115213504Y-105664000D01*
X115193542Y-105474072D01*
X115134527Y-105292444D01*
X115039040Y-105127056D01*
X114911253Y-104985134D01*
X114756752Y-104872882D01*
X114750724Y-104870198D01*
X114750722Y-104870197D01*
X114588319Y-104797891D01*
X114588318Y-104797891D01*
X114582288Y-104795206D01*
X114488888Y-104775353D01*
X114401944Y-104756872D01*
X114401939Y-104756872D01*
X114395487Y-104755500D01*
X114204513Y-104755500D01*
X114198061Y-104756872D01*
X114198056Y-104756872D01*
X114111113Y-104775353D01*
X114017712Y-104795206D01*
X114011682Y-104797891D01*
X114011681Y-104797891D01*
X113849278Y-104870197D01*
X113849276Y-104870198D01*
X113843248Y-104872882D01*
X113688747Y-104985134D01*
X113560960Y-105127056D01*
X113465473Y-105292444D01*
X113406458Y-105474072D01*
X113386496Y-105664000D01*
X101092000Y-105664000D01*
X101092000Y-102635473D01*
X101112002Y-102567352D01*
X101165658Y-102520859D01*
X101235932Y-102510755D01*
X101300512Y-102540249D01*
X101327118Y-102572472D01*
X101368960Y-102644944D01*
X101496747Y-102786866D01*
X101651248Y-102899118D01*
X101657276Y-102901802D01*
X101657278Y-102901803D01*
X101819681Y-102974109D01*
X101825712Y-102976794D01*
X101919113Y-102996647D01*
X102006056Y-103015128D01*
X102006061Y-103015128D01*
X102012513Y-103016500D01*
X102203487Y-103016500D01*
X102209939Y-103015128D01*
X102209944Y-103015128D01*
X102296888Y-102996647D01*
X102390288Y-102976794D01*
X102396319Y-102974109D01*
X102558722Y-102901803D01*
X102558724Y-102901802D01*
X102564752Y-102899118D01*
X102591066Y-102880000D01*
X120850502Y-102880000D01*
X120870457Y-103108087D01*
X120929716Y-103329243D01*
X120932039Y-103334224D01*
X120932039Y-103334225D01*
X121024151Y-103531762D01*
X121024154Y-103531767D01*
X121026477Y-103536749D01*
X121157802Y-103724300D01*
X121319700Y-103886198D01*
X121324208Y-103889355D01*
X121324211Y-103889357D01*
X121365542Y-103918297D01*
X121507251Y-104017523D01*
X121512233Y-104019846D01*
X121512238Y-104019849D01*
X121709775Y-104111961D01*
X121714757Y-104114284D01*
X121720065Y-104115706D01*
X121720067Y-104115707D01*
X121930598Y-104172119D01*
X121930600Y-104172119D01*
X121935913Y-104173543D01*
X122164000Y-104193498D01*
X122392087Y-104173543D01*
X122397400Y-104172119D01*
X122397402Y-104172119D01*
X122607933Y-104115707D01*
X122607935Y-104115706D01*
X122613243Y-104114284D01*
X122618225Y-104111961D01*
X122815762Y-104019849D01*
X122815767Y-104019846D01*
X122820749Y-104017523D01*
X122962458Y-103918297D01*
X123003789Y-103889357D01*
X123003792Y-103889355D01*
X123008300Y-103886198D01*
X123170198Y-103724300D01*
X123301523Y-103536749D01*
X123303846Y-103531767D01*
X123303849Y-103531762D01*
X123319805Y-103497543D01*
X123366722Y-103444258D01*
X123434999Y-103424797D01*
X123502959Y-103445339D01*
X123548195Y-103497543D01*
X123564151Y-103531762D01*
X123564154Y-103531767D01*
X123566477Y-103536749D01*
X123697802Y-103724300D01*
X123859700Y-103886198D01*
X123864208Y-103889355D01*
X123864211Y-103889357D01*
X123905542Y-103918297D01*
X124047251Y-104017523D01*
X124052233Y-104019846D01*
X124052238Y-104019849D01*
X124249775Y-104111961D01*
X124254757Y-104114284D01*
X124260065Y-104115706D01*
X124260067Y-104115707D01*
X124470598Y-104172119D01*
X124470600Y-104172119D01*
X124475913Y-104173543D01*
X124704000Y-104193498D01*
X124932087Y-104173543D01*
X124937400Y-104172119D01*
X124937402Y-104172119D01*
X125147933Y-104115707D01*
X125147935Y-104115706D01*
X125153243Y-104114284D01*
X125158225Y-104111961D01*
X125355762Y-104019849D01*
X125355767Y-104019846D01*
X125360749Y-104017523D01*
X125502458Y-103918297D01*
X125543789Y-103889357D01*
X125543792Y-103889355D01*
X125548300Y-103886198D01*
X125710198Y-103724300D01*
X125841523Y-103536749D01*
X125843846Y-103531767D01*
X125843849Y-103531762D01*
X125859805Y-103497543D01*
X125906722Y-103444258D01*
X125974999Y-103424797D01*
X126042959Y-103445339D01*
X126088195Y-103497543D01*
X126104151Y-103531762D01*
X126104154Y-103531767D01*
X126106477Y-103536749D01*
X126237802Y-103724300D01*
X126399700Y-103886198D01*
X126404208Y-103889355D01*
X126404211Y-103889357D01*
X126445542Y-103918297D01*
X126587251Y-104017523D01*
X126592233Y-104019846D01*
X126592238Y-104019849D01*
X126789775Y-104111961D01*
X126794757Y-104114284D01*
X126800065Y-104115706D01*
X126800067Y-104115707D01*
X127010598Y-104172119D01*
X127010600Y-104172119D01*
X127015913Y-104173543D01*
X127244000Y-104193498D01*
X127472087Y-104173543D01*
X127477400Y-104172119D01*
X127477402Y-104172119D01*
X127687933Y-104115707D01*
X127687935Y-104115706D01*
X127693243Y-104114284D01*
X127698225Y-104111961D01*
X127895762Y-104019849D01*
X127895767Y-104019846D01*
X127900749Y-104017523D01*
X128042458Y-103918297D01*
X128083789Y-103889357D01*
X128083792Y-103889355D01*
X128088300Y-103886198D01*
X128250198Y-103724300D01*
X128253357Y-103719789D01*
X128256892Y-103715576D01*
X128258026Y-103716527D01*
X128308071Y-103676529D01*
X128378690Y-103669224D01*
X128442049Y-103701258D01*
X128478030Y-103762462D01*
X128481082Y-103779517D01*
X128482255Y-103790316D01*
X128533385Y-103926705D01*
X128620739Y-104043261D01*
X128737295Y-104130615D01*
X128873684Y-104181745D01*
X128935866Y-104188500D01*
X130632134Y-104188500D01*
X130694316Y-104181745D01*
X130830705Y-104130615D01*
X130947261Y-104043261D01*
X131034615Y-103926705D01*
X131085745Y-103790316D01*
X131092500Y-103728134D01*
X131092500Y-102031866D01*
X131085745Y-101969684D01*
X131034615Y-101833295D01*
X130947261Y-101716739D01*
X130830705Y-101629385D01*
X130694316Y-101578255D01*
X130632134Y-101571500D01*
X128935866Y-101571500D01*
X128873684Y-101578255D01*
X128737295Y-101629385D01*
X128620739Y-101716739D01*
X128533385Y-101833295D01*
X128482255Y-101969684D01*
X128481083Y-101980474D01*
X128480197Y-101982606D01*
X128479575Y-101985222D01*
X128479152Y-101985121D01*
X128453845Y-102046035D01*
X128395483Y-102086463D01*
X128324529Y-102088922D01*
X128263510Y-102052629D01*
X128256511Y-102043969D01*
X128253354Y-102040207D01*
X128250198Y-102035700D01*
X128088300Y-101873802D01*
X128083792Y-101870645D01*
X128083789Y-101870643D01*
X128005611Y-101815902D01*
X127900749Y-101742477D01*
X127895767Y-101740154D01*
X127895762Y-101740151D01*
X127698225Y-101648039D01*
X127698224Y-101648039D01*
X127693243Y-101645716D01*
X127687935Y-101644294D01*
X127687933Y-101644293D01*
X127477402Y-101587881D01*
X127477400Y-101587881D01*
X127472087Y-101586457D01*
X127244000Y-101566502D01*
X127015913Y-101586457D01*
X127010600Y-101587881D01*
X127010598Y-101587881D01*
X126800067Y-101644293D01*
X126800065Y-101644294D01*
X126794757Y-101645716D01*
X126789776Y-101648039D01*
X126789775Y-101648039D01*
X126592238Y-101740151D01*
X126592233Y-101740154D01*
X126587251Y-101742477D01*
X126482389Y-101815902D01*
X126404211Y-101870643D01*
X126404208Y-101870645D01*
X126399700Y-101873802D01*
X126237802Y-102035700D01*
X126106477Y-102223251D01*
X126104154Y-102228233D01*
X126104151Y-102228238D01*
X126088195Y-102262457D01*
X126041278Y-102315742D01*
X125973001Y-102335203D01*
X125905041Y-102314661D01*
X125859805Y-102262457D01*
X125843849Y-102228238D01*
X125843846Y-102228233D01*
X125841523Y-102223251D01*
X125710198Y-102035700D01*
X125548300Y-101873802D01*
X125543792Y-101870645D01*
X125543789Y-101870643D01*
X125465611Y-101815902D01*
X125360749Y-101742477D01*
X125355767Y-101740154D01*
X125355762Y-101740151D01*
X125158225Y-101648039D01*
X125158224Y-101648039D01*
X125153243Y-101645716D01*
X125147935Y-101644294D01*
X125147933Y-101644293D01*
X124937402Y-101587881D01*
X124937400Y-101587881D01*
X124932087Y-101586457D01*
X124704000Y-101566502D01*
X124475913Y-101586457D01*
X124470600Y-101587881D01*
X124470598Y-101587881D01*
X124260067Y-101644293D01*
X124260065Y-101644294D01*
X124254757Y-101645716D01*
X124249776Y-101648039D01*
X124249775Y-101648039D01*
X124052238Y-101740151D01*
X124052233Y-101740154D01*
X124047251Y-101742477D01*
X123942389Y-101815902D01*
X123864211Y-101870643D01*
X123864208Y-101870645D01*
X123859700Y-101873802D01*
X123697802Y-102035700D01*
X123566477Y-102223251D01*
X123564154Y-102228233D01*
X123564151Y-102228238D01*
X123548195Y-102262457D01*
X123501278Y-102315742D01*
X123433001Y-102335203D01*
X123365041Y-102314661D01*
X123319805Y-102262457D01*
X123303849Y-102228238D01*
X123303846Y-102228233D01*
X123301523Y-102223251D01*
X123170198Y-102035700D01*
X123008300Y-101873802D01*
X123003792Y-101870645D01*
X123003789Y-101870643D01*
X122925611Y-101815902D01*
X122820749Y-101742477D01*
X122815767Y-101740154D01*
X122815762Y-101740151D01*
X122618225Y-101648039D01*
X122618224Y-101648039D01*
X122613243Y-101645716D01*
X122607935Y-101644294D01*
X122607933Y-101644293D01*
X122397402Y-101587881D01*
X122397400Y-101587881D01*
X122392087Y-101586457D01*
X122164000Y-101566502D01*
X121935913Y-101586457D01*
X121930600Y-101587881D01*
X121930598Y-101587881D01*
X121720067Y-101644293D01*
X121720065Y-101644294D01*
X121714757Y-101645716D01*
X121709776Y-101648039D01*
X121709775Y-101648039D01*
X121512238Y-101740151D01*
X121512233Y-101740154D01*
X121507251Y-101742477D01*
X121402389Y-101815902D01*
X121324211Y-101870643D01*
X121324208Y-101870645D01*
X121319700Y-101873802D01*
X121157802Y-102035700D01*
X121026477Y-102223251D01*
X121024154Y-102228233D01*
X121024151Y-102228238D01*
X120988727Y-102304206D01*
X120929716Y-102430757D01*
X120870457Y-102651913D01*
X120850502Y-102880000D01*
X102591066Y-102880000D01*
X102719253Y-102786866D01*
X102847040Y-102644944D01*
X102942527Y-102479556D01*
X103001542Y-102297928D01*
X103021504Y-102108000D01*
X103013502Y-102031866D01*
X103002232Y-101924635D01*
X103002232Y-101924633D01*
X103001542Y-101918072D01*
X102942527Y-101736444D01*
X102847040Y-101571056D01*
X102719253Y-101429134D01*
X102614584Y-101353087D01*
X102570094Y-101320763D01*
X102570093Y-101320762D01*
X102564752Y-101316882D01*
X102558724Y-101314198D01*
X102558722Y-101314197D01*
X102396319Y-101241891D01*
X102396318Y-101241891D01*
X102390288Y-101239206D01*
X102296888Y-101219353D01*
X102209944Y-101200872D01*
X102209939Y-101200872D01*
X102203487Y-101199500D01*
X102012513Y-101199500D01*
X102006061Y-101200872D01*
X102006056Y-101200872D01*
X101919113Y-101219353D01*
X101825712Y-101239206D01*
X101819682Y-101241891D01*
X101819681Y-101241891D01*
X101657278Y-101314197D01*
X101657276Y-101314198D01*
X101651248Y-101316882D01*
X101645907Y-101320762D01*
X101645906Y-101320763D01*
X101601416Y-101353087D01*
X101496747Y-101429134D01*
X101368960Y-101571056D01*
X101335653Y-101628746D01*
X101327119Y-101643527D01*
X101275737Y-101692520D01*
X101206023Y-101705956D01*
X101140112Y-101679570D01*
X101098930Y-101621738D01*
X101092000Y-101580527D01*
X101092000Y-100710000D01*
X101112002Y-100641879D01*
X101165658Y-100595386D01*
X101218000Y-100584000D01*
X154658411Y-100584000D01*
X154726532Y-100604002D01*
G37*
%TD.AperFunction*%
%TD*%
M02*
