%TF.GenerationSoftware,KiCad,Pcbnew,(6.0.1)*%
%TF.CreationDate,2022-03-15T19:28:32-04:00*%
%TF.ProjectId,WiFi-Board,57694669-2d42-46f6-9172-642e6b696361,rev?*%
%TF.SameCoordinates,Original*%
%TF.FileFunction,Copper,L3,Inr*%
%TF.FilePolarity,Positive*%
%FSLAX46Y46*%
G04 Gerber Fmt 4.6, Leading zero omitted, Abs format (unit mm)*
G04 Created by KiCad (PCBNEW (6.0.1)) date 2022-03-15 19:28:32*
%MOMM*%
%LPD*%
G01*
G04 APERTURE LIST*
%TA.AperFunction,ComponentPad*%
%ADD10R,1.700000X1.700000*%
%TD*%
%TA.AperFunction,ComponentPad*%
%ADD11O,1.700000X1.700000*%
%TD*%
%TA.AperFunction,ComponentPad*%
%ADD12C,5.600000*%
%TD*%
%TA.AperFunction,ComponentPad*%
%ADD13R,1.600000X1.600000*%
%TD*%
%TA.AperFunction,ComponentPad*%
%ADD14O,1.600000X1.600000*%
%TD*%
%TA.AperFunction,ViaPad*%
%ADD15C,0.800000*%
%TD*%
G04 APERTURE END LIST*
D10*
%TO.N,Net-(J1-Pad1)*%
%TO.C,J1*%
X130033000Y-124709000D03*
D11*
%TO.N,+3V3*%
X130033000Y-127249000D03*
%TO.N,unconnected-(J1-Pad3)*%
X127493000Y-124709000D03*
%TO.N,unconnected-(J1-Pad4)*%
X127493000Y-127249000D03*
%TO.N,unconnected-(J1-Pad5)*%
X124953000Y-124709000D03*
%TO.N,GND*%
X124953000Y-127249000D03*
%TD*%
D12*
%TO.N,GND*%
%TO.C,REF\u002A\u002A*%
X104140000Y-125984000D03*
%TD*%
%TO.N,GND*%
%TO.C,REF\u002A\u002A*%
X156464000Y-103632000D03*
%TD*%
D13*
%TO.N,/SW1*%
%TO.C,SW1*%
X129784000Y-102880000D03*
D14*
%TO.N,/SW2*%
X127244000Y-102880000D03*
%TO.N,/SW3*%
X124704000Y-102880000D03*
%TO.N,/SW4*%
X122164000Y-102880000D03*
%TO.N,Net-(R4-Pad2)*%
X122164000Y-110500000D03*
X124704000Y-110500000D03*
X127244000Y-110500000D03*
X129784000Y-110500000D03*
%TD*%
D10*
%TO.N,+3V3*%
%TO.C,J2*%
X157480000Y-114808000D03*
D11*
%TO.N,/MISO*%
X157480000Y-117348000D03*
%TO.N,/MOSI*%
X157480000Y-119888000D03*
%TO.N,/SCK*%
X157480000Y-122428000D03*
%TO.N,/~{SS}*%
X157480000Y-124968000D03*
%TO.N,GND*%
X157480000Y-127508000D03*
%TD*%
D15*
%TO.N,+3V3*%
X151384000Y-125476000D03*
X111760000Y-121412000D03*
X122936000Y-117348000D03*
X131572000Y-118872000D03*
X117348000Y-121412000D03*
X103632000Y-102108000D03*
X114808000Y-121412000D03*
%TO.N,GND*%
X115824000Y-116332000D03*
X102108000Y-102108000D03*
X132080000Y-117348000D03*
%TO.N,/MISO*%
X153924000Y-112776000D03*
%TO.N,/CTS*%
X142748000Y-119380000D03*
%TO.N,/RTS*%
X143764000Y-120396000D03*
%TO.N,/UART2*%
X114300000Y-105664000D03*
%TO.N,/UART1*%
X112776000Y-108677313D03*
%TD*%
%TA.AperFunction,Conductor*%
%TO.N,GND*%
G36*
X154727504Y-100604002D02*
G01*
X154773997Y-100657658D01*
X154784101Y-100727932D01*
X154754607Y-100792512D01*
X154724089Y-100818116D01*
X154614401Y-100883763D01*
X154608755Y-100887571D01*
X154328408Y-101099596D01*
X154323211Y-101103987D01*
X154321972Y-101105155D01*
X154313950Y-101118862D01*
X154313986Y-101119704D01*
X154319037Y-101127826D01*
X156451190Y-103259980D01*
X156465131Y-103267592D01*
X156466966Y-103267461D01*
X156473580Y-103263210D01*
X158606798Y-101129991D01*
X158614412Y-101116047D01*
X158614344Y-101115089D01*
X158609836Y-101108272D01*
X158608418Y-101107065D01*
X158328813Y-100894064D01*
X158323187Y-100890240D01*
X158203251Y-100817890D01*
X158155253Y-100765576D01*
X158143158Y-100695617D01*
X158170805Y-100630225D01*
X158229417Y-100590161D01*
X158268334Y-100584000D01*
X159366000Y-100584000D01*
X159434121Y-100604002D01*
X159480614Y-100657658D01*
X159492000Y-100710000D01*
X159492000Y-101793061D01*
X159471998Y-101861182D01*
X159418342Y-101907675D01*
X159348068Y-101917779D01*
X159283488Y-101888285D01*
X159261664Y-101863702D01*
X159104697Y-101631863D01*
X159100590Y-101626453D01*
X158987565Y-101493179D01*
X158974740Y-101484743D01*
X158964416Y-101490795D01*
X156836020Y-103619190D01*
X156828408Y-103633131D01*
X156828539Y-103634966D01*
X156832790Y-103641580D01*
X158963009Y-105771798D01*
X158976605Y-105779223D01*
X158986218Y-105772522D01*
X159086518Y-105655912D01*
X159090676Y-105650514D01*
X159262160Y-105401002D01*
X159317228Y-105356191D01*
X159387781Y-105348266D01*
X159451419Y-105379742D01*
X159487936Y-105440627D01*
X159492000Y-105472369D01*
X159492000Y-129366000D01*
X159471998Y-129434121D01*
X159418342Y-129480614D01*
X159366000Y-129492000D01*
X104746571Y-129492000D01*
X104678450Y-129471998D01*
X104631957Y-129418342D01*
X104621853Y-129348068D01*
X104651347Y-129283488D01*
X104711073Y-129245104D01*
X104720159Y-129242799D01*
X105005274Y-129181676D01*
X105011822Y-129179897D01*
X105345549Y-129069527D01*
X105351891Y-129067041D01*
X105671718Y-128921288D01*
X105677777Y-128918121D01*
X105979995Y-128738676D01*
X105985659Y-128734884D01*
X106266732Y-128523849D01*
X106271958Y-128519464D01*
X106281613Y-128510428D01*
X106289682Y-128496750D01*
X106289654Y-128496024D01*
X106284512Y-128487723D01*
X104152810Y-126356020D01*
X104138869Y-126348408D01*
X104137034Y-126348539D01*
X104130420Y-126352790D01*
X101996774Y-128486437D01*
X101989160Y-128500381D01*
X101989237Y-128501470D01*
X101991698Y-128505206D01*
X102265632Y-128715404D01*
X102271262Y-128719259D01*
X102571591Y-128901862D01*
X102577593Y-128905080D01*
X102895897Y-129054184D01*
X102902202Y-129056732D01*
X103234743Y-129170587D01*
X103241313Y-129172446D01*
X103554758Y-129243083D01*
X103616815Y-129277571D01*
X103650375Y-129340136D01*
X103644782Y-129410912D01*
X103601813Y-129467428D01*
X103535109Y-129491742D01*
X103527058Y-129492000D01*
X101218000Y-129492000D01*
X101149879Y-129471998D01*
X101103386Y-129418342D01*
X101092000Y-129366000D01*
X101092000Y-127792561D01*
X101112002Y-127724440D01*
X101165658Y-127677947D01*
X101235932Y-127667843D01*
X101300512Y-127697337D01*
X101322581Y-127722285D01*
X101492320Y-127974883D01*
X101496433Y-127980340D01*
X101616425Y-128122836D01*
X101629164Y-128131279D01*
X101639608Y-128125181D01*
X103767980Y-125996810D01*
X103774357Y-125985131D01*
X104504408Y-125985131D01*
X104504539Y-125986966D01*
X104508790Y-125993580D01*
X106639009Y-128123798D01*
X106652605Y-128131223D01*
X106662218Y-128124522D01*
X106762518Y-128007912D01*
X106766676Y-128002514D01*
X106965762Y-127712840D01*
X106969310Y-127707029D01*
X107071648Y-127516966D01*
X123621257Y-127516966D01*
X123651565Y-127651446D01*
X123654645Y-127661275D01*
X123734770Y-127858603D01*
X123739413Y-127867794D01*
X123850694Y-128049388D01*
X123856777Y-128057699D01*
X123996213Y-128218667D01*
X124003580Y-128225883D01*
X124167434Y-128361916D01*
X124175881Y-128367831D01*
X124359756Y-128475279D01*
X124369042Y-128479729D01*
X124568001Y-128555703D01*
X124577899Y-128558579D01*
X124681250Y-128579606D01*
X124695299Y-128578410D01*
X124699000Y-128568065D01*
X124699000Y-127521115D01*
X124694525Y-127505876D01*
X124693135Y-127504671D01*
X124685452Y-127503000D01*
X123636225Y-127503000D01*
X123622694Y-127506973D01*
X123621257Y-127516966D01*
X107071648Y-127516966D01*
X107135942Y-127397559D01*
X107138849Y-127391381D01*
X107271090Y-127065713D01*
X107273304Y-127059283D01*
X107369598Y-126721237D01*
X107371105Y-126714607D01*
X107430332Y-126368118D01*
X107431112Y-126361378D01*
X107452668Y-126008925D01*
X107452784Y-126005323D01*
X107452853Y-125985819D01*
X107452761Y-125982194D01*
X107433666Y-125629615D01*
X107432931Y-125622849D01*
X107376130Y-125275985D01*
X107374663Y-125269313D01*
X107280736Y-124930627D01*
X107278562Y-124924163D01*
X107179685Y-124675695D01*
X123590251Y-124675695D01*
X123590548Y-124680848D01*
X123590548Y-124680851D01*
X123591004Y-124688763D01*
X123603110Y-124898715D01*
X123604247Y-124903761D01*
X123604248Y-124903767D01*
X123628304Y-125010508D01*
X123652222Y-125116639D01*
X123736266Y-125323616D01*
X123773685Y-125384678D01*
X123850291Y-125509688D01*
X123852987Y-125514088D01*
X123999250Y-125682938D01*
X124171126Y-125825632D01*
X124221618Y-125855137D01*
X124244955Y-125868774D01*
X124293679Y-125920412D01*
X124306750Y-125990195D01*
X124280019Y-126055967D01*
X124239562Y-126089327D01*
X124231457Y-126093546D01*
X124222738Y-126099036D01*
X124052433Y-126226905D01*
X124044726Y-126233748D01*
X123897590Y-126387717D01*
X123891104Y-126395727D01*
X123771098Y-126571649D01*
X123766000Y-126580623D01*
X123676338Y-126773783D01*
X123672775Y-126783470D01*
X123617389Y-126983183D01*
X123618912Y-126991607D01*
X123631292Y-126995000D01*
X125081000Y-126995000D01*
X125149121Y-127015002D01*
X125195614Y-127068658D01*
X125207000Y-127121000D01*
X125207000Y-128567517D01*
X125211064Y-128581359D01*
X125224478Y-128583393D01*
X125231184Y-128582534D01*
X125241262Y-128580392D01*
X125445255Y-128519191D01*
X125454842Y-128515433D01*
X125646095Y-128421739D01*
X125654945Y-128416464D01*
X125828328Y-128292792D01*
X125836200Y-128286139D01*
X125987052Y-128135812D01*
X125993730Y-128127965D01*
X126121022Y-127950819D01*
X126122279Y-127951722D01*
X126169373Y-127908362D01*
X126239311Y-127896145D01*
X126304751Y-127923678D01*
X126332579Y-127955511D01*
X126392987Y-128054088D01*
X126539250Y-128222938D01*
X126711126Y-128365632D01*
X126904000Y-128478338D01*
X126908825Y-128480180D01*
X126908826Y-128480181D01*
X126974360Y-128505206D01*
X127112692Y-128558030D01*
X127117760Y-128559061D01*
X127117763Y-128559062D01*
X127212862Y-128578410D01*
X127331597Y-128602567D01*
X127336772Y-128602757D01*
X127336774Y-128602757D01*
X127549673Y-128610564D01*
X127549677Y-128610564D01*
X127554837Y-128610753D01*
X127559957Y-128610097D01*
X127559959Y-128610097D01*
X127771288Y-128583025D01*
X127771289Y-128583025D01*
X127776416Y-128582368D01*
X127781366Y-128580883D01*
X127985429Y-128519661D01*
X127985434Y-128519659D01*
X127990384Y-128518174D01*
X128190994Y-128419896D01*
X128372860Y-128290173D01*
X128531096Y-128132489D01*
X128538033Y-128122836D01*
X128661453Y-127951077D01*
X128662776Y-127952028D01*
X128709645Y-127908857D01*
X128779580Y-127896625D01*
X128845026Y-127924144D01*
X128872875Y-127955994D01*
X128932987Y-128054088D01*
X129079250Y-128222938D01*
X129251126Y-128365632D01*
X129444000Y-128478338D01*
X129448825Y-128480180D01*
X129448826Y-128480181D01*
X129514360Y-128505206D01*
X129652692Y-128558030D01*
X129657760Y-128559061D01*
X129657763Y-128559062D01*
X129752862Y-128578410D01*
X129871597Y-128602567D01*
X129876772Y-128602757D01*
X129876774Y-128602757D01*
X130089673Y-128610564D01*
X130089677Y-128610564D01*
X130094837Y-128610753D01*
X130099957Y-128610097D01*
X130099959Y-128610097D01*
X130311288Y-128583025D01*
X130311289Y-128583025D01*
X130316416Y-128582368D01*
X130321366Y-128580883D01*
X130525429Y-128519661D01*
X130525434Y-128519659D01*
X130530384Y-128518174D01*
X130730994Y-128419896D01*
X130912860Y-128290173D01*
X131071096Y-128132489D01*
X131078033Y-128122836D01*
X131198435Y-127955277D01*
X131201453Y-127951077D01*
X131214995Y-127923678D01*
X131287998Y-127775966D01*
X156148257Y-127775966D01*
X156178565Y-127910446D01*
X156181645Y-127920275D01*
X156261770Y-128117603D01*
X156266413Y-128126794D01*
X156377694Y-128308388D01*
X156383777Y-128316699D01*
X156523213Y-128477667D01*
X156530580Y-128484883D01*
X156694434Y-128620916D01*
X156702881Y-128626831D01*
X156886756Y-128734279D01*
X156896042Y-128738729D01*
X157095001Y-128814703D01*
X157104899Y-128817579D01*
X157208250Y-128838606D01*
X157222299Y-128837410D01*
X157226000Y-128827065D01*
X157226000Y-128826517D01*
X157734000Y-128826517D01*
X157738064Y-128840359D01*
X157751478Y-128842393D01*
X157758184Y-128841534D01*
X157768262Y-128839392D01*
X157972255Y-128778191D01*
X157981842Y-128774433D01*
X158173095Y-128680739D01*
X158181945Y-128675464D01*
X158355328Y-128551792D01*
X158363200Y-128545139D01*
X158514052Y-128394812D01*
X158520730Y-128386965D01*
X158645003Y-128214020D01*
X158650313Y-128205183D01*
X158744670Y-128014267D01*
X158748469Y-128004672D01*
X158810377Y-127800910D01*
X158812555Y-127790837D01*
X158813986Y-127779962D01*
X158811775Y-127765778D01*
X158798617Y-127762000D01*
X157752115Y-127762000D01*
X157736876Y-127766475D01*
X157735671Y-127767865D01*
X157734000Y-127775548D01*
X157734000Y-128826517D01*
X157226000Y-128826517D01*
X157226000Y-127780115D01*
X157221525Y-127764876D01*
X157220135Y-127763671D01*
X157212452Y-127762000D01*
X156163225Y-127762000D01*
X156149694Y-127765973D01*
X156148257Y-127775966D01*
X131287998Y-127775966D01*
X131298136Y-127755453D01*
X131298137Y-127755451D01*
X131300430Y-127750811D01*
X131365370Y-127537069D01*
X131394529Y-127315590D01*
X131396156Y-127249000D01*
X131377852Y-127026361D01*
X131323431Y-126809702D01*
X131234354Y-126604840D01*
X131176389Y-126515240D01*
X131115822Y-126421617D01*
X131115820Y-126421614D01*
X131113014Y-126417277D01*
X131093405Y-126395727D01*
X130965798Y-126255488D01*
X130934746Y-126191642D01*
X130943141Y-126121143D01*
X130988317Y-126066375D01*
X131014761Y-126052706D01*
X131121297Y-126012767D01*
X131129705Y-126009615D01*
X131246261Y-125922261D01*
X131333615Y-125805705D01*
X131384745Y-125669316D01*
X131391500Y-125607134D01*
X131391500Y-125476000D01*
X150470496Y-125476000D01*
X150471186Y-125482565D01*
X150489440Y-125656238D01*
X150490458Y-125665928D01*
X150549473Y-125847556D01*
X150552776Y-125853278D01*
X150552777Y-125853279D01*
X150582359Y-125904516D01*
X150644960Y-126012944D01*
X150649378Y-126017851D01*
X150649379Y-126017852D01*
X150768325Y-126149955D01*
X150772747Y-126154866D01*
X150871384Y-126226530D01*
X150911767Y-126255870D01*
X150927248Y-126267118D01*
X150933276Y-126269802D01*
X150933278Y-126269803D01*
X151004175Y-126301368D01*
X151101712Y-126344794D01*
X151195113Y-126364647D01*
X151282056Y-126383128D01*
X151282061Y-126383128D01*
X151288513Y-126384500D01*
X151479487Y-126384500D01*
X151485939Y-126383128D01*
X151485944Y-126383128D01*
X151572887Y-126364647D01*
X151666288Y-126344794D01*
X151763825Y-126301368D01*
X151834722Y-126269803D01*
X151834724Y-126269802D01*
X151840752Y-126267118D01*
X151856234Y-126255870D01*
X151896616Y-126226530D01*
X151995253Y-126154866D01*
X151999675Y-126149955D01*
X152118621Y-126017852D01*
X152118622Y-126017851D01*
X152123040Y-126012944D01*
X152185641Y-125904516D01*
X152215223Y-125853279D01*
X152215224Y-125853278D01*
X152218527Y-125847556D01*
X152277542Y-125665928D01*
X152278561Y-125656238D01*
X152296814Y-125482565D01*
X152297504Y-125476000D01*
X152277542Y-125286072D01*
X152218527Y-125104444D01*
X152123040Y-124939056D01*
X152119113Y-124934695D01*
X156117251Y-124934695D01*
X156117548Y-124939848D01*
X156117548Y-124939851D01*
X156123011Y-125034590D01*
X156130110Y-125157715D01*
X156131247Y-125162761D01*
X156131248Y-125162767D01*
X156138891Y-125196680D01*
X156179222Y-125375639D01*
X156263266Y-125582616D01*
X156265965Y-125587020D01*
X156365945Y-125750173D01*
X156379987Y-125773088D01*
X156526250Y-125941938D01*
X156698126Y-126084632D01*
X156747696Y-126113598D01*
X156771955Y-126127774D01*
X156820679Y-126179412D01*
X156833750Y-126249195D01*
X156807019Y-126314967D01*
X156766562Y-126348327D01*
X156758457Y-126352546D01*
X156749738Y-126358036D01*
X156579433Y-126485905D01*
X156571726Y-126492748D01*
X156424590Y-126646717D01*
X156418104Y-126654727D01*
X156298098Y-126830649D01*
X156293000Y-126839623D01*
X156203338Y-127032783D01*
X156199775Y-127042470D01*
X156144389Y-127242183D01*
X156145912Y-127250607D01*
X156158292Y-127254000D01*
X158798344Y-127254000D01*
X158811875Y-127250027D01*
X158813180Y-127240947D01*
X158771214Y-127073875D01*
X158767894Y-127064124D01*
X158682972Y-126868814D01*
X158678105Y-126859739D01*
X158562426Y-126680926D01*
X158556136Y-126672757D01*
X158412806Y-126515240D01*
X158405273Y-126508215D01*
X158238139Y-126376222D01*
X158229556Y-126370520D01*
X158192602Y-126350120D01*
X158142631Y-126299687D01*
X158127859Y-126230245D01*
X158152975Y-126163839D01*
X158180327Y-126137232D01*
X158234470Y-126098612D01*
X158359860Y-126009173D01*
X158363724Y-126005323D01*
X158464883Y-125904516D01*
X158518096Y-125851489D01*
X158577594Y-125768689D01*
X158645435Y-125674277D01*
X158648453Y-125670077D01*
X158662172Y-125642320D01*
X158745136Y-125474453D01*
X158745137Y-125474451D01*
X158747430Y-125469811D01*
X158812370Y-125256069D01*
X158841529Y-125034590D01*
X158843156Y-124968000D01*
X158824852Y-124745361D01*
X158770431Y-124528702D01*
X158681354Y-124323840D01*
X158605033Y-124205866D01*
X158562822Y-124140617D01*
X158562820Y-124140614D01*
X158560014Y-124136277D01*
X158409670Y-123971051D01*
X158405619Y-123967852D01*
X158405615Y-123967848D01*
X158238414Y-123835800D01*
X158238410Y-123835798D01*
X158234359Y-123832598D01*
X158193053Y-123809796D01*
X158143084Y-123759364D01*
X158128312Y-123689921D01*
X158153428Y-123623516D01*
X158180780Y-123596909D01*
X158242173Y-123553118D01*
X158359860Y-123469173D01*
X158365140Y-123463912D01*
X158476640Y-123352800D01*
X158518096Y-123311489D01*
X158577594Y-123228689D01*
X158645435Y-123134277D01*
X158648453Y-123130077D01*
X158682751Y-123060681D01*
X158745136Y-122934453D01*
X158745137Y-122934451D01*
X158747430Y-122929811D01*
X158812370Y-122716069D01*
X158841529Y-122494590D01*
X158843156Y-122428000D01*
X158824852Y-122205361D01*
X158770431Y-121988702D01*
X158681354Y-121783840D01*
X158641906Y-121722862D01*
X158562822Y-121600617D01*
X158562820Y-121600614D01*
X158560014Y-121596277D01*
X158409670Y-121431051D01*
X158405619Y-121427852D01*
X158405615Y-121427848D01*
X158238414Y-121295800D01*
X158238410Y-121295798D01*
X158234359Y-121292598D01*
X158193053Y-121269796D01*
X158143084Y-121219364D01*
X158128312Y-121149921D01*
X158153428Y-121083516D01*
X158180780Y-121056909D01*
X158224603Y-121025650D01*
X158359860Y-120929173D01*
X158408429Y-120880774D01*
X158514435Y-120775137D01*
X158518096Y-120771489D01*
X158577594Y-120688689D01*
X158645435Y-120594277D01*
X158648453Y-120590077D01*
X158741738Y-120401329D01*
X158745136Y-120394453D01*
X158745137Y-120394451D01*
X158747430Y-120389811D01*
X158812370Y-120176069D01*
X158841529Y-119954590D01*
X158843156Y-119888000D01*
X158824852Y-119665361D01*
X158770431Y-119448702D01*
X158681354Y-119243840D01*
X158641906Y-119182862D01*
X158562822Y-119060617D01*
X158562820Y-119060614D01*
X158560014Y-119056277D01*
X158409670Y-118891051D01*
X158405619Y-118887852D01*
X158405615Y-118887848D01*
X158238414Y-118755800D01*
X158238410Y-118755798D01*
X158234359Y-118752598D01*
X158193053Y-118729796D01*
X158143084Y-118679364D01*
X158128312Y-118609921D01*
X158153428Y-118543516D01*
X158180780Y-118516909D01*
X158244441Y-118471500D01*
X158359860Y-118389173D01*
X158408429Y-118340774D01*
X158514435Y-118235137D01*
X158518096Y-118231489D01*
X158527670Y-118218166D01*
X158645435Y-118054277D01*
X158648453Y-118050077D01*
X158658006Y-118030749D01*
X158745136Y-117854453D01*
X158745137Y-117854451D01*
X158747430Y-117849811D01*
X158812370Y-117636069D01*
X158841529Y-117414590D01*
X158843156Y-117348000D01*
X158824852Y-117125361D01*
X158770431Y-116908702D01*
X158681354Y-116703840D01*
X158641906Y-116642862D01*
X158562822Y-116520617D01*
X158562820Y-116520614D01*
X158560014Y-116516277D01*
X158556532Y-116512450D01*
X158412798Y-116354488D01*
X158381746Y-116290642D01*
X158390141Y-116220143D01*
X158435317Y-116165375D01*
X158461761Y-116151706D01*
X158568297Y-116111767D01*
X158576705Y-116108615D01*
X158693261Y-116021261D01*
X158780615Y-115904705D01*
X158831745Y-115768316D01*
X158838500Y-115706134D01*
X158838500Y-113909866D01*
X158831745Y-113847684D01*
X158780615Y-113711295D01*
X158693261Y-113594739D01*
X158576705Y-113507385D01*
X158440316Y-113456255D01*
X158384440Y-113450185D01*
X158381531Y-113449869D01*
X158378134Y-113449500D01*
X156581866Y-113449500D01*
X156578469Y-113449869D01*
X156575560Y-113450185D01*
X156519684Y-113456255D01*
X156383295Y-113507385D01*
X156266739Y-113594739D01*
X156179385Y-113711295D01*
X156128255Y-113847684D01*
X156121500Y-113909866D01*
X156121500Y-115706134D01*
X156128255Y-115768316D01*
X156179385Y-115904705D01*
X156266739Y-116021261D01*
X156383295Y-116108615D01*
X156391704Y-116111767D01*
X156391705Y-116111768D01*
X156500451Y-116152535D01*
X156557216Y-116195176D01*
X156581916Y-116261738D01*
X156566709Y-116331087D01*
X156547316Y-116357568D01*
X156420629Y-116490138D01*
X156294743Y-116674680D01*
X156200688Y-116877305D01*
X156140989Y-117092570D01*
X156117251Y-117314695D01*
X156117548Y-117319848D01*
X156117548Y-117319851D01*
X156123011Y-117414590D01*
X156130110Y-117537715D01*
X156131247Y-117542761D01*
X156131248Y-117542767D01*
X156151119Y-117630939D01*
X156179222Y-117755639D01*
X156263266Y-117962616D01*
X156265965Y-117967020D01*
X156373072Y-118141803D01*
X156379987Y-118153088D01*
X156526250Y-118321938D01*
X156698126Y-118464632D01*
X156759411Y-118500444D01*
X156771445Y-118507476D01*
X156820169Y-118559114D01*
X156833240Y-118628897D01*
X156806509Y-118694669D01*
X156766055Y-118728027D01*
X156753607Y-118734507D01*
X156749474Y-118737610D01*
X156749471Y-118737612D01*
X156609033Y-118843056D01*
X156574965Y-118868635D01*
X156420629Y-119030138D01*
X156294743Y-119214680D01*
X156279003Y-119248590D01*
X156221052Y-119373435D01*
X156200688Y-119417305D01*
X156140989Y-119632570D01*
X156117251Y-119854695D01*
X156117548Y-119859848D01*
X156117548Y-119859851D01*
X156123011Y-119954590D01*
X156130110Y-120077715D01*
X156131247Y-120082761D01*
X156131248Y-120082767D01*
X156151765Y-120173803D01*
X156179222Y-120295639D01*
X156263266Y-120502616D01*
X156265965Y-120507020D01*
X156338118Y-120624763D01*
X156379987Y-120693088D01*
X156526250Y-120861938D01*
X156698126Y-121004632D01*
X156759411Y-121040444D01*
X156771445Y-121047476D01*
X156820169Y-121099114D01*
X156833240Y-121168897D01*
X156806509Y-121234669D01*
X156766055Y-121268027D01*
X156753607Y-121274507D01*
X156749474Y-121277610D01*
X156749471Y-121277612D01*
X156725247Y-121295800D01*
X156574965Y-121408635D01*
X156420629Y-121570138D01*
X156294743Y-121754680D01*
X156200688Y-121957305D01*
X156140989Y-122172570D01*
X156117251Y-122394695D01*
X156117548Y-122399848D01*
X156117548Y-122399851D01*
X156123011Y-122494590D01*
X156130110Y-122617715D01*
X156131247Y-122622761D01*
X156131248Y-122622767D01*
X156153392Y-122721023D01*
X156179222Y-122835639D01*
X156263266Y-123042616D01*
X156379987Y-123233088D01*
X156526250Y-123401938D01*
X156698126Y-123544632D01*
X156747696Y-123573598D01*
X156771445Y-123587476D01*
X156820169Y-123639114D01*
X156833240Y-123708897D01*
X156806509Y-123774669D01*
X156766055Y-123808027D01*
X156753607Y-123814507D01*
X156749474Y-123817610D01*
X156749471Y-123817612D01*
X156579100Y-123945530D01*
X156574965Y-123948635D01*
X156571393Y-123952373D01*
X156466830Y-124061792D01*
X156420629Y-124110138D01*
X156294743Y-124294680D01*
X156279003Y-124328590D01*
X156218605Y-124458707D01*
X156200688Y-124497305D01*
X156140989Y-124712570D01*
X156117251Y-124934695D01*
X152119113Y-124934695D01*
X151995253Y-124797134D01*
X151840752Y-124684882D01*
X151834724Y-124682198D01*
X151834722Y-124682197D01*
X151672319Y-124609891D01*
X151672318Y-124609891D01*
X151666288Y-124607206D01*
X151572888Y-124587353D01*
X151485944Y-124568872D01*
X151485939Y-124568872D01*
X151479487Y-124567500D01*
X151288513Y-124567500D01*
X151282061Y-124568872D01*
X151282056Y-124568872D01*
X151195112Y-124587353D01*
X151101712Y-124607206D01*
X151095682Y-124609891D01*
X151095681Y-124609891D01*
X150933278Y-124682197D01*
X150933276Y-124682198D01*
X150927248Y-124684882D01*
X150772747Y-124797134D01*
X150644960Y-124939056D01*
X150549473Y-125104444D01*
X150490458Y-125286072D01*
X150470496Y-125476000D01*
X131391500Y-125476000D01*
X131391500Y-123810866D01*
X131384745Y-123748684D01*
X131333615Y-123612295D01*
X131246261Y-123495739D01*
X131129705Y-123408385D01*
X130993316Y-123357255D01*
X130931134Y-123350500D01*
X129134866Y-123350500D01*
X129072684Y-123357255D01*
X128936295Y-123408385D01*
X128819739Y-123495739D01*
X128732385Y-123612295D01*
X128729233Y-123620703D01*
X128687919Y-123730907D01*
X128645277Y-123787671D01*
X128578716Y-123812371D01*
X128509367Y-123797163D01*
X128476743Y-123771476D01*
X128426151Y-123715875D01*
X128426142Y-123715866D01*
X128422670Y-123712051D01*
X128418619Y-123708852D01*
X128418615Y-123708848D01*
X128251414Y-123576800D01*
X128251410Y-123576798D01*
X128247359Y-123573598D01*
X128051789Y-123465638D01*
X128046920Y-123463914D01*
X128046916Y-123463912D01*
X127846087Y-123392795D01*
X127846083Y-123392794D01*
X127841212Y-123391069D01*
X127836119Y-123390162D01*
X127836116Y-123390161D01*
X127626373Y-123352800D01*
X127626367Y-123352799D01*
X127621284Y-123351894D01*
X127547452Y-123350992D01*
X127403081Y-123349228D01*
X127403079Y-123349228D01*
X127397911Y-123349165D01*
X127177091Y-123382955D01*
X126964756Y-123452357D01*
X126936456Y-123467089D01*
X126787498Y-123544632D01*
X126766607Y-123555507D01*
X126762474Y-123558610D01*
X126762471Y-123558612D01*
X126592100Y-123686530D01*
X126587965Y-123689635D01*
X126554515Y-123724638D01*
X126439324Y-123845179D01*
X126433629Y-123851138D01*
X126326201Y-124008621D01*
X126271293Y-124053621D01*
X126200768Y-124061792D01*
X126137021Y-124030538D01*
X126116324Y-124006054D01*
X126035822Y-123881617D01*
X126035820Y-123881614D01*
X126033014Y-123877277D01*
X125882670Y-123712051D01*
X125878619Y-123708852D01*
X125878615Y-123708848D01*
X125711414Y-123576800D01*
X125711410Y-123576798D01*
X125707359Y-123573598D01*
X125511789Y-123465638D01*
X125506920Y-123463914D01*
X125506916Y-123463912D01*
X125306087Y-123392795D01*
X125306083Y-123392794D01*
X125301212Y-123391069D01*
X125296119Y-123390162D01*
X125296116Y-123390161D01*
X125086373Y-123352800D01*
X125086367Y-123352799D01*
X125081284Y-123351894D01*
X125007452Y-123350992D01*
X124863081Y-123349228D01*
X124863079Y-123349228D01*
X124857911Y-123349165D01*
X124637091Y-123382955D01*
X124424756Y-123452357D01*
X124396456Y-123467089D01*
X124247498Y-123544632D01*
X124226607Y-123555507D01*
X124222474Y-123558610D01*
X124222471Y-123558612D01*
X124052100Y-123686530D01*
X124047965Y-123689635D01*
X124014515Y-123724638D01*
X123899324Y-123845179D01*
X123893629Y-123851138D01*
X123767743Y-124035680D01*
X123722821Y-124132457D01*
X123688746Y-124205866D01*
X123673688Y-124238305D01*
X123613989Y-124453570D01*
X123590251Y-124675695D01*
X107179685Y-124675695D01*
X107148598Y-124597578D01*
X107145742Y-124591398D01*
X106981269Y-124280763D01*
X106977769Y-124274937D01*
X106780697Y-123983862D01*
X106776590Y-123978453D01*
X106663565Y-123845179D01*
X106650740Y-123836743D01*
X106640416Y-123842795D01*
X104512020Y-125971190D01*
X104504408Y-125985131D01*
X103774357Y-125985131D01*
X103775592Y-125982869D01*
X103775461Y-125981034D01*
X103771210Y-125974420D01*
X101640992Y-123844203D01*
X101627455Y-123836811D01*
X101617753Y-123843599D01*
X101510430Y-123969257D01*
X101506296Y-123974664D01*
X101322089Y-124244703D01*
X101267177Y-124289706D01*
X101196653Y-124297877D01*
X101132905Y-124266623D01*
X101096175Y-124205866D01*
X101092000Y-124173699D01*
X101092000Y-123470862D01*
X101989950Y-123470862D01*
X101989986Y-123471704D01*
X101995037Y-123479826D01*
X104127190Y-125611980D01*
X104141131Y-125619592D01*
X104142966Y-125619461D01*
X104149580Y-125615210D01*
X106282798Y-123481991D01*
X106290412Y-123468047D01*
X106290344Y-123467089D01*
X106285836Y-123460272D01*
X106284418Y-123459065D01*
X106004813Y-123246064D01*
X105999187Y-123242240D01*
X105698214Y-123060681D01*
X105692202Y-123057484D01*
X105373370Y-122909487D01*
X105367070Y-122906967D01*
X105034129Y-122794273D01*
X105027551Y-122792437D01*
X104684417Y-122716367D01*
X104677678Y-122715251D01*
X104328310Y-122676680D01*
X104321529Y-122676301D01*
X103970015Y-122675687D01*
X103963242Y-122676042D01*
X103613720Y-122713395D01*
X103607010Y-122714482D01*
X103263586Y-122789361D01*
X103257011Y-122791172D01*
X102923683Y-122902702D01*
X102917361Y-122905205D01*
X102598034Y-123052079D01*
X102591991Y-123055265D01*
X102290401Y-123235763D01*
X102284755Y-123239571D01*
X102004408Y-123451596D01*
X101999211Y-123455987D01*
X101997972Y-123457155D01*
X101989950Y-123470862D01*
X101092000Y-123470862D01*
X101092000Y-121412000D01*
X110846496Y-121412000D01*
X110847186Y-121418565D01*
X110865463Y-121592457D01*
X110866458Y-121601928D01*
X110925473Y-121783556D01*
X111020960Y-121948944D01*
X111148747Y-122090866D01*
X111303248Y-122203118D01*
X111309276Y-122205802D01*
X111309278Y-122205803D01*
X111471681Y-122278109D01*
X111477712Y-122280794D01*
X111571113Y-122300647D01*
X111658056Y-122319128D01*
X111658061Y-122319128D01*
X111664513Y-122320500D01*
X111855487Y-122320500D01*
X111861939Y-122319128D01*
X111861944Y-122319128D01*
X111948887Y-122300647D01*
X112042288Y-122280794D01*
X112048319Y-122278109D01*
X112210722Y-122205803D01*
X112210724Y-122205802D01*
X112216752Y-122203118D01*
X112371253Y-122090866D01*
X112499040Y-121948944D01*
X112594527Y-121783556D01*
X112653542Y-121601928D01*
X112654538Y-121592457D01*
X112672814Y-121418565D01*
X112673504Y-121412000D01*
X113894496Y-121412000D01*
X113895186Y-121418565D01*
X113913463Y-121592457D01*
X113914458Y-121601928D01*
X113973473Y-121783556D01*
X114068960Y-121948944D01*
X114196747Y-122090866D01*
X114351248Y-122203118D01*
X114357276Y-122205802D01*
X114357278Y-122205803D01*
X114519681Y-122278109D01*
X114525712Y-122280794D01*
X114619113Y-122300647D01*
X114706056Y-122319128D01*
X114706061Y-122319128D01*
X114712513Y-122320500D01*
X114903487Y-122320500D01*
X114909939Y-122319128D01*
X114909944Y-122319128D01*
X114996887Y-122300647D01*
X115090288Y-122280794D01*
X115096319Y-122278109D01*
X115258722Y-122205803D01*
X115258724Y-122205802D01*
X115264752Y-122203118D01*
X115419253Y-122090866D01*
X115547040Y-121948944D01*
X115642527Y-121783556D01*
X115701542Y-121601928D01*
X115702538Y-121592457D01*
X115720814Y-121418565D01*
X115721504Y-121412000D01*
X116434496Y-121412000D01*
X116435186Y-121418565D01*
X116453463Y-121592457D01*
X116454458Y-121601928D01*
X116513473Y-121783556D01*
X116608960Y-121948944D01*
X116736747Y-122090866D01*
X116891248Y-122203118D01*
X116897276Y-122205802D01*
X116897278Y-122205803D01*
X117059681Y-122278109D01*
X117065712Y-122280794D01*
X117159113Y-122300647D01*
X117246056Y-122319128D01*
X117246061Y-122319128D01*
X117252513Y-122320500D01*
X117443487Y-122320500D01*
X117449939Y-122319128D01*
X117449944Y-122319128D01*
X117536887Y-122300647D01*
X117630288Y-122280794D01*
X117636319Y-122278109D01*
X117798722Y-122205803D01*
X117798724Y-122205802D01*
X117804752Y-122203118D01*
X117959253Y-122090866D01*
X118087040Y-121948944D01*
X118182527Y-121783556D01*
X118241542Y-121601928D01*
X118242538Y-121592457D01*
X118260814Y-121418565D01*
X118261504Y-121412000D01*
X118260814Y-121405435D01*
X118242232Y-121228635D01*
X118242232Y-121228633D01*
X118241542Y-121222072D01*
X118182527Y-121040444D01*
X118087040Y-120875056D01*
X117959253Y-120733134D01*
X117804752Y-120620882D01*
X117798724Y-120618198D01*
X117798722Y-120618197D01*
X117636319Y-120545891D01*
X117636318Y-120545891D01*
X117630288Y-120543206D01*
X117536887Y-120523353D01*
X117449944Y-120504872D01*
X117449939Y-120504872D01*
X117443487Y-120503500D01*
X117252513Y-120503500D01*
X117246061Y-120504872D01*
X117246056Y-120504872D01*
X117159113Y-120523353D01*
X117065712Y-120543206D01*
X117059682Y-120545891D01*
X117059681Y-120545891D01*
X116897278Y-120618197D01*
X116897276Y-120618198D01*
X116891248Y-120620882D01*
X116736747Y-120733134D01*
X116608960Y-120875056D01*
X116513473Y-121040444D01*
X116454458Y-121222072D01*
X116453768Y-121228633D01*
X116453768Y-121228635D01*
X116435186Y-121405435D01*
X116434496Y-121412000D01*
X115721504Y-121412000D01*
X115720814Y-121405435D01*
X115702232Y-121228635D01*
X115702232Y-121228633D01*
X115701542Y-121222072D01*
X115642527Y-121040444D01*
X115547040Y-120875056D01*
X115419253Y-120733134D01*
X115264752Y-120620882D01*
X115258724Y-120618198D01*
X115258722Y-120618197D01*
X115096319Y-120545891D01*
X115096318Y-120545891D01*
X115090288Y-120543206D01*
X114996887Y-120523353D01*
X114909944Y-120504872D01*
X114909939Y-120504872D01*
X114903487Y-120503500D01*
X114712513Y-120503500D01*
X114706061Y-120504872D01*
X114706056Y-120504872D01*
X114619113Y-120523353D01*
X114525712Y-120543206D01*
X114519682Y-120545891D01*
X114519681Y-120545891D01*
X114357278Y-120618197D01*
X114357276Y-120618198D01*
X114351248Y-120620882D01*
X114196747Y-120733134D01*
X114068960Y-120875056D01*
X113973473Y-121040444D01*
X113914458Y-121222072D01*
X113913768Y-121228633D01*
X113913768Y-121228635D01*
X113895186Y-121405435D01*
X113894496Y-121412000D01*
X112673504Y-121412000D01*
X112672814Y-121405435D01*
X112654232Y-121228635D01*
X112654232Y-121228633D01*
X112653542Y-121222072D01*
X112594527Y-121040444D01*
X112499040Y-120875056D01*
X112371253Y-120733134D01*
X112216752Y-120620882D01*
X112210724Y-120618198D01*
X112210722Y-120618197D01*
X112048319Y-120545891D01*
X112048318Y-120545891D01*
X112042288Y-120543206D01*
X111948887Y-120523353D01*
X111861944Y-120504872D01*
X111861939Y-120504872D01*
X111855487Y-120503500D01*
X111664513Y-120503500D01*
X111658061Y-120504872D01*
X111658056Y-120504872D01*
X111571113Y-120523353D01*
X111477712Y-120543206D01*
X111471682Y-120545891D01*
X111471681Y-120545891D01*
X111309278Y-120618197D01*
X111309276Y-120618198D01*
X111303248Y-120620882D01*
X111148747Y-120733134D01*
X111020960Y-120875056D01*
X110925473Y-121040444D01*
X110866458Y-121222072D01*
X110865768Y-121228633D01*
X110865768Y-121228635D01*
X110847186Y-121405435D01*
X110846496Y-121412000D01*
X101092000Y-121412000D01*
X101092000Y-118872000D01*
X130658496Y-118872000D01*
X130659186Y-118878565D01*
X130677463Y-119052457D01*
X130678458Y-119061928D01*
X130737473Y-119243556D01*
X130832960Y-119408944D01*
X130960747Y-119550866D01*
X131115248Y-119663118D01*
X131121276Y-119665802D01*
X131121278Y-119665803D01*
X131283681Y-119738109D01*
X131289712Y-119740794D01*
X131383113Y-119760647D01*
X131470056Y-119779128D01*
X131470061Y-119779128D01*
X131476513Y-119780500D01*
X131667487Y-119780500D01*
X131673939Y-119779128D01*
X131673944Y-119779128D01*
X131760887Y-119760647D01*
X131854288Y-119740794D01*
X131860319Y-119738109D01*
X132022722Y-119665803D01*
X132022724Y-119665802D01*
X132028752Y-119663118D01*
X132183253Y-119550866D01*
X132311040Y-119408944D01*
X132327751Y-119380000D01*
X141834496Y-119380000D01*
X141835186Y-119386565D01*
X141852863Y-119554749D01*
X141854458Y-119569928D01*
X141913473Y-119751556D01*
X142008960Y-119916944D01*
X142013378Y-119921851D01*
X142013379Y-119921852D01*
X142045844Y-119957908D01*
X142136747Y-120058866D01*
X142291248Y-120171118D01*
X142297276Y-120173802D01*
X142297278Y-120173803D01*
X142369756Y-120206072D01*
X142465712Y-120248794D01*
X142559112Y-120268647D01*
X142646056Y-120287128D01*
X142646061Y-120287128D01*
X142652513Y-120288500D01*
X142725746Y-120288500D01*
X142793867Y-120308502D01*
X142840360Y-120362158D01*
X142851056Y-120401329D01*
X142865824Y-120541834D01*
X142870458Y-120585928D01*
X142929473Y-120767556D01*
X143024960Y-120932944D01*
X143029378Y-120937851D01*
X143029379Y-120937852D01*
X143148325Y-121069955D01*
X143152747Y-121074866D01*
X143307248Y-121187118D01*
X143313276Y-121189802D01*
X143313278Y-121189803D01*
X143475681Y-121262109D01*
X143481712Y-121264794D01*
X143542016Y-121277612D01*
X143662056Y-121303128D01*
X143662061Y-121303128D01*
X143668513Y-121304500D01*
X143859487Y-121304500D01*
X143865939Y-121303128D01*
X143865944Y-121303128D01*
X143985984Y-121277612D01*
X144046288Y-121264794D01*
X144052319Y-121262109D01*
X144214722Y-121189803D01*
X144214724Y-121189802D01*
X144220752Y-121187118D01*
X144375253Y-121074866D01*
X144379675Y-121069955D01*
X144498621Y-120937852D01*
X144498622Y-120937851D01*
X144503040Y-120932944D01*
X144598527Y-120767556D01*
X144657542Y-120585928D01*
X144662177Y-120541834D01*
X144676814Y-120402565D01*
X144677504Y-120396000D01*
X144666426Y-120290596D01*
X144658232Y-120212635D01*
X144658232Y-120212633D01*
X144657542Y-120206072D01*
X144598527Y-120024444D01*
X144503040Y-119859056D01*
X144375253Y-119717134D01*
X144220752Y-119604882D01*
X144214724Y-119602198D01*
X144214722Y-119602197D01*
X144052319Y-119529891D01*
X144052318Y-119529891D01*
X144046288Y-119527206D01*
X143952887Y-119507353D01*
X143865944Y-119488872D01*
X143865939Y-119488872D01*
X143859487Y-119487500D01*
X143786254Y-119487500D01*
X143718133Y-119467498D01*
X143671640Y-119413842D01*
X143660944Y-119374671D01*
X143642232Y-119196634D01*
X143642231Y-119196631D01*
X143641542Y-119190072D01*
X143582527Y-119008444D01*
X143487040Y-118843056D01*
X143408475Y-118755800D01*
X143363675Y-118706045D01*
X143363674Y-118706044D01*
X143359253Y-118701134D01*
X143247303Y-118619797D01*
X143210094Y-118592763D01*
X143210093Y-118592762D01*
X143204752Y-118588882D01*
X143198724Y-118586198D01*
X143198722Y-118586197D01*
X143036319Y-118513891D01*
X143036318Y-118513891D01*
X143030288Y-118511206D01*
X142936887Y-118491353D01*
X142849944Y-118472872D01*
X142849939Y-118472872D01*
X142843487Y-118471500D01*
X142652513Y-118471500D01*
X142646061Y-118472872D01*
X142646056Y-118472872D01*
X142559113Y-118491353D01*
X142465712Y-118511206D01*
X142459682Y-118513891D01*
X142459681Y-118513891D01*
X142297278Y-118586197D01*
X142297276Y-118586198D01*
X142291248Y-118588882D01*
X142285907Y-118592762D01*
X142285906Y-118592763D01*
X142248697Y-118619797D01*
X142136747Y-118701134D01*
X142132326Y-118706044D01*
X142132325Y-118706045D01*
X142087526Y-118755800D01*
X142008960Y-118843056D01*
X141913473Y-119008444D01*
X141854458Y-119190072D01*
X141853768Y-119196633D01*
X141853768Y-119196635D01*
X141848235Y-119249279D01*
X141834496Y-119380000D01*
X132327751Y-119380000D01*
X132406527Y-119243556D01*
X132465542Y-119061928D01*
X132466538Y-119052457D01*
X132484814Y-118878565D01*
X132485504Y-118872000D01*
X132473291Y-118755800D01*
X132466232Y-118688635D01*
X132466232Y-118688633D01*
X132465542Y-118682072D01*
X132406527Y-118500444D01*
X132311040Y-118335056D01*
X132183253Y-118193134D01*
X132028752Y-118080882D01*
X132022724Y-118078198D01*
X132022722Y-118078197D01*
X131860319Y-118005891D01*
X131860318Y-118005891D01*
X131854288Y-118003206D01*
X131760888Y-117983353D01*
X131673944Y-117964872D01*
X131673939Y-117964872D01*
X131667487Y-117963500D01*
X131476513Y-117963500D01*
X131470061Y-117964872D01*
X131470056Y-117964872D01*
X131383112Y-117983353D01*
X131289712Y-118003206D01*
X131283682Y-118005891D01*
X131283681Y-118005891D01*
X131121278Y-118078197D01*
X131121276Y-118078198D01*
X131115248Y-118080882D01*
X130960747Y-118193134D01*
X130832960Y-118335056D01*
X130737473Y-118500444D01*
X130678458Y-118682072D01*
X130677768Y-118688633D01*
X130677768Y-118688635D01*
X130670709Y-118755800D01*
X130658496Y-118872000D01*
X101092000Y-118872000D01*
X101092000Y-117348000D01*
X122022496Y-117348000D01*
X122023186Y-117354565D01*
X122029844Y-117417908D01*
X122042458Y-117537928D01*
X122101473Y-117719556D01*
X122104776Y-117725278D01*
X122104777Y-117725279D01*
X122125069Y-117760425D01*
X122196960Y-117884944D01*
X122324747Y-118026866D01*
X122479248Y-118139118D01*
X122485276Y-118141802D01*
X122485278Y-118141803D01*
X122647681Y-118214109D01*
X122653712Y-118216794D01*
X122740009Y-118235137D01*
X122834056Y-118255128D01*
X122834061Y-118255128D01*
X122840513Y-118256500D01*
X123031487Y-118256500D01*
X123037939Y-118255128D01*
X123037944Y-118255128D01*
X123131991Y-118235137D01*
X123218288Y-118216794D01*
X123224319Y-118214109D01*
X123386722Y-118141803D01*
X123386724Y-118141802D01*
X123392752Y-118139118D01*
X123547253Y-118026866D01*
X123675040Y-117884944D01*
X123746931Y-117760425D01*
X123767223Y-117725279D01*
X123767224Y-117725278D01*
X123770527Y-117719556D01*
X123829542Y-117537928D01*
X123842157Y-117417908D01*
X123848814Y-117354565D01*
X123849504Y-117348000D01*
X123829542Y-117158072D01*
X123770527Y-116976444D01*
X123675040Y-116811056D01*
X123578503Y-116703840D01*
X123551675Y-116674045D01*
X123551674Y-116674044D01*
X123547253Y-116669134D01*
X123392752Y-116556882D01*
X123386724Y-116554198D01*
X123386722Y-116554197D01*
X123224319Y-116481891D01*
X123224318Y-116481891D01*
X123218288Y-116479206D01*
X123124887Y-116459353D01*
X123037944Y-116440872D01*
X123037939Y-116440872D01*
X123031487Y-116439500D01*
X122840513Y-116439500D01*
X122834061Y-116440872D01*
X122834056Y-116440872D01*
X122747113Y-116459353D01*
X122653712Y-116479206D01*
X122647682Y-116481891D01*
X122647681Y-116481891D01*
X122485278Y-116554197D01*
X122485276Y-116554198D01*
X122479248Y-116556882D01*
X122324747Y-116669134D01*
X122320326Y-116674044D01*
X122320325Y-116674045D01*
X122293498Y-116703840D01*
X122196960Y-116811056D01*
X122101473Y-116976444D01*
X122042458Y-117158072D01*
X122022496Y-117348000D01*
X101092000Y-117348000D01*
X101092000Y-112776000D01*
X153010496Y-112776000D01*
X153030458Y-112965928D01*
X153089473Y-113147556D01*
X153184960Y-113312944D01*
X153312747Y-113454866D01*
X153467248Y-113567118D01*
X153473276Y-113569802D01*
X153473278Y-113569803D01*
X153635681Y-113642109D01*
X153641712Y-113644794D01*
X153735112Y-113664647D01*
X153822056Y-113683128D01*
X153822061Y-113683128D01*
X153828513Y-113684500D01*
X154019487Y-113684500D01*
X154025939Y-113683128D01*
X154025944Y-113683128D01*
X154112887Y-113664647D01*
X154206288Y-113644794D01*
X154212319Y-113642109D01*
X154374722Y-113569803D01*
X154374724Y-113569802D01*
X154380752Y-113567118D01*
X154535253Y-113454866D01*
X154663040Y-113312944D01*
X154758527Y-113147556D01*
X154817542Y-112965928D01*
X154837504Y-112776000D01*
X154817542Y-112586072D01*
X154758527Y-112404444D01*
X154663040Y-112239056D01*
X154535253Y-112097134D01*
X154380752Y-111984882D01*
X154374724Y-111982198D01*
X154374722Y-111982197D01*
X154212319Y-111909891D01*
X154212318Y-111909891D01*
X154206288Y-111907206D01*
X154112887Y-111887353D01*
X154025944Y-111868872D01*
X154025939Y-111868872D01*
X154019487Y-111867500D01*
X153828513Y-111867500D01*
X153822061Y-111868872D01*
X153822056Y-111868872D01*
X153735113Y-111887353D01*
X153641712Y-111907206D01*
X153635682Y-111909891D01*
X153635681Y-111909891D01*
X153473278Y-111982197D01*
X153473276Y-111982198D01*
X153467248Y-111984882D01*
X153312747Y-112097134D01*
X153184960Y-112239056D01*
X153089473Y-112404444D01*
X153030458Y-112586072D01*
X153010496Y-112776000D01*
X101092000Y-112776000D01*
X101092000Y-110500000D01*
X120850502Y-110500000D01*
X120870457Y-110728087D01*
X120929716Y-110949243D01*
X120932039Y-110954224D01*
X120932039Y-110954225D01*
X121024151Y-111151762D01*
X121024154Y-111151767D01*
X121026477Y-111156749D01*
X121157802Y-111344300D01*
X121319700Y-111506198D01*
X121324208Y-111509355D01*
X121324211Y-111509357D01*
X121402389Y-111564098D01*
X121507251Y-111637523D01*
X121512233Y-111639846D01*
X121512238Y-111639849D01*
X121709775Y-111731961D01*
X121714757Y-111734284D01*
X121720065Y-111735706D01*
X121720067Y-111735707D01*
X121930598Y-111792119D01*
X121930600Y-111792119D01*
X121935913Y-111793543D01*
X122164000Y-111813498D01*
X122392087Y-111793543D01*
X122397400Y-111792119D01*
X122397402Y-111792119D01*
X122607933Y-111735707D01*
X122607935Y-111735706D01*
X122613243Y-111734284D01*
X122618225Y-111731961D01*
X122815762Y-111639849D01*
X122815767Y-111639846D01*
X122820749Y-111637523D01*
X122925611Y-111564098D01*
X123003789Y-111509357D01*
X123003792Y-111509355D01*
X123008300Y-111506198D01*
X123170198Y-111344300D01*
X123301523Y-111156749D01*
X123303846Y-111151767D01*
X123303849Y-111151762D01*
X123319805Y-111117543D01*
X123366722Y-111064258D01*
X123434999Y-111044797D01*
X123502959Y-111065339D01*
X123548195Y-111117543D01*
X123564151Y-111151762D01*
X123564154Y-111151767D01*
X123566477Y-111156749D01*
X123697802Y-111344300D01*
X123859700Y-111506198D01*
X123864208Y-111509355D01*
X123864211Y-111509357D01*
X123942389Y-111564098D01*
X124047251Y-111637523D01*
X124052233Y-111639846D01*
X124052238Y-111639849D01*
X124249775Y-111731961D01*
X124254757Y-111734284D01*
X124260065Y-111735706D01*
X124260067Y-111735707D01*
X124470598Y-111792119D01*
X124470600Y-111792119D01*
X124475913Y-111793543D01*
X124704000Y-111813498D01*
X124932087Y-111793543D01*
X124937400Y-111792119D01*
X124937402Y-111792119D01*
X125147933Y-111735707D01*
X125147935Y-111735706D01*
X125153243Y-111734284D01*
X125158225Y-111731961D01*
X125355762Y-111639849D01*
X125355767Y-111639846D01*
X125360749Y-111637523D01*
X125465611Y-111564098D01*
X125543789Y-111509357D01*
X125543792Y-111509355D01*
X125548300Y-111506198D01*
X125710198Y-111344300D01*
X125841523Y-111156749D01*
X125843846Y-111151767D01*
X125843849Y-111151762D01*
X125859805Y-111117543D01*
X125906722Y-111064258D01*
X125974999Y-111044797D01*
X126042959Y-111065339D01*
X126088195Y-111117543D01*
X126104151Y-111151762D01*
X126104154Y-111151767D01*
X126106477Y-111156749D01*
X126237802Y-111344300D01*
X126399700Y-111506198D01*
X126404208Y-111509355D01*
X126404211Y-111509357D01*
X126482389Y-111564098D01*
X126587251Y-111637523D01*
X126592233Y-111639846D01*
X126592238Y-111639849D01*
X126789775Y-111731961D01*
X126794757Y-111734284D01*
X126800065Y-111735706D01*
X126800067Y-111735707D01*
X127010598Y-111792119D01*
X127010600Y-111792119D01*
X127015913Y-111793543D01*
X127244000Y-111813498D01*
X127472087Y-111793543D01*
X127477400Y-111792119D01*
X127477402Y-111792119D01*
X127687933Y-111735707D01*
X127687935Y-111735706D01*
X127693243Y-111734284D01*
X127698225Y-111731961D01*
X127895762Y-111639849D01*
X127895767Y-111639846D01*
X127900749Y-111637523D01*
X128005611Y-111564098D01*
X128083789Y-111509357D01*
X128083792Y-111509355D01*
X128088300Y-111506198D01*
X128250198Y-111344300D01*
X128381523Y-111156749D01*
X128383846Y-111151767D01*
X128383849Y-111151762D01*
X128399805Y-111117543D01*
X128446722Y-111064258D01*
X128514999Y-111044797D01*
X128582959Y-111065339D01*
X128628195Y-111117543D01*
X128644151Y-111151762D01*
X128644154Y-111151767D01*
X128646477Y-111156749D01*
X128777802Y-111344300D01*
X128939700Y-111506198D01*
X128944208Y-111509355D01*
X128944211Y-111509357D01*
X129022389Y-111564098D01*
X129127251Y-111637523D01*
X129132233Y-111639846D01*
X129132238Y-111639849D01*
X129329775Y-111731961D01*
X129334757Y-111734284D01*
X129340065Y-111735706D01*
X129340067Y-111735707D01*
X129550598Y-111792119D01*
X129550600Y-111792119D01*
X129555913Y-111793543D01*
X129784000Y-111813498D01*
X130012087Y-111793543D01*
X130017400Y-111792119D01*
X130017402Y-111792119D01*
X130227933Y-111735707D01*
X130227935Y-111735706D01*
X130233243Y-111734284D01*
X130238225Y-111731961D01*
X130435762Y-111639849D01*
X130435767Y-111639846D01*
X130440749Y-111637523D01*
X130545611Y-111564098D01*
X130623789Y-111509357D01*
X130623792Y-111509355D01*
X130628300Y-111506198D01*
X130790198Y-111344300D01*
X130921523Y-111156749D01*
X130923846Y-111151767D01*
X130923849Y-111151762D01*
X131015961Y-110954225D01*
X131015961Y-110954224D01*
X131018284Y-110949243D01*
X131077543Y-110728087D01*
X131097498Y-110500000D01*
X131077543Y-110271913D01*
X131018284Y-110050757D01*
X130939805Y-109882457D01*
X130923849Y-109848238D01*
X130923846Y-109848233D01*
X130921523Y-109843251D01*
X130790198Y-109655700D01*
X130628300Y-109493802D01*
X130623792Y-109490645D01*
X130623789Y-109490643D01*
X130545611Y-109435902D01*
X130440749Y-109362477D01*
X130435767Y-109360154D01*
X130435762Y-109360151D01*
X130238225Y-109268039D01*
X130238224Y-109268039D01*
X130233243Y-109265716D01*
X130227935Y-109264294D01*
X130227933Y-109264293D01*
X130017402Y-109207881D01*
X130017400Y-109207881D01*
X130012087Y-109206457D01*
X129784000Y-109186502D01*
X129555913Y-109206457D01*
X129550600Y-109207881D01*
X129550598Y-109207881D01*
X129340067Y-109264293D01*
X129340065Y-109264294D01*
X129334757Y-109265716D01*
X129329776Y-109268039D01*
X129329775Y-109268039D01*
X129132238Y-109360151D01*
X129132233Y-109360154D01*
X129127251Y-109362477D01*
X129022389Y-109435902D01*
X128944211Y-109490643D01*
X128944208Y-109490645D01*
X128939700Y-109493802D01*
X128777802Y-109655700D01*
X128646477Y-109843251D01*
X128644154Y-109848233D01*
X128644151Y-109848238D01*
X128628195Y-109882457D01*
X128581278Y-109935742D01*
X128513001Y-109955203D01*
X128445041Y-109934661D01*
X128399805Y-109882457D01*
X128383849Y-109848238D01*
X128383846Y-109848233D01*
X128381523Y-109843251D01*
X128250198Y-109655700D01*
X128088300Y-109493802D01*
X128083792Y-109490645D01*
X128083789Y-109490643D01*
X128005611Y-109435902D01*
X127900749Y-109362477D01*
X127895767Y-109360154D01*
X127895762Y-109360151D01*
X127698225Y-109268039D01*
X127698224Y-109268039D01*
X127693243Y-109265716D01*
X127687935Y-109264294D01*
X127687933Y-109264293D01*
X127477402Y-109207881D01*
X127477400Y-109207881D01*
X127472087Y-109206457D01*
X127244000Y-109186502D01*
X127015913Y-109206457D01*
X127010600Y-109207881D01*
X127010598Y-109207881D01*
X126800067Y-109264293D01*
X126800065Y-109264294D01*
X126794757Y-109265716D01*
X126789776Y-109268039D01*
X126789775Y-109268039D01*
X126592238Y-109360151D01*
X126592233Y-109360154D01*
X126587251Y-109362477D01*
X126482389Y-109435902D01*
X126404211Y-109490643D01*
X126404208Y-109490645D01*
X126399700Y-109493802D01*
X126237802Y-109655700D01*
X126106477Y-109843251D01*
X126104154Y-109848233D01*
X126104151Y-109848238D01*
X126088195Y-109882457D01*
X126041278Y-109935742D01*
X125973001Y-109955203D01*
X125905041Y-109934661D01*
X125859805Y-109882457D01*
X125843849Y-109848238D01*
X125843846Y-109848233D01*
X125841523Y-109843251D01*
X125710198Y-109655700D01*
X125548300Y-109493802D01*
X125543792Y-109490645D01*
X125543789Y-109490643D01*
X125465611Y-109435902D01*
X125360749Y-109362477D01*
X125355767Y-109360154D01*
X125355762Y-109360151D01*
X125158225Y-109268039D01*
X125158224Y-109268039D01*
X125153243Y-109265716D01*
X125147935Y-109264294D01*
X125147933Y-109264293D01*
X124937402Y-109207881D01*
X124937400Y-109207881D01*
X124932087Y-109206457D01*
X124704000Y-109186502D01*
X124475913Y-109206457D01*
X124470600Y-109207881D01*
X124470598Y-109207881D01*
X124260067Y-109264293D01*
X124260065Y-109264294D01*
X124254757Y-109265716D01*
X124249776Y-109268039D01*
X124249775Y-109268039D01*
X124052238Y-109360151D01*
X124052233Y-109360154D01*
X124047251Y-109362477D01*
X123942389Y-109435902D01*
X123864211Y-109490643D01*
X123864208Y-109490645D01*
X123859700Y-109493802D01*
X123697802Y-109655700D01*
X123566477Y-109843251D01*
X123564154Y-109848233D01*
X123564151Y-109848238D01*
X123548195Y-109882457D01*
X123501278Y-109935742D01*
X123433001Y-109955203D01*
X123365041Y-109934661D01*
X123319805Y-109882457D01*
X123303849Y-109848238D01*
X123303846Y-109848233D01*
X123301523Y-109843251D01*
X123170198Y-109655700D01*
X123008300Y-109493802D01*
X123003792Y-109490645D01*
X123003789Y-109490643D01*
X122925611Y-109435902D01*
X122820749Y-109362477D01*
X122815767Y-109360154D01*
X122815762Y-109360151D01*
X122618225Y-109268039D01*
X122618224Y-109268039D01*
X122613243Y-109265716D01*
X122607935Y-109264294D01*
X122607933Y-109264293D01*
X122397402Y-109207881D01*
X122397400Y-109207881D01*
X122392087Y-109206457D01*
X122164000Y-109186502D01*
X121935913Y-109206457D01*
X121930600Y-109207881D01*
X121930598Y-109207881D01*
X121720067Y-109264293D01*
X121720065Y-109264294D01*
X121714757Y-109265716D01*
X121709776Y-109268039D01*
X121709775Y-109268039D01*
X121512238Y-109360151D01*
X121512233Y-109360154D01*
X121507251Y-109362477D01*
X121402389Y-109435902D01*
X121324211Y-109490643D01*
X121324208Y-109490645D01*
X121319700Y-109493802D01*
X121157802Y-109655700D01*
X121026477Y-109843251D01*
X121024154Y-109848233D01*
X121024151Y-109848238D01*
X121008195Y-109882457D01*
X120929716Y-110050757D01*
X120870457Y-110271913D01*
X120850502Y-110500000D01*
X101092000Y-110500000D01*
X101092000Y-108677313D01*
X111862496Y-108677313D01*
X111882458Y-108867241D01*
X111941473Y-109048869D01*
X112036960Y-109214257D01*
X112041378Y-109219164D01*
X112041379Y-109219165D01*
X112083294Y-109265716D01*
X112164747Y-109356179D01*
X112319248Y-109468431D01*
X112325276Y-109471115D01*
X112325278Y-109471116D01*
X112369137Y-109490643D01*
X112493712Y-109546107D01*
X112587113Y-109565960D01*
X112674056Y-109584441D01*
X112674061Y-109584441D01*
X112680513Y-109585813D01*
X112871487Y-109585813D01*
X112877939Y-109584441D01*
X112877944Y-109584441D01*
X112964888Y-109565960D01*
X113058288Y-109546107D01*
X113182863Y-109490643D01*
X113226722Y-109471116D01*
X113226724Y-109471115D01*
X113232752Y-109468431D01*
X113387253Y-109356179D01*
X113468706Y-109265716D01*
X113510621Y-109219165D01*
X113510622Y-109219164D01*
X113515040Y-109214257D01*
X113610527Y-109048869D01*
X113669542Y-108867241D01*
X113689504Y-108677313D01*
X113669542Y-108487385D01*
X113610527Y-108305757D01*
X113515040Y-108140369D01*
X113387253Y-107998447D01*
X113232752Y-107886195D01*
X113226724Y-107883511D01*
X113226722Y-107883510D01*
X113064319Y-107811204D01*
X113064318Y-107811204D01*
X113058288Y-107808519D01*
X112964887Y-107788666D01*
X112877944Y-107770185D01*
X112877939Y-107770185D01*
X112871487Y-107768813D01*
X112680513Y-107768813D01*
X112674061Y-107770185D01*
X112674056Y-107770185D01*
X112587113Y-107788666D01*
X112493712Y-107808519D01*
X112487682Y-107811204D01*
X112487681Y-107811204D01*
X112325278Y-107883510D01*
X112325276Y-107883511D01*
X112319248Y-107886195D01*
X112164747Y-107998447D01*
X112036960Y-108140369D01*
X111941473Y-108305757D01*
X111882458Y-108487385D01*
X111862496Y-108677313D01*
X101092000Y-108677313D01*
X101092000Y-105664000D01*
X113386496Y-105664000D01*
X113406458Y-105853928D01*
X113465473Y-106035556D01*
X113560960Y-106200944D01*
X113688747Y-106342866D01*
X113843248Y-106455118D01*
X113849276Y-106457802D01*
X113849278Y-106457803D01*
X114011681Y-106530109D01*
X114017712Y-106532794D01*
X114111113Y-106552647D01*
X114198056Y-106571128D01*
X114198061Y-106571128D01*
X114204513Y-106572500D01*
X114395487Y-106572500D01*
X114401939Y-106571128D01*
X114401944Y-106571128D01*
X114488888Y-106552647D01*
X114582288Y-106532794D01*
X114588319Y-106530109D01*
X114750722Y-106457803D01*
X114750724Y-106457802D01*
X114756752Y-106455118D01*
X114911253Y-106342866D01*
X115039040Y-106200944D01*
X115069387Y-106148381D01*
X154313160Y-106148381D01*
X154313237Y-106149470D01*
X154315698Y-106153206D01*
X154589632Y-106363404D01*
X154595262Y-106367259D01*
X154895591Y-106549862D01*
X154901593Y-106553080D01*
X155219897Y-106702184D01*
X155226202Y-106704732D01*
X155558743Y-106818587D01*
X155565313Y-106820446D01*
X155908183Y-106897714D01*
X155914912Y-106898853D01*
X156264143Y-106938643D01*
X156270933Y-106939046D01*
X156622419Y-106940886D01*
X156629220Y-106940554D01*
X156978853Y-106904423D01*
X156985581Y-106903357D01*
X157329274Y-106829676D01*
X157335822Y-106827897D01*
X157669549Y-106717527D01*
X157675891Y-106715041D01*
X157995718Y-106569288D01*
X158001777Y-106566121D01*
X158303995Y-106386676D01*
X158309659Y-106382884D01*
X158590732Y-106171849D01*
X158595958Y-106167464D01*
X158605613Y-106158428D01*
X158613682Y-106144750D01*
X158613654Y-106144024D01*
X158608512Y-106135723D01*
X156476810Y-104004020D01*
X156462869Y-103996408D01*
X156461034Y-103996539D01*
X156454420Y-104000790D01*
X154320774Y-106134437D01*
X154313160Y-106148381D01*
X115069387Y-106148381D01*
X115134527Y-106035556D01*
X115193542Y-105853928D01*
X115213504Y-105664000D01*
X115193542Y-105474072D01*
X115134527Y-105292444D01*
X115039040Y-105127056D01*
X114931763Y-105007912D01*
X114915675Y-104990045D01*
X114915674Y-104990044D01*
X114911253Y-104985134D01*
X114756752Y-104872882D01*
X114750724Y-104870198D01*
X114750722Y-104870197D01*
X114588319Y-104797891D01*
X114588318Y-104797891D01*
X114582288Y-104795206D01*
X114488888Y-104775353D01*
X114401944Y-104756872D01*
X114401939Y-104756872D01*
X114395487Y-104755500D01*
X114204513Y-104755500D01*
X114198061Y-104756872D01*
X114198056Y-104756872D01*
X114111113Y-104775353D01*
X114017712Y-104795206D01*
X114011682Y-104797891D01*
X114011681Y-104797891D01*
X113849278Y-104870197D01*
X113849276Y-104870198D01*
X113843248Y-104872882D01*
X113688747Y-104985134D01*
X113684326Y-104990044D01*
X113684325Y-104990045D01*
X113668238Y-105007912D01*
X113560960Y-105127056D01*
X113465473Y-105292444D01*
X113406458Y-105474072D01*
X113386496Y-105664000D01*
X101092000Y-105664000D01*
X101092000Y-102108000D01*
X102718496Y-102108000D01*
X102738458Y-102297928D01*
X102797473Y-102479556D01*
X102892960Y-102644944D01*
X103020747Y-102786866D01*
X103175248Y-102899118D01*
X103181276Y-102901802D01*
X103181278Y-102901803D01*
X103343681Y-102974109D01*
X103349712Y-102976794D01*
X103443113Y-102996647D01*
X103530056Y-103015128D01*
X103530061Y-103015128D01*
X103536513Y-103016500D01*
X103727487Y-103016500D01*
X103733939Y-103015128D01*
X103733944Y-103015128D01*
X103820888Y-102996647D01*
X103914288Y-102976794D01*
X103920319Y-102974109D01*
X104082722Y-102901803D01*
X104082724Y-102901802D01*
X104088752Y-102899118D01*
X104115066Y-102880000D01*
X120850502Y-102880000D01*
X120870457Y-103108087D01*
X120871881Y-103113400D01*
X120871881Y-103113402D01*
X120913197Y-103267592D01*
X120929716Y-103329243D01*
X120932039Y-103334224D01*
X120932039Y-103334225D01*
X121024151Y-103531762D01*
X121024154Y-103531767D01*
X121026477Y-103536749D01*
X121157802Y-103724300D01*
X121319700Y-103886198D01*
X121324208Y-103889355D01*
X121324211Y-103889357D01*
X121365542Y-103918297D01*
X121507251Y-104017523D01*
X121512233Y-104019846D01*
X121512238Y-104019849D01*
X121709775Y-104111961D01*
X121714757Y-104114284D01*
X121720065Y-104115706D01*
X121720067Y-104115707D01*
X121930598Y-104172119D01*
X121930600Y-104172119D01*
X121935913Y-104173543D01*
X122164000Y-104193498D01*
X122392087Y-104173543D01*
X122397400Y-104172119D01*
X122397402Y-104172119D01*
X122607933Y-104115707D01*
X122607935Y-104115706D01*
X122613243Y-104114284D01*
X122618225Y-104111961D01*
X122815762Y-104019849D01*
X122815767Y-104019846D01*
X122820749Y-104017523D01*
X122962458Y-103918297D01*
X123003789Y-103889357D01*
X123003792Y-103889355D01*
X123008300Y-103886198D01*
X123170198Y-103724300D01*
X123301523Y-103536749D01*
X123303846Y-103531767D01*
X123303849Y-103531762D01*
X123319805Y-103497543D01*
X123366722Y-103444258D01*
X123434999Y-103424797D01*
X123502959Y-103445339D01*
X123548195Y-103497543D01*
X123564151Y-103531762D01*
X123564154Y-103531767D01*
X123566477Y-103536749D01*
X123697802Y-103724300D01*
X123859700Y-103886198D01*
X123864208Y-103889355D01*
X123864211Y-103889357D01*
X123905542Y-103918297D01*
X124047251Y-104017523D01*
X124052233Y-104019846D01*
X124052238Y-104019849D01*
X124249775Y-104111961D01*
X124254757Y-104114284D01*
X124260065Y-104115706D01*
X124260067Y-104115707D01*
X124470598Y-104172119D01*
X124470600Y-104172119D01*
X124475913Y-104173543D01*
X124704000Y-104193498D01*
X124932087Y-104173543D01*
X124937400Y-104172119D01*
X124937402Y-104172119D01*
X125147933Y-104115707D01*
X125147935Y-104115706D01*
X125153243Y-104114284D01*
X125158225Y-104111961D01*
X125355762Y-104019849D01*
X125355767Y-104019846D01*
X125360749Y-104017523D01*
X125502458Y-103918297D01*
X125543789Y-103889357D01*
X125543792Y-103889355D01*
X125548300Y-103886198D01*
X125710198Y-103724300D01*
X125841523Y-103536749D01*
X125843846Y-103531767D01*
X125843849Y-103531762D01*
X125859805Y-103497543D01*
X125906722Y-103444258D01*
X125974999Y-103424797D01*
X126042959Y-103445339D01*
X126088195Y-103497543D01*
X126104151Y-103531762D01*
X126104154Y-103531767D01*
X126106477Y-103536749D01*
X126237802Y-103724300D01*
X126399700Y-103886198D01*
X126404208Y-103889355D01*
X126404211Y-103889357D01*
X126445542Y-103918297D01*
X126587251Y-104017523D01*
X126592233Y-104019846D01*
X126592238Y-104019849D01*
X126789775Y-104111961D01*
X126794757Y-104114284D01*
X126800065Y-104115706D01*
X126800067Y-104115707D01*
X127010598Y-104172119D01*
X127010600Y-104172119D01*
X127015913Y-104173543D01*
X127244000Y-104193498D01*
X127472087Y-104173543D01*
X127477400Y-104172119D01*
X127477402Y-104172119D01*
X127687933Y-104115707D01*
X127687935Y-104115706D01*
X127693243Y-104114284D01*
X127698225Y-104111961D01*
X127895762Y-104019849D01*
X127895767Y-104019846D01*
X127900749Y-104017523D01*
X128042458Y-103918297D01*
X128083789Y-103889357D01*
X128083792Y-103889355D01*
X128088300Y-103886198D01*
X128250198Y-103724300D01*
X128253357Y-103719789D01*
X128256892Y-103715576D01*
X128258026Y-103716527D01*
X128308071Y-103676529D01*
X128378690Y-103669224D01*
X128442049Y-103701258D01*
X128478030Y-103762462D01*
X128481082Y-103779517D01*
X128482255Y-103790316D01*
X128533385Y-103926705D01*
X128620739Y-104043261D01*
X128737295Y-104130615D01*
X128873684Y-104181745D01*
X128935866Y-104188500D01*
X130632134Y-104188500D01*
X130694316Y-104181745D01*
X130830705Y-104130615D01*
X130947261Y-104043261D01*
X131034615Y-103926705D01*
X131085745Y-103790316D01*
X131092500Y-103728134D01*
X131092500Y-103623832D01*
X153151333Y-103623832D01*
X153169117Y-103974893D01*
X153169827Y-103981649D01*
X153225420Y-104328723D01*
X153226859Y-104335378D01*
X153319608Y-104674410D01*
X153321757Y-104680871D01*
X153450581Y-105007912D01*
X153453412Y-105014095D01*
X153616803Y-105325310D01*
X153620286Y-105331152D01*
X153816330Y-105622896D01*
X153820433Y-105628340D01*
X153940425Y-105770836D01*
X153953164Y-105779279D01*
X153963608Y-105773181D01*
X156091980Y-103644810D01*
X156099592Y-103630869D01*
X156099461Y-103629034D01*
X156095210Y-103622420D01*
X153964992Y-101492203D01*
X153951455Y-101484811D01*
X153941753Y-101491599D01*
X153834430Y-101617257D01*
X153830296Y-101622664D01*
X153632215Y-101913041D01*
X153628697Y-101918851D01*
X153463134Y-102228922D01*
X153460259Y-102235087D01*
X153329155Y-102561218D01*
X153326962Y-102567658D01*
X153231846Y-102906044D01*
X153230363Y-102912679D01*
X153172350Y-103259354D01*
X153171591Y-103266126D01*
X153151357Y-103617037D01*
X153151333Y-103623832D01*
X131092500Y-103623832D01*
X131092500Y-102031866D01*
X131085745Y-101969684D01*
X131034615Y-101833295D01*
X130947261Y-101716739D01*
X130830705Y-101629385D01*
X130694316Y-101578255D01*
X130632134Y-101571500D01*
X128935866Y-101571500D01*
X128873684Y-101578255D01*
X128737295Y-101629385D01*
X128620739Y-101716739D01*
X128533385Y-101833295D01*
X128482255Y-101969684D01*
X128481083Y-101980474D01*
X128480197Y-101982606D01*
X128479575Y-101985222D01*
X128479152Y-101985121D01*
X128453845Y-102046035D01*
X128395483Y-102086463D01*
X128324529Y-102088922D01*
X128263510Y-102052629D01*
X128256511Y-102043969D01*
X128253354Y-102040207D01*
X128250198Y-102035700D01*
X128088300Y-101873802D01*
X128083792Y-101870645D01*
X128083789Y-101870643D01*
X127972990Y-101793061D01*
X127900749Y-101742477D01*
X127895767Y-101740154D01*
X127895762Y-101740151D01*
X127698225Y-101648039D01*
X127698224Y-101648039D01*
X127693243Y-101645716D01*
X127687935Y-101644294D01*
X127687933Y-101644293D01*
X127477402Y-101587881D01*
X127477400Y-101587881D01*
X127472087Y-101586457D01*
X127244000Y-101566502D01*
X127015913Y-101586457D01*
X127010600Y-101587881D01*
X127010598Y-101587881D01*
X126800067Y-101644293D01*
X126800065Y-101644294D01*
X126794757Y-101645716D01*
X126789776Y-101648039D01*
X126789775Y-101648039D01*
X126592238Y-101740151D01*
X126592233Y-101740154D01*
X126587251Y-101742477D01*
X126515010Y-101793061D01*
X126404211Y-101870643D01*
X126404208Y-101870645D01*
X126399700Y-101873802D01*
X126237802Y-102035700D01*
X126106477Y-102223251D01*
X126104154Y-102228233D01*
X126104151Y-102228238D01*
X126088195Y-102262457D01*
X126041278Y-102315742D01*
X125973001Y-102335203D01*
X125905041Y-102314661D01*
X125859805Y-102262457D01*
X125843849Y-102228238D01*
X125843846Y-102228233D01*
X125841523Y-102223251D01*
X125710198Y-102035700D01*
X125548300Y-101873802D01*
X125543792Y-101870645D01*
X125543789Y-101870643D01*
X125432990Y-101793061D01*
X125360749Y-101742477D01*
X125355767Y-101740154D01*
X125355762Y-101740151D01*
X125158225Y-101648039D01*
X125158224Y-101648039D01*
X125153243Y-101645716D01*
X125147935Y-101644294D01*
X125147933Y-101644293D01*
X124937402Y-101587881D01*
X124937400Y-101587881D01*
X124932087Y-101586457D01*
X124704000Y-101566502D01*
X124475913Y-101586457D01*
X124470600Y-101587881D01*
X124470598Y-101587881D01*
X124260067Y-101644293D01*
X124260065Y-101644294D01*
X124254757Y-101645716D01*
X124249776Y-101648039D01*
X124249775Y-101648039D01*
X124052238Y-101740151D01*
X124052233Y-101740154D01*
X124047251Y-101742477D01*
X123975010Y-101793061D01*
X123864211Y-101870643D01*
X123864208Y-101870645D01*
X123859700Y-101873802D01*
X123697802Y-102035700D01*
X123566477Y-102223251D01*
X123564154Y-102228233D01*
X123564151Y-102228238D01*
X123548195Y-102262457D01*
X123501278Y-102315742D01*
X123433001Y-102335203D01*
X123365041Y-102314661D01*
X123319805Y-102262457D01*
X123303849Y-102228238D01*
X123303846Y-102228233D01*
X123301523Y-102223251D01*
X123170198Y-102035700D01*
X123008300Y-101873802D01*
X123003792Y-101870645D01*
X123003789Y-101870643D01*
X122892990Y-101793061D01*
X122820749Y-101742477D01*
X122815767Y-101740154D01*
X122815762Y-101740151D01*
X122618225Y-101648039D01*
X122618224Y-101648039D01*
X122613243Y-101645716D01*
X122607935Y-101644294D01*
X122607933Y-101644293D01*
X122397402Y-101587881D01*
X122397400Y-101587881D01*
X122392087Y-101586457D01*
X122164000Y-101566502D01*
X121935913Y-101586457D01*
X121930600Y-101587881D01*
X121930598Y-101587881D01*
X121720067Y-101644293D01*
X121720065Y-101644294D01*
X121714757Y-101645716D01*
X121709776Y-101648039D01*
X121709775Y-101648039D01*
X121512238Y-101740151D01*
X121512233Y-101740154D01*
X121507251Y-101742477D01*
X121435010Y-101793061D01*
X121324211Y-101870643D01*
X121324208Y-101870645D01*
X121319700Y-101873802D01*
X121157802Y-102035700D01*
X121026477Y-102223251D01*
X121024154Y-102228233D01*
X121024151Y-102228238D01*
X120988727Y-102304206D01*
X120929716Y-102430757D01*
X120870457Y-102651913D01*
X120850502Y-102880000D01*
X104115066Y-102880000D01*
X104243253Y-102786866D01*
X104371040Y-102644944D01*
X104466527Y-102479556D01*
X104525542Y-102297928D01*
X104545504Y-102108000D01*
X104537502Y-102031866D01*
X104526232Y-101924635D01*
X104526232Y-101924633D01*
X104525542Y-101918072D01*
X104466527Y-101736444D01*
X104371040Y-101571056D01*
X104243253Y-101429134D01*
X104088752Y-101316882D01*
X104082724Y-101314198D01*
X104082722Y-101314197D01*
X103920319Y-101241891D01*
X103920318Y-101241891D01*
X103914288Y-101239206D01*
X103820888Y-101219353D01*
X103733944Y-101200872D01*
X103733939Y-101200872D01*
X103727487Y-101199500D01*
X103536513Y-101199500D01*
X103530061Y-101200872D01*
X103530056Y-101200872D01*
X103443113Y-101219353D01*
X103349712Y-101239206D01*
X103343682Y-101241891D01*
X103343681Y-101241891D01*
X103181278Y-101314197D01*
X103181276Y-101314198D01*
X103175248Y-101316882D01*
X103020747Y-101429134D01*
X102892960Y-101571056D01*
X102797473Y-101736444D01*
X102738458Y-101918072D01*
X102737768Y-101924633D01*
X102737768Y-101924635D01*
X102726498Y-102031866D01*
X102718496Y-102108000D01*
X101092000Y-102108000D01*
X101092000Y-100710000D01*
X101112002Y-100641879D01*
X101165658Y-100595386D01*
X101218000Y-100584000D01*
X154659383Y-100584000D01*
X154727504Y-100604002D01*
G37*
%TD.AperFunction*%
%TD*%
M02*
