%TF.GenerationSoftware,KiCad,Pcbnew,(6.0.1)*%
%TF.CreationDate,2022-03-15T19:28:32-04:00*%
%TF.ProjectId,WiFi-Board,57694669-2d42-46f6-9172-642e6b696361,rev?*%
%TF.SameCoordinates,Original*%
%TF.FileFunction,Soldermask,Bot*%
%TF.FilePolarity,Negative*%
%FSLAX46Y46*%
G04 Gerber Fmt 4.6, Leading zero omitted, Abs format (unit mm)*
G04 Created by KiCad (PCBNEW (6.0.1)) date 2022-03-15 19:28:32*
%MOMM*%
%LPD*%
G01*
G04 APERTURE LIST*
G04 Aperture macros list*
%AMRoundRect*
0 Rectangle with rounded corners*
0 $1 Rounding radius*
0 $2 $3 $4 $5 $6 $7 $8 $9 X,Y pos of 4 corners*
0 Add a 4 corners polygon primitive as box body*
4,1,4,$2,$3,$4,$5,$6,$7,$8,$9,$2,$3,0*
0 Add four circle primitives for the rounded corners*
1,1,$1+$1,$2,$3*
1,1,$1+$1,$4,$5*
1,1,$1+$1,$6,$7*
1,1,$1+$1,$8,$9*
0 Add four rect primitives between the rounded corners*
20,1,$1+$1,$2,$3,$4,$5,0*
20,1,$1+$1,$4,$5,$6,$7,0*
20,1,$1+$1,$6,$7,$8,$9,0*
20,1,$1+$1,$8,$9,$2,$3,0*%
G04 Aperture macros list end*
%ADD10R,1.700000X1.700000*%
%ADD11O,1.700000X1.700000*%
%ADD12C,5.600000*%
%ADD13R,1.600000X1.600000*%
%ADD14O,1.600000X1.600000*%
%ADD15RoundRect,0.150000X0.875000X0.150000X-0.875000X0.150000X-0.875000X-0.150000X0.875000X-0.150000X0*%
%ADD16RoundRect,0.250000X0.475000X-0.250000X0.475000X0.250000X-0.475000X0.250000X-0.475000X-0.250000X0*%
%ADD17RoundRect,0.250000X-0.475000X0.250000X-0.475000X-0.250000X0.475000X-0.250000X0.475000X0.250000X0*%
G04 APERTURE END LIST*
D10*
%TO.C,J1*%
X130033000Y-124709000D03*
D11*
X130033000Y-127249000D03*
X127493000Y-124709000D03*
X127493000Y-127249000D03*
X124953000Y-124709000D03*
X124953000Y-127249000D03*
%TD*%
D12*
%TO.C,REF\u002A\u002A*%
X104140000Y-125984000D03*
%TD*%
%TO.C,REF\u002A\u002A*%
X156464000Y-103632000D03*
%TD*%
D13*
%TO.C,SW1*%
X129784000Y-102880000D03*
D14*
X127244000Y-102880000D03*
X124704000Y-102880000D03*
X122164000Y-102880000D03*
X122164000Y-110500000D03*
X124704000Y-110500000D03*
X127244000Y-110500000D03*
X129784000Y-110500000D03*
%TD*%
D10*
%TO.C,J2*%
X157480000Y-114808000D03*
D11*
X157480000Y-117348000D03*
X157480000Y-119888000D03*
X157480000Y-122428000D03*
X157480000Y-124968000D03*
X157480000Y-127508000D03*
%TD*%
D15*
%TO.C,U2*%
X146890000Y-109093000D03*
X146890000Y-110363000D03*
X146890000Y-111633000D03*
X146890000Y-112903000D03*
X146890000Y-114173000D03*
X146890000Y-115443000D03*
X146890000Y-116713000D03*
X146890000Y-117983000D03*
X146890000Y-119253000D03*
X146890000Y-120523000D03*
X146890000Y-121793000D03*
X146890000Y-123063000D03*
X146890000Y-124333000D03*
X146890000Y-125603000D03*
X137590000Y-125603000D03*
X137590000Y-124333000D03*
X137590000Y-123063000D03*
X137590000Y-121793000D03*
X137590000Y-120523000D03*
X137590000Y-119253000D03*
X137590000Y-117983000D03*
X137590000Y-116713000D03*
X137590000Y-115443000D03*
X137590000Y-114173000D03*
X137590000Y-112903000D03*
X137590000Y-111633000D03*
X137590000Y-110363000D03*
X137590000Y-109093000D03*
%TD*%
D16*
%TO.C,C6*%
X134112000Y-119314000D03*
X134112000Y-117414000D03*
%TD*%
D17*
%TO.C,C7*%
X149352000Y-126558000D03*
X149352000Y-128458000D03*
%TD*%
M02*
