%TF.GenerationSoftware,KiCad,Pcbnew,(6.0.1)*%
%TF.CreationDate,2022-03-15T19:28:32-04:00*%
%TF.ProjectId,WiFi-Board,57694669-2d42-46f6-9172-642e6b696361,rev?*%
%TF.SameCoordinates,Original*%
%TF.FileFunction,Legend,Top*%
%TF.FilePolarity,Positive*%
%FSLAX46Y46*%
G04 Gerber Fmt 4.6, Leading zero omitted, Abs format (unit mm)*
G04 Created by KiCad (PCBNEW (6.0.1)) date 2022-03-15 19:28:32*
%MOMM*%
%LPD*%
G01*
G04 APERTURE LIST*
%ADD10C,0.150000*%
%ADD11C,0.120000*%
G04 APERTURE END LIST*
D10*
X132002000Y-128367214D02*
X131954380Y-128462452D01*
X131954380Y-128605309D01*
X132002000Y-128748166D01*
X132097238Y-128843404D01*
X132192476Y-128891023D01*
X132382952Y-128938642D01*
X132525809Y-128938642D01*
X132716285Y-128891023D01*
X132811523Y-128843404D01*
X132906761Y-128748166D01*
X132954380Y-128605309D01*
X132954380Y-128510071D01*
X132906761Y-128367214D01*
X132859142Y-128319595D01*
X132525809Y-128319595D01*
X132525809Y-128510071D01*
X132954380Y-127891023D02*
X131954380Y-127891023D01*
X132954380Y-127319595D01*
X131954380Y-127319595D01*
X132954380Y-126843404D02*
X131954380Y-126843404D01*
X131954380Y-126605309D01*
X132002000Y-126462452D01*
X132097238Y-126367214D01*
X132192476Y-126319595D01*
X132382952Y-126271976D01*
X132525809Y-126271976D01*
X132716285Y-126319595D01*
X132811523Y-126367214D01*
X132906761Y-126462452D01*
X132954380Y-126605309D01*
X132954380Y-126843404D01*
X133564380Y-126891023D02*
X134564380Y-126224357D01*
X133564380Y-126224357D02*
X134564380Y-126891023D01*
X135174380Y-128557690D02*
X136174380Y-128224357D01*
X135174380Y-127891023D01*
X136126761Y-127129119D02*
X136174380Y-127224357D01*
X136174380Y-127414833D01*
X136126761Y-127510071D01*
X136079142Y-127557690D01*
X135983904Y-127605309D01*
X135698190Y-127605309D01*
X135602952Y-127557690D01*
X135555333Y-127510071D01*
X135507714Y-127414833D01*
X135507714Y-127224357D01*
X135555333Y-127129119D01*
X136126761Y-126271976D02*
X136174380Y-126367214D01*
X136174380Y-126557690D01*
X136126761Y-126652928D01*
X136079142Y-126700547D01*
X135983904Y-126748166D01*
X135698190Y-126748166D01*
X135602952Y-126700547D01*
X135555333Y-126652928D01*
X135507714Y-126557690D01*
X135507714Y-126367214D01*
X135555333Y-126271976D01*
X131954380Y-125743642D02*
X132954380Y-125076976D01*
X131954380Y-125076976D02*
X132954380Y-125743642D01*
X133564380Y-125743642D02*
X134564380Y-125076976D01*
X133564380Y-125076976D02*
X134564380Y-125743642D01*
X135174380Y-125648404D02*
X135983904Y-125648404D01*
X136079142Y-125600785D01*
X136126761Y-125553166D01*
X136174380Y-125457928D01*
X136174380Y-125267452D01*
X136126761Y-125172214D01*
X136079142Y-125124595D01*
X135983904Y-125076976D01*
X135174380Y-125076976D01*
X136174380Y-124600785D02*
X135174380Y-124600785D01*
X135174380Y-124219833D01*
X135222000Y-124124595D01*
X135269619Y-124076976D01*
X135364857Y-124029357D01*
X135507714Y-124029357D01*
X135602952Y-124076976D01*
X135650571Y-124124595D01*
X135698190Y-124219833D01*
X135698190Y-124600785D01*
X136174380Y-123600785D02*
X135174380Y-123600785D01*
X135174380Y-123362690D01*
X135222000Y-123219833D01*
X135317238Y-123124595D01*
X135412476Y-123076976D01*
X135602952Y-123029357D01*
X135745809Y-123029357D01*
X135936285Y-123076976D01*
X136031523Y-123124595D01*
X136126761Y-123219833D01*
X136174380Y-123362690D01*
X136174380Y-123600785D01*
X136174380Y-122600785D02*
X135174380Y-122600785D01*
%TO.C,J1*%
X121880380Y-126312333D02*
X122594666Y-126312333D01*
X122737523Y-126359952D01*
X122832761Y-126455190D01*
X122880380Y-126598047D01*
X122880380Y-126693285D01*
X122880380Y-125312333D02*
X122880380Y-125883761D01*
X122880380Y-125598047D02*
X121880380Y-125598047D01*
X122023238Y-125693285D01*
X122118476Y-125788523D01*
X122166095Y-125883761D01*
%TO.C,R1*%
X123896380Y-118915102D02*
X123420190Y-119248436D01*
X123896380Y-119486531D02*
X122896380Y-119486531D01*
X122896380Y-119105578D01*
X122944000Y-119010340D01*
X122991619Y-118962721D01*
X123086857Y-118915102D01*
X123229714Y-118915102D01*
X123324952Y-118962721D01*
X123372571Y-119010340D01*
X123420190Y-119105578D01*
X123420190Y-119486531D01*
X123896380Y-117962721D02*
X123896380Y-118534150D01*
X123896380Y-118248436D02*
X122896380Y-118248436D01*
X123039238Y-118343674D01*
X123134476Y-118438912D01*
X123182095Y-118534150D01*
%TO.C,C3*%
X112781142Y-124184666D02*
X112828761Y-124232285D01*
X112876380Y-124375142D01*
X112876380Y-124470380D01*
X112828761Y-124613238D01*
X112733523Y-124708476D01*
X112638285Y-124756095D01*
X112447809Y-124803714D01*
X112304952Y-124803714D01*
X112114476Y-124756095D01*
X112019238Y-124708476D01*
X111924000Y-124613238D01*
X111876380Y-124470380D01*
X111876380Y-124375142D01*
X111924000Y-124232285D01*
X111971619Y-124184666D01*
X111876380Y-123851333D02*
X111876380Y-123232285D01*
X112257333Y-123565619D01*
X112257333Y-123422761D01*
X112304952Y-123327523D01*
X112352571Y-123279904D01*
X112447809Y-123232285D01*
X112685904Y-123232285D01*
X112781142Y-123279904D01*
X112828761Y-123327523D01*
X112876380Y-123422761D01*
X112876380Y-123708476D01*
X112828761Y-123803714D01*
X112781142Y-123851333D01*
%TO.C,C1*%
X119893142Y-124184666D02*
X119940761Y-124232285D01*
X119988380Y-124375142D01*
X119988380Y-124470380D01*
X119940761Y-124613238D01*
X119845523Y-124708476D01*
X119750285Y-124756095D01*
X119559809Y-124803714D01*
X119416952Y-124803714D01*
X119226476Y-124756095D01*
X119131238Y-124708476D01*
X119036000Y-124613238D01*
X118988380Y-124470380D01*
X118988380Y-124375142D01*
X119036000Y-124232285D01*
X119083619Y-124184666D01*
X119988380Y-123232285D02*
X119988380Y-123803714D01*
X119988380Y-123518000D02*
X118988380Y-123518000D01*
X119131238Y-123613238D01*
X119226476Y-123708476D01*
X119274095Y-123803714D01*
%TO.C,U1*%
X118908243Y-119593642D02*
X119717767Y-119593642D01*
X119813005Y-119546023D01*
X119860624Y-119498404D01*
X119908243Y-119403166D01*
X119908243Y-119212690D01*
X119860624Y-119117452D01*
X119813005Y-119069833D01*
X119717767Y-119022214D01*
X118908243Y-119022214D01*
X119908243Y-118022214D02*
X119908243Y-118593642D01*
X119908243Y-118307928D02*
X118908243Y-118307928D01*
X119051101Y-118403166D01*
X119146339Y-118498404D01*
X119193958Y-118593642D01*
%TO.C,R2*%
X123896380Y-115586166D02*
X123420190Y-115919500D01*
X123896380Y-116157595D02*
X122896380Y-116157595D01*
X122896380Y-115776642D01*
X122944000Y-115681404D01*
X122991619Y-115633785D01*
X123086857Y-115586166D01*
X123229714Y-115586166D01*
X123324952Y-115633785D01*
X123372571Y-115681404D01*
X123420190Y-115776642D01*
X123420190Y-116157595D01*
X122991619Y-115205214D02*
X122944000Y-115157595D01*
X122896380Y-115062357D01*
X122896380Y-114824261D01*
X122944000Y-114729023D01*
X122991619Y-114681404D01*
X123086857Y-114633785D01*
X123182095Y-114633785D01*
X123324952Y-114681404D01*
X123896380Y-115252833D01*
X123896380Y-114633785D01*
%TO.C,R4*%
X125294380Y-115379166D02*
X124818190Y-115712500D01*
X125294380Y-115950595D02*
X124294380Y-115950595D01*
X124294380Y-115569642D01*
X124342000Y-115474404D01*
X124389619Y-115426785D01*
X124484857Y-115379166D01*
X124627714Y-115379166D01*
X124722952Y-115426785D01*
X124770571Y-115474404D01*
X124818190Y-115569642D01*
X124818190Y-115950595D01*
X124627714Y-114522023D02*
X125294380Y-114522023D01*
X124246761Y-114760119D02*
X124961047Y-114998214D01*
X124961047Y-114379166D01*
%TO.C,SW1*%
X132518761Y-108023333D02*
X132566380Y-107880476D01*
X132566380Y-107642380D01*
X132518761Y-107547142D01*
X132471142Y-107499523D01*
X132375904Y-107451904D01*
X132280666Y-107451904D01*
X132185428Y-107499523D01*
X132137809Y-107547142D01*
X132090190Y-107642380D01*
X132042571Y-107832857D01*
X131994952Y-107928095D01*
X131947333Y-107975714D01*
X131852095Y-108023333D01*
X131756857Y-108023333D01*
X131661619Y-107975714D01*
X131614000Y-107928095D01*
X131566380Y-107832857D01*
X131566380Y-107594761D01*
X131614000Y-107451904D01*
X131566380Y-107118571D02*
X132566380Y-106880476D01*
X131852095Y-106690000D01*
X132566380Y-106499523D01*
X131566380Y-106261428D01*
X132566380Y-105356666D02*
X132566380Y-105928095D01*
X132566380Y-105642380D02*
X131566380Y-105642380D01*
X131709238Y-105737619D01*
X131804476Y-105832857D01*
X131852095Y-105928095D01*
%TO.C,C4*%
X102515333Y-106177142D02*
X102467714Y-106224761D01*
X102324857Y-106272380D01*
X102229619Y-106272380D01*
X102086761Y-106224761D01*
X101991523Y-106129523D01*
X101943904Y-106034285D01*
X101896285Y-105843809D01*
X101896285Y-105700952D01*
X101943904Y-105510476D01*
X101991523Y-105415238D01*
X102086761Y-105320000D01*
X102229619Y-105272380D01*
X102324857Y-105272380D01*
X102467714Y-105320000D01*
X102515333Y-105367619D01*
X103372476Y-105605714D02*
X103372476Y-106272380D01*
X103134380Y-105224761D02*
X102896285Y-105939047D01*
X103515333Y-105939047D01*
%TO.C,C2*%
X116337142Y-124184666D02*
X116384761Y-124232285D01*
X116432380Y-124375142D01*
X116432380Y-124470380D01*
X116384761Y-124613238D01*
X116289523Y-124708476D01*
X116194285Y-124756095D01*
X116003809Y-124803714D01*
X115860952Y-124803714D01*
X115670476Y-124756095D01*
X115575238Y-124708476D01*
X115480000Y-124613238D01*
X115432380Y-124470380D01*
X115432380Y-124375142D01*
X115480000Y-124232285D01*
X115527619Y-124184666D01*
X115527619Y-123803714D02*
X115480000Y-123756095D01*
X115432380Y-123660857D01*
X115432380Y-123422761D01*
X115480000Y-123327523D01*
X115527619Y-123279904D01*
X115622857Y-123232285D01*
X115718095Y-123232285D01*
X115860952Y-123279904D01*
X116432380Y-123851333D01*
X116432380Y-123232285D01*
D11*
%TO.C,J1*%
X131363000Y-128579000D02*
X123623000Y-128579000D01*
X131363000Y-123379000D02*
X131363000Y-124709000D01*
X131363000Y-125979000D02*
X131363000Y-128579000D01*
X128763000Y-123379000D02*
X123623000Y-123379000D01*
X128763000Y-125979000D02*
X131363000Y-125979000D01*
X128763000Y-123379000D02*
X128763000Y-125979000D01*
X123623000Y-123379000D02*
X123623000Y-128579000D01*
X130033000Y-123379000D02*
X131363000Y-123379000D01*
%TO.C,R1*%
X122147000Y-119202564D02*
X122147000Y-118748436D01*
X120677000Y-119202564D02*
X120677000Y-118748436D01*
%TO.C,C3*%
X111479000Y-123756748D02*
X111479000Y-124279252D01*
X110009000Y-123756748D02*
X110009000Y-124279252D01*
%TO.C,C1*%
X117121000Y-123756748D02*
X117121000Y-124279252D01*
X118591000Y-123756748D02*
X118591000Y-124279252D01*
%TO.C,U1*%
X118412138Y-108230770D02*
X118412138Y-106630770D01*
X118390813Y-120908581D02*
X118390813Y-119308581D01*
X98304670Y-120903780D02*
X98304670Y-121593780D01*
X117895813Y-120908581D02*
X118390813Y-120908581D01*
X96699670Y-119303780D02*
X96699670Y-120903780D01*
X96704539Y-106626951D02*
X98304539Y-106626951D01*
X96699539Y-106626951D02*
X96699539Y-108226951D01*
X96699670Y-120903780D02*
X98304670Y-120903780D01*
X118407138Y-106630770D02*
X117907138Y-106630770D01*
%TO.C,R2*%
X120677000Y-115192436D02*
X120677000Y-115646564D01*
X122147000Y-115192436D02*
X122147000Y-115646564D01*
%TO.C,R4*%
X125757000Y-115439564D02*
X125757000Y-114985436D01*
X127227000Y-115439564D02*
X127227000Y-114985436D01*
%TO.C,SW1*%
X131114000Y-105690000D02*
X131114000Y-104040000D01*
X131114000Y-109340000D02*
X131114000Y-107690000D01*
X131174000Y-111830000D02*
X131174000Y-101550000D01*
X131174000Y-101550000D02*
X120774000Y-101550000D01*
X120834000Y-109340000D02*
X131114000Y-109340000D01*
X131114000Y-104040000D02*
X120834000Y-104040000D01*
X120774000Y-111830000D02*
X131174000Y-111830000D01*
X120774000Y-101550000D02*
X120774000Y-111830000D01*
X120834000Y-104040000D02*
X120834000Y-109340000D01*
X131114000Y-105690000D02*
G75*
G03*
X131114000Y-107690000I0J-1000000D01*
G01*
%TO.C,C4*%
X102943252Y-104875000D02*
X102420748Y-104875000D01*
X102943252Y-103405000D02*
X102420748Y-103405000D01*
%TO.C,C2*%
X113565000Y-123756748D02*
X113565000Y-124279252D01*
X115035000Y-123756748D02*
X115035000Y-124279252D01*
%TD*%
M02*
