M48
; DRILL file {KiCad (6.0.1)} date Tue Mar 15 19:28:49 2022
; FORMAT={-:-/ absolute / inch / decimal}
; #@! TF.CreationDate,2022-03-15T19:28:49-04:00
; #@! TF.GenerationSoftware,Kicad,Pcbnew,(6.0.1)
; #@! TF.FileFunction,Plated,1,4,PTH
FMAT,2
INCH
; #@! TA.AperFunction,Plated,PTH,ViaDrill
T1C0.0157
; #@! TA.AperFunction,Plated,PTH,ComponentDrill
T2C0.0315
; #@! TA.AperFunction,Plated,PTH,ComponentDrill
T3C0.0394
; #@! TA.AperFunction,Plated,PTH,ComponentDrill
T4C0.1260
%
G90
G05
T1
X4.02Y-4.02
X4.08Y-4.02
X4.4Y-4.78
X4.44Y-4.2786
X4.5Y-4.16
X4.52Y-4.78
X4.56Y-4.58
X4.62Y-4.78
X4.84Y-4.62
X5.18Y-4.68
X5.2Y-4.62
X5.62Y-4.7
X5.66Y-4.74
X5.96Y-4.94
X6.06Y-4.44
T2
X4.8096Y-4.0504
X4.8096Y-4.3504
X4.9096Y-4.0504
X4.9096Y-4.3504
X5.0096Y-4.0504
X5.0096Y-4.3504
X5.1096Y-4.0504
X5.1096Y-4.3504
T3
X4.9194Y-4.9098
X4.9194Y-5.0098
X5.0194Y-4.9098
X5.0194Y-5.0098
X5.1194Y-4.9098
X5.1194Y-5.0098
X6.2Y-4.52
X6.2Y-4.62
X6.2Y-4.72
X6.2Y-4.82
X6.2Y-4.92
X6.2Y-5.02
T4
X4.1Y-4.96
X6.16Y-4.08
T0
M30
