%TF.GenerationSoftware,KiCad,Pcbnew,(6.0.1)*%
%TF.CreationDate,2022-03-15T19:28:32-04:00*%
%TF.ProjectId,WiFi-Board,57694669-2d42-46f6-9172-642e6b696361,rev?*%
%TF.SameCoordinates,Original*%
%TF.FileFunction,Soldermask,Top*%
%TF.FilePolarity,Negative*%
%FSLAX46Y46*%
G04 Gerber Fmt 4.6, Leading zero omitted, Abs format (unit mm)*
G04 Created by KiCad (PCBNEW (6.0.1)) date 2022-03-15 19:28:32*
%MOMM*%
%LPD*%
G01*
G04 APERTURE LIST*
G04 Aperture macros list*
%AMRoundRect*
0 Rectangle with rounded corners*
0 $1 Rounding radius*
0 $2 $3 $4 $5 $6 $7 $8 $9 X,Y pos of 4 corners*
0 Add a 4 corners polygon primitive as box body*
4,1,4,$2,$3,$4,$5,$6,$7,$8,$9,$2,$3,0*
0 Add four circle primitives for the rounded corners*
1,1,$1+$1,$2,$3*
1,1,$1+$1,$4,$5*
1,1,$1+$1,$6,$7*
1,1,$1+$1,$8,$9*
0 Add four rect primitives between the rounded corners*
20,1,$1+$1,$2,$3,$4,$5,0*
20,1,$1+$1,$4,$5,$6,$7,0*
20,1,$1+$1,$6,$7,$8,$9,0*
20,1,$1+$1,$8,$9,$2,$3,0*%
G04 Aperture macros list end*
%ADD10R,1.700000X1.700000*%
%ADD11O,1.700000X1.700000*%
%ADD12RoundRect,0.250000X0.450000X-0.262500X0.450000X0.262500X-0.450000X0.262500X-0.450000X-0.262500X0*%
%ADD13C,5.600000*%
%ADD14RoundRect,0.250000X-0.475000X0.250000X-0.475000X-0.250000X0.475000X-0.250000X0.475000X0.250000X0*%
%ADD15C,1.200000*%
%ADD16R,0.700000X1.200000*%
%ADD17R,1.200000X0.700000*%
%ADD18R,6.000000X4.200000*%
%ADD19RoundRect,0.250000X-0.450000X0.262500X-0.450000X-0.262500X0.450000X-0.262500X0.450000X0.262500X0*%
%ADD20R,1.600000X1.600000*%
%ADD21O,1.600000X1.600000*%
%ADD22RoundRect,0.250000X0.250000X0.475000X-0.250000X0.475000X-0.250000X-0.475000X0.250000X-0.475000X0*%
G04 APERTURE END LIST*
D10*
%TO.C,J1*%
X130033000Y-124709000D03*
D11*
X130033000Y-127249000D03*
X127493000Y-124709000D03*
X127493000Y-127249000D03*
X124953000Y-124709000D03*
X124953000Y-127249000D03*
%TD*%
D12*
%TO.C,R1*%
X121412000Y-119888000D03*
X121412000Y-118063000D03*
%TD*%
D13*
%TO.C,REF\u002A\u002A*%
X104140000Y-125984000D03*
%TD*%
D14*
%TO.C,C3*%
X110744000Y-123068000D03*
X110744000Y-124968000D03*
%TD*%
%TO.C,C1*%
X117856000Y-123068000D03*
X117856000Y-124968000D03*
%TD*%
D15*
%TO.C,U1*%
X117253682Y-107676815D03*
D16*
X115803682Y-107676815D03*
X114703682Y-107676815D03*
X113603682Y-107676815D03*
X112503682Y-107676815D03*
X111403682Y-107676815D03*
X110303682Y-107676815D03*
X109203682Y-107676815D03*
X108103682Y-107676815D03*
X107003682Y-107676815D03*
X105903682Y-107676815D03*
X104803682Y-107676815D03*
X103703682Y-107676815D03*
X102603682Y-107676815D03*
X101503682Y-107676815D03*
D15*
X97853682Y-107676815D03*
X97853682Y-119876815D03*
D16*
X101503682Y-119876815D03*
X102603682Y-119876815D03*
X103703682Y-119876815D03*
X104803682Y-119876815D03*
X105903682Y-119876815D03*
X107003682Y-119876815D03*
X108103682Y-119876815D03*
X109203682Y-119876815D03*
X110303682Y-119876815D03*
X111403682Y-119876815D03*
X112503682Y-119876815D03*
X113603682Y-119876815D03*
X114703682Y-119876815D03*
X115803682Y-119876815D03*
D15*
X117253682Y-119876815D03*
D17*
X117353682Y-117626815D03*
X117353682Y-116526815D03*
X117353682Y-115426815D03*
X117353682Y-114326815D03*
X117353682Y-113226815D03*
X117353682Y-112126815D03*
X117353682Y-111026815D03*
X117353682Y-109926815D03*
D18*
X111953682Y-111376815D03*
X105353682Y-111376815D03*
X105353682Y-116176815D03*
X111953682Y-116176815D03*
%TD*%
D19*
%TO.C,R2*%
X121412000Y-114507000D03*
X121412000Y-116332000D03*
%TD*%
D12*
%TO.C,R4*%
X126492000Y-116125000D03*
X126492000Y-114300000D03*
%TD*%
D13*
%TO.C,REF\u002A\u002A*%
X156464000Y-103632000D03*
%TD*%
D20*
%TO.C,SW1*%
X129784000Y-102880000D03*
D21*
X127244000Y-102880000D03*
X124704000Y-102880000D03*
X122164000Y-102880000D03*
X122164000Y-110500000D03*
X124704000Y-110500000D03*
X127244000Y-110500000D03*
X129784000Y-110500000D03*
%TD*%
D22*
%TO.C,C4*%
X103632000Y-104140000D03*
X101732000Y-104140000D03*
%TD*%
D14*
%TO.C,C2*%
X114300000Y-123068000D03*
X114300000Y-124968000D03*
%TD*%
D10*
%TO.C,J2*%
X157480000Y-114808000D03*
D11*
X157480000Y-117348000D03*
X157480000Y-119888000D03*
X157480000Y-122428000D03*
X157480000Y-124968000D03*
X157480000Y-127508000D03*
%TD*%
M02*
