M48
; DRILL file {KiCad (6.0.1)} date Tue Mar 15 19:27:46 2022
; FORMAT={-:-/ absolute / inch / decimal}
; #@! TF.CreationDate,2022-03-15T19:27:46-04:00
; #@! TF.GenerationSoftware,Kicad,Pcbnew,(6.0.1)
; #@! TF.FileFunction,Plated,1,4,PTH
FMAT,2
INCH
; #@! TA.AperFunction,Plated,PTH,ViaDrill
T1C0.0157
; #@! TA.AperFunction,Plated,PTH,ComponentDrill
T2C0.0236
; #@! TA.AperFunction,Plated,PTH,ComponentDrill
T3C0.0394
; #@! TA.AperFunction,Plated,PTH,ComponentDrill
T4C0.0591
; #@! TA.AperFunction,Plated,PTH,ComponentDrill
T5C0.1260
%
G90
G05
T1
X4.46Y-4.94
X4.48Y-4.08
X4.58Y-4.18
X4.6Y-4.08
X4.62Y-4.42
X4.68Y-4.14
X5.0Y-4.26
X5.0Y-4.32
X5.2Y-4.64
X5.32Y-4.84
X5.46Y-4.72
X5.5Y-4.32
X5.54Y-4.28
X5.74Y-4.24
X5.7602Y-4.7802
X5.96Y-4.82
T2
X5.94Y-4.5294
X5.94Y-4.5884
T3
X4.7896Y-5.021
X4.8896Y-5.021
X4.9896Y-5.021
X5.0896Y-5.021
X5.38Y-4.0298
X5.38Y-4.1298
X5.48Y-4.0298
X5.48Y-4.1298
X5.58Y-4.0298
X5.58Y-4.1298
X6.2Y-4.52
X6.2Y-4.62
X6.2Y-4.72
X6.2Y-4.82
X6.2Y-4.92
X6.2Y-5.02
T4
X4.2333Y-4.46
X5.04Y-4.46
T5
X4.1Y-4.96
X6.16Y-4.08
T0
M30
