%TF.GenerationSoftware,KiCad,Pcbnew,(6.0.1)*%
%TF.CreationDate,2022-03-15T19:27:33-04:00*%
%TF.ProjectId,Main-Board,4d61696e-2d42-46f6-9172-642e6b696361,rev?*%
%TF.SameCoordinates,Original*%
%TF.FileFunction,Paste,Top*%
%TF.FilePolarity,Positive*%
%FSLAX46Y46*%
G04 Gerber Fmt 4.6, Leading zero omitted, Abs format (unit mm)*
G04 Created by KiCad (PCBNEW (6.0.1)) date 2022-03-15 19:27:33*
%MOMM*%
%LPD*%
G01*
G04 APERTURE LIST*
G04 Aperture macros list*
%AMRoundRect*
0 Rectangle with rounded corners*
0 $1 Rounding radius*
0 $2 $3 $4 $5 $6 $7 $8 $9 X,Y pos of 4 corners*
0 Add a 4 corners polygon primitive as box body*
4,1,4,$2,$3,$4,$5,$6,$7,$8,$9,$2,$3,0*
0 Add four circle primitives for the rounded corners*
1,1,$1+$1,$2,$3*
1,1,$1+$1,$4,$5*
1,1,$1+$1,$6,$7*
1,1,$1+$1,$8,$9*
0 Add four rect primitives between the rounded corners*
20,1,$1+$1,$2,$3,$4,$5,0*
20,1,$1+$1,$4,$5,$6,$7,0*
20,1,$1+$1,$6,$7,$8,$9,0*
20,1,$1+$1,$8,$9,$2,$3,0*%
G04 Aperture macros list end*
%ADD10RoundRect,0.250000X0.262500X0.450000X-0.262500X0.450000X-0.262500X-0.450000X0.262500X-0.450000X0*%
%ADD11RoundRect,0.150000X-0.825000X-0.150000X0.825000X-0.150000X0.825000X0.150000X-0.825000X0.150000X0*%
%ADD12RoundRect,0.250000X0.250000X0.475000X-0.250000X0.475000X-0.250000X-0.475000X0.250000X-0.475000X0*%
%ADD13RoundRect,0.250000X-0.262500X-0.450000X0.262500X-0.450000X0.262500X0.450000X-0.262500X0.450000X0*%
%ADD14RoundRect,0.250000X-0.250000X-0.475000X0.250000X-0.475000X0.250000X0.475000X-0.250000X0.475000X0*%
%ADD15RoundRect,0.250000X-0.475000X0.250000X-0.475000X-0.250000X0.475000X-0.250000X0.475000X0.250000X0*%
%ADD16RoundRect,0.150000X-0.875000X-0.150000X0.875000X-0.150000X0.875000X0.150000X-0.875000X0.150000X0*%
%ADD17RoundRect,0.250000X0.450000X-0.262500X0.450000X0.262500X-0.450000X0.262500X-0.450000X-0.262500X0*%
%ADD18R,0.400000X0.500000*%
%ADD19R,0.300000X0.500000*%
%ADD20R,1.000000X0.400000*%
%ADD21RoundRect,0.250000X0.475000X-0.250000X0.475000X0.250000X-0.475000X0.250000X-0.475000X-0.250000X0*%
G04 APERTURE END LIST*
D10*
%TO.C,R12*%
X148129000Y-115824000D03*
X146304000Y-115824000D03*
%TD*%
D11*
%TO.C,U5*%
X138749000Y-114427000D03*
X138749000Y-115697000D03*
X138749000Y-116967000D03*
X138749000Y-118237000D03*
X143699000Y-118237000D03*
X143699000Y-116967000D03*
X143699000Y-115697000D03*
X143699000Y-114427000D03*
%TD*%
D12*
%TO.C,C8*%
X112268000Y-123444000D03*
X110368000Y-123444000D03*
%TD*%
D13*
%TO.C,R11*%
X143256000Y-121920000D03*
X145081000Y-121920000D03*
%TD*%
D14*
%TO.C,C13*%
X146436000Y-112268000D03*
X148336000Y-112268000D03*
%TD*%
D15*
%TO.C,C9*%
X124968000Y-108270000D03*
X124968000Y-110170000D03*
%TD*%
D16*
%TO.C,U4*%
X111682000Y-103505000D03*
X111682000Y-104775000D03*
X111682000Y-106045000D03*
X111682000Y-107315000D03*
X111682000Y-108585000D03*
X111682000Y-109855000D03*
X111682000Y-111125000D03*
X111682000Y-112395000D03*
X111682000Y-113665000D03*
X111682000Y-114935000D03*
X111682000Y-116205000D03*
X111682000Y-117475000D03*
X111682000Y-118745000D03*
X111682000Y-120015000D03*
X120982000Y-120015000D03*
X120982000Y-118745000D03*
X120982000Y-117475000D03*
X120982000Y-116205000D03*
X120982000Y-114935000D03*
X120982000Y-113665000D03*
X120982000Y-112395000D03*
X120982000Y-111125000D03*
X120982000Y-109855000D03*
X120982000Y-108585000D03*
X120982000Y-107315000D03*
X120982000Y-106045000D03*
X120982000Y-104775000D03*
X120982000Y-103505000D03*
%TD*%
D14*
%TO.C,C10*%
X138816000Y-111252000D03*
X140716000Y-111252000D03*
%TD*%
D17*
%TO.C,R9*%
X135128000Y-120904000D03*
X135128000Y-119079000D03*
%TD*%
D14*
%TO.C,C12*%
X149484000Y-119888000D03*
X151384000Y-119888000D03*
%TD*%
D10*
%TO.C,R13*%
X151685000Y-124968000D03*
X149860000Y-124968000D03*
%TD*%
D13*
%TO.C,R10*%
X137771500Y-122936000D03*
X139596500Y-122936000D03*
%TD*%
D18*
%TO.C,U7*%
X150302000Y-123178000D03*
X149652000Y-123178000D03*
X149052000Y-123178000D03*
X148402000Y-123178000D03*
X148402000Y-121678000D03*
X149052000Y-121678000D03*
X149652000Y-121678000D03*
X150302000Y-121678000D03*
%TD*%
D19*
%TO.C,U6*%
X143872000Y-109920000D03*
X144672000Y-109920000D03*
X144672000Y-108520000D03*
X143872000Y-108520000D03*
D20*
X144272000Y-109220000D03*
%TD*%
D21*
%TO.C,C11*%
X147828000Y-108712000D03*
X147828000Y-106812000D03*
%TD*%
M02*
