%TF.GenerationSoftware,KiCad,Pcbnew,(6.0.1)*%
%TF.CreationDate,2022-03-15T19:27:33-04:00*%
%TF.ProjectId,Main-Board,4d61696e-2d42-46f6-9172-642e6b696361,rev?*%
%TF.SameCoordinates,Original*%
%TF.FileFunction,Copper,L1,Top*%
%TF.FilePolarity,Positive*%
%FSLAX46Y46*%
G04 Gerber Fmt 4.6, Leading zero omitted, Abs format (unit mm)*
G04 Created by KiCad (PCBNEW (6.0.1)) date 2022-03-15 19:27:33*
%MOMM*%
%LPD*%
G01*
G04 APERTURE LIST*
G04 Aperture macros list*
%AMRoundRect*
0 Rectangle with rounded corners*
0 $1 Rounding radius*
0 $2 $3 $4 $5 $6 $7 $8 $9 X,Y pos of 4 corners*
0 Add a 4 corners polygon primitive as box body*
4,1,4,$2,$3,$4,$5,$6,$7,$8,$9,$2,$3,0*
0 Add four circle primitives for the rounded corners*
1,1,$1+$1,$2,$3*
1,1,$1+$1,$4,$5*
1,1,$1+$1,$6,$7*
1,1,$1+$1,$8,$9*
0 Add four rect primitives between the rounded corners*
20,1,$1+$1,$2,$3,$4,$5,0*
20,1,$1+$1,$4,$5,$6,$7,0*
20,1,$1+$1,$6,$7,$8,$9,0*
20,1,$1+$1,$8,$9,$2,$3,0*%
G04 Aperture macros list end*
%TA.AperFunction,SMDPad,CuDef*%
%ADD10RoundRect,0.250000X0.262500X0.450000X-0.262500X0.450000X-0.262500X-0.450000X0.262500X-0.450000X0*%
%TD*%
%TA.AperFunction,SMDPad,CuDef*%
%ADD11RoundRect,0.150000X-0.825000X-0.150000X0.825000X-0.150000X0.825000X0.150000X-0.825000X0.150000X0*%
%TD*%
%TA.AperFunction,SMDPad,CuDef*%
%ADD12RoundRect,0.250000X0.250000X0.475000X-0.250000X0.475000X-0.250000X-0.475000X0.250000X-0.475000X0*%
%TD*%
%TA.AperFunction,SMDPad,CuDef*%
%ADD13RoundRect,0.250000X-0.262500X-0.450000X0.262500X-0.450000X0.262500X0.450000X-0.262500X0.450000X0*%
%TD*%
%TA.AperFunction,SMDPad,CuDef*%
%ADD14RoundRect,0.250000X-0.250000X-0.475000X0.250000X-0.475000X0.250000X0.475000X-0.250000X0.475000X0*%
%TD*%
%TA.AperFunction,ComponentPad*%
%ADD15R,1.700000X1.700000*%
%TD*%
%TA.AperFunction,ComponentPad*%
%ADD16O,1.700000X1.700000*%
%TD*%
%TA.AperFunction,SMDPad,CuDef*%
%ADD17RoundRect,0.250000X-0.475000X0.250000X-0.475000X-0.250000X0.475000X-0.250000X0.475000X0.250000X0*%
%TD*%
%TA.AperFunction,ComponentPad*%
%ADD18C,5.600000*%
%TD*%
%TA.AperFunction,SMDPad,CuDef*%
%ADD19RoundRect,0.150000X-0.875000X-0.150000X0.875000X-0.150000X0.875000X0.150000X-0.875000X0.150000X0*%
%TD*%
%TA.AperFunction,SMDPad,CuDef*%
%ADD20RoundRect,0.250000X0.450000X-0.262500X0.450000X0.262500X-0.450000X0.262500X-0.450000X-0.262500X0*%
%TD*%
%TA.AperFunction,SMDPad,CuDef*%
%ADD21R,0.400000X0.500000*%
%TD*%
%TA.AperFunction,SMDPad,CuDef*%
%ADD22R,0.300000X0.500000*%
%TD*%
%TA.AperFunction,SMDPad,CuDef*%
%ADD23R,1.000000X0.400000*%
%TD*%
%TA.AperFunction,SMDPad,CuDef*%
%ADD24RoundRect,0.250000X0.475000X-0.250000X0.475000X0.250000X-0.475000X0.250000X-0.475000X-0.250000X0*%
%TD*%
%TA.AperFunction,ComponentPad*%
%ADD25R,3.000000X3.000000*%
%TD*%
%TA.AperFunction,ComponentPad*%
%ADD26C,3.000000*%
%TD*%
%TA.AperFunction,ComponentPad*%
%ADD27R,1.200000X1.200000*%
%TD*%
%TA.AperFunction,ComponentPad*%
%ADD28C,1.200000*%
%TD*%
%TA.AperFunction,ViaPad*%
%ADD29C,0.800000*%
%TD*%
%TA.AperFunction,Conductor*%
%ADD30C,0.250000*%
%TD*%
%TA.AperFunction,Conductor*%
%ADD31C,0.500000*%
%TD*%
G04 APERTURE END LIST*
D10*
%TO.P,R12,1*%
%TO.N,+1V8*%
X148129000Y-115824000D03*
%TO.P,R12,2*%
%TO.N,Net-(R12-Pad2)*%
X146304000Y-115824000D03*
%TD*%
D11*
%TO.P,U5,1,VccA*%
%TO.N,+3V3*%
X138749000Y-114427000D03*
%TO.P,U5,2,SCLA*%
%TO.N,/SCL*%
X138749000Y-115697000D03*
%TO.P,U5,3,SDAA*%
%TO.N,/SDA*%
X138749000Y-116967000D03*
%TO.P,U5,4,GND*%
%TO.N,GND*%
X138749000Y-118237000D03*
%TO.P,U5,5,EN*%
%TO.N,Net-(U5-Pad5)*%
X143699000Y-118237000D03*
%TO.P,U5,6,SDAB*%
%TO.N,Net-(R13-Pad2)*%
X143699000Y-116967000D03*
%TO.P,U5,7,SCLB*%
%TO.N,Net-(R12-Pad2)*%
X143699000Y-115697000D03*
%TO.P,U5,8,VccB*%
%TO.N,+1V8*%
X143699000Y-114427000D03*
%TD*%
D12*
%TO.P,C8,1*%
%TO.N,+3V3*%
X112268000Y-123444000D03*
%TO.P,C8,2*%
%TO.N,GND*%
X110368000Y-123444000D03*
%TD*%
D13*
%TO.P,R11,1*%
%TO.N,Net-(U5-Pad5)*%
X143256000Y-121920000D03*
%TO.P,R11,2*%
%TO.N,+3V3*%
X145081000Y-121920000D03*
%TD*%
D14*
%TO.P,C13,1*%
%TO.N,+1V8*%
X146436000Y-112268000D03*
%TO.P,C13,2*%
%TO.N,GND*%
X148336000Y-112268000D03*
%TD*%
D15*
%TO.P,J1,1,Pin_1*%
%TO.N,+3V3*%
X157480000Y-114808000D03*
D16*
%TO.P,J1,2,Pin_2*%
%TO.N,/MISO*%
X157480000Y-117348000D03*
%TO.P,J1,3,Pin_3*%
%TO.N,/MOSI*%
X157480000Y-119888000D03*
%TO.P,J1,4,Pin_4*%
%TO.N,/SCK*%
X157480000Y-122428000D03*
%TO.P,J1,5,Pin_5*%
%TO.N,/~{SS}*%
X157480000Y-124968000D03*
%TO.P,J1,6,Pin_6*%
%TO.N,GND*%
X157480000Y-127508000D03*
%TD*%
D17*
%TO.P,C9,1*%
%TO.N,GND*%
X124968000Y-108270000D03*
%TO.P,C9,2*%
%TO.N,+3V3*%
X124968000Y-110170000D03*
%TD*%
D18*
%TO.P,REF\u002A\u002A,1*%
%TO.N,GND*%
X104140000Y-125984000D03*
%TD*%
D19*
%TO.P,U4,1,PA7*%
%TO.N,/~{SS}*%
X111682000Y-103505000D03*
%TO.P,U4,2,PC0*%
%TO.N,unconnected-(U4-Pad2)*%
X111682000Y-104775000D03*
%TO.P,U4,3,PC1*%
%TO.N,unconnected-(U4-Pad3)*%
X111682000Y-106045000D03*
%TO.P,U4,4,PC2*%
%TO.N,unconnected-(U4-Pad4)*%
X111682000Y-107315000D03*
%TO.P,U4,5,PC3*%
%TO.N,unconnected-(U4-Pad5)*%
X111682000Y-108585000D03*
%TO.P,U4,6,PD0*%
%TO.N,unconnected-(U4-Pad6)*%
X111682000Y-109855000D03*
%TO.P,U4,7,PD1*%
%TO.N,unconnected-(U4-Pad7)*%
X111682000Y-111125000D03*
%TO.P,U4,8,PD2*%
%TO.N,Current Sense*%
X111682000Y-112395000D03*
%TO.P,U4,9,PD3*%
%TO.N,unconnected-(U4-Pad9)*%
X111682000Y-113665000D03*
%TO.P,U4,10,PD4*%
%TO.N,unconnected-(U4-Pad10)*%
X111682000Y-114935000D03*
%TO.P,U4,11,PD5*%
%TO.N,unconnected-(U4-Pad11)*%
X111682000Y-116205000D03*
%TO.P,U4,12,PD6*%
%TO.N,unconnected-(U4-Pad12)*%
X111682000Y-117475000D03*
%TO.P,U4,13,PD7*%
%TO.N,unconnected-(U4-Pad13)*%
X111682000Y-118745000D03*
%TO.P,U4,14,AVDD*%
%TO.N,+3V3*%
X111682000Y-120015000D03*
%TO.P,U4,15,GND*%
%TO.N,GND*%
X120982000Y-120015000D03*
%TO.P,U4,16,PF0*%
%TO.N,unconnected-(U4-Pad16)*%
X120982000Y-118745000D03*
%TO.P,U4,17,PF1*%
%TO.N,unconnected-(U4-Pad17)*%
X120982000Y-117475000D03*
%TO.P,U4,18,PF6/~{RST}*%
%TO.N,unconnected-(U4-Pad18)*%
X120982000Y-116205000D03*
%TO.P,U4,19,UPDI*%
%TO.N,Net-(J2-Pad1)*%
X120982000Y-114935000D03*
%TO.P,U4,20,VDD*%
%TO.N,+3V3*%
X120982000Y-113665000D03*
%TO.P,U4,21,GND*%
%TO.N,GND*%
X120982000Y-112395000D03*
%TO.P,U4,22,PA0*%
%TO.N,unconnected-(U4-Pad22)*%
X120982000Y-111125000D03*
%TO.P,U4,23,PA1*%
%TO.N,unconnected-(U4-Pad23)*%
X120982000Y-109855000D03*
%TO.P,U4,24,PA2*%
%TO.N,/SDA*%
X120982000Y-108585000D03*
%TO.P,U4,25,PA3*%
%TO.N,/SCL*%
X120982000Y-107315000D03*
%TO.P,U4,26,PA4*%
%TO.N,/MOSI*%
X120982000Y-106045000D03*
%TO.P,U4,27,PA5*%
%TO.N,/MISO*%
X120982000Y-104775000D03*
%TO.P,U4,28,PA6*%
%TO.N,/SCK*%
X120982000Y-103505000D03*
%TD*%
D14*
%TO.P,C10,1*%
%TO.N,GND*%
X138816000Y-111252000D03*
%TO.P,C10,2*%
%TO.N,+3V3*%
X140716000Y-111252000D03*
%TD*%
D20*
%TO.P,R9,1*%
%TO.N,+3V3*%
X135128000Y-120904000D03*
%TO.P,R9,2*%
%TO.N,/SDA*%
X135128000Y-119079000D03*
%TD*%
D14*
%TO.P,C12,1*%
%TO.N,+1V8*%
X149484000Y-119888000D03*
%TO.P,C12,2*%
%TO.N,GND*%
X151384000Y-119888000D03*
%TD*%
D18*
%TO.P,REF\u002A\u002A,1*%
%TO.N,GND*%
X156464000Y-103632000D03*
%TD*%
D10*
%TO.P,R13,1*%
%TO.N,+1V8*%
X151685000Y-124968000D03*
%TO.P,R13,2*%
%TO.N,Net-(R13-Pad2)*%
X149860000Y-124968000D03*
%TD*%
D13*
%TO.P,R10,1*%
%TO.N,+3V3*%
X137771500Y-122936000D03*
%TO.P,R10,2*%
%TO.N,/SCL*%
X139596500Y-122936000D03*
%TD*%
D21*
%TO.P,U7,1,GND*%
%TO.N,GND*%
X150302000Y-123178000D03*
%TO.P,U7,2,NC*%
%TO.N,unconnected-(U7-Pad2)*%
X149652000Y-123178000D03*
%TO.P,U7,3,SDA*%
%TO.N,Net-(R13-Pad2)*%
X149052000Y-123178000D03*
%TO.P,U7,4,SCL*%
%TO.N,Net-(R12-Pad2)*%
X148402000Y-123178000D03*
%TO.P,U7,5,GND*%
%TO.N,GND*%
X148402000Y-121678000D03*
%TO.P,U7,6,NC*%
%TO.N,unconnected-(U7-Pad6)*%
X149052000Y-121678000D03*
%TO.P,U7,7,GND*%
%TO.N,GND*%
X149652000Y-121678000D03*
%TO.P,U7,8,VDD*%
%TO.N,+1V8*%
X150302000Y-121678000D03*
%TD*%
D22*
%TO.P,U6,1,SDA*%
%TO.N,Net-(R13-Pad2)*%
X143872000Y-109920000D03*
%TO.P,U6,2,SCL*%
%TO.N,Net-(R12-Pad2)*%
X144672000Y-109920000D03*
%TO.P,U6,3,VDD*%
%TO.N,+1V8*%
X144672000Y-108520000D03*
%TO.P,U6,4,VSS*%
%TO.N,GND*%
X143872000Y-108520000D03*
D23*
%TO.P,U6,5,GND*%
X144272000Y-109220000D03*
%TD*%
D24*
%TO.P,C11,1*%
%TO.N,+1V8*%
X147828000Y-108712000D03*
%TO.P,C11,2*%
%TO.N,GND*%
X147828000Y-106812000D03*
%TD*%
D15*
%TO.P,J2,1,DATA*%
%TO.N,Net-(J2-Pad1)*%
X136652000Y-102357000D03*
D16*
%TO.P,J2,2,VCC*%
%TO.N,+3V3*%
X136652000Y-104897000D03*
%TO.P,J2,3,NC*%
%TO.N,unconnected-(J2-Pad3)*%
X139192000Y-102357000D03*
%TO.P,J2,4,NC*%
%TO.N,unconnected-(J2-Pad4)*%
X139192000Y-104897000D03*
%TO.P,J2,5,NC*%
%TO.N,unconnected-(J2-Pad5)*%
X141732000Y-102357000D03*
%TO.P,J2,6,GND*%
%TO.N,GND*%
X141732000Y-104897000D03*
%TD*%
D25*
%TO.P,BT1,1,+*%
%TO.N,Net-(BT1-Pad1)*%
X128016000Y-113284000D03*
D26*
%TO.P,BT1,2,-*%
%TO.N,GND*%
X107526000Y-113284000D03*
%TD*%
D27*
%TO.P,C7,1*%
%TO.N,+1V8*%
X150876000Y-116546600D03*
D28*
%TO.P,C7,2*%
%TO.N,GND*%
X150876000Y-115046600D03*
%TD*%
D15*
%TO.P,J3,1,Pin_1*%
%TO.N,+3V3*%
X129276000Y-127533000D03*
D16*
%TO.P,J3,2,Pin_2*%
%TO.N,/SDA*%
X126736000Y-127533000D03*
%TO.P,J3,3,Pin_3*%
%TO.N,/SCL*%
X124196000Y-127533000D03*
%TO.P,J3,4,Pin_4*%
%TO.N,GND*%
X121656000Y-127533000D03*
%TD*%
D29*
%TO.N,GND*%
X127000000Y-108204000D03*
X145796000Y-107696000D03*
X151384000Y-122428000D03*
X132080000Y-117856000D03*
X138684000Y-119888000D03*
X139700000Y-109728000D03*
%TO.N,+3V3*%
X135128000Y-122936000D03*
X113284000Y-125476000D03*
X127000000Y-109728000D03*
X140716000Y-108712000D03*
X146308299Y-121416299D03*
%TO.N,/MISO*%
X118872000Y-105156000D03*
%TO.N,/MOSI*%
X116332000Y-106172000D03*
%TO.N,/SCK*%
X116840000Y-103632000D03*
%TO.N,/~{SS}*%
X113792000Y-103632000D03*
%TO.N,Current Sense*%
X117348000Y-112268000D03*
%TD*%
D30*
%TO.N,GND*%
X138816000Y-110612000D02*
X139700000Y-109728000D01*
X145796000Y-107696000D02*
X144446978Y-107696000D01*
X148652000Y-122428000D02*
X149860000Y-122428000D01*
X122936000Y-111302494D02*
X121843494Y-112395000D01*
X110368000Y-123444000D02*
X106680000Y-123444000D01*
X151384000Y-122428000D02*
X151384000Y-119888000D01*
X143872000Y-108270978D02*
X143872000Y-108520000D01*
X149860000Y-122386000D02*
X149860000Y-122428000D01*
X124394000Y-108270000D02*
X122936000Y-109728000D01*
X149860000Y-122428000D02*
X150368000Y-122428000D01*
X148336000Y-112268000D02*
X148336000Y-112506600D01*
X106680000Y-123444000D02*
X104140000Y-125984000D01*
X122936000Y-109728000D02*
X122936000Y-111302494D01*
X147696000Y-106680000D02*
X147828000Y-106812000D01*
X146812000Y-106680000D02*
X147696000Y-106680000D01*
X149652000Y-122178000D02*
X149860000Y-122386000D01*
X138749000Y-119823000D02*
X138749000Y-118237000D01*
X145796000Y-107696000D02*
X146812000Y-106680000D01*
X150302000Y-122494000D02*
X150368000Y-122428000D01*
X121843494Y-112395000D02*
X120982000Y-112395000D01*
X144446978Y-107696000D02*
X143872000Y-108270978D01*
X129921000Y-120015000D02*
X132080000Y-117856000D01*
X148402000Y-122178000D02*
X148652000Y-122428000D01*
X150302000Y-123178000D02*
X150302000Y-122494000D01*
X148336000Y-112506600D02*
X150876000Y-115046600D01*
X120982000Y-120015000D02*
X129921000Y-120015000D01*
X150368000Y-122428000D02*
X151384000Y-122428000D01*
X144272000Y-109220000D02*
X143872000Y-108820000D01*
X124968000Y-108270000D02*
X124394000Y-108270000D01*
X149652000Y-121678000D02*
X149652000Y-122178000D01*
X126934000Y-108270000D02*
X127000000Y-108204000D01*
X148402000Y-121678000D02*
X148402000Y-122178000D01*
X124968000Y-108270000D02*
X126934000Y-108270000D01*
X138816000Y-111252000D02*
X138816000Y-110612000D01*
X138684000Y-119888000D02*
X138749000Y-119823000D01*
X143872000Y-108820000D02*
X143872000Y-108520000D01*
D31*
%TO.N,+3V3*%
X140716000Y-112460000D02*
X140716000Y-111252000D01*
X137771500Y-122936000D02*
X135128000Y-122936000D01*
X112268000Y-123444000D02*
X112268000Y-124460000D01*
X127000000Y-109728000D02*
X125410000Y-109728000D01*
X111682000Y-122858000D02*
X112268000Y-123444000D01*
X111682000Y-120015000D02*
X111682000Y-122858000D01*
X140716000Y-108712000D02*
X140716000Y-111252000D01*
X112268000Y-124460000D02*
X113284000Y-125476000D01*
X124968000Y-110170000D02*
X124968000Y-110281849D01*
D30*
X145804598Y-121920000D02*
X146308299Y-121416299D01*
D31*
X138749000Y-114427000D02*
X140716000Y-112460000D01*
X124968000Y-110281849D02*
X121584849Y-113665000D01*
D30*
X145081000Y-121920000D02*
X145804598Y-121920000D01*
D31*
X135128000Y-120904000D02*
X135128000Y-122936000D01*
X121584849Y-113665000D02*
X120982000Y-113665000D01*
X125410000Y-109728000D02*
X124968000Y-110170000D01*
%TO.N,+1V8*%
X147828000Y-109604000D02*
X147828000Y-108712000D01*
X151685000Y-124968000D02*
X152776000Y-124968000D01*
X148336000Y-109728000D02*
X147704000Y-109728000D01*
X149058600Y-116546600D02*
X150876000Y-116546600D01*
X148129000Y-115824000D02*
X148336000Y-115824000D01*
X146304000Y-108712000D02*
X146162489Y-108570489D01*
X152400000Y-115022600D02*
X152400000Y-113792000D01*
D30*
X145146489Y-108570489D02*
X145796000Y-108570489D01*
D31*
X147452000Y-111252000D02*
X147452000Y-109980000D01*
X143699000Y-114427000D02*
X146732000Y-114427000D01*
D30*
X150302000Y-120706000D02*
X149484000Y-119888000D01*
D31*
X146162489Y-108570489D02*
X145796000Y-108570489D01*
X146732000Y-114427000D02*
X148129000Y-115824000D01*
X144277000Y-114427000D02*
X147452000Y-111252000D01*
X148336000Y-115824000D02*
X149058600Y-116546600D01*
X153416000Y-124328000D02*
X153416000Y-119086600D01*
D30*
X144672000Y-108520000D02*
X145096000Y-108520000D01*
D31*
X152400000Y-113792000D02*
X148336000Y-109728000D01*
X153416000Y-119086600D02*
X150876000Y-116546600D01*
X152776000Y-124968000D02*
X153416000Y-124328000D01*
X149484000Y-119888000D02*
X150876000Y-118496000D01*
X147452000Y-109980000D02*
X147704000Y-109728000D01*
X150876000Y-118496000D02*
X150876000Y-116546600D01*
X147704000Y-109728000D02*
X147828000Y-109604000D01*
X147828000Y-108712000D02*
X146304000Y-108712000D01*
D30*
X145096000Y-108520000D02*
X145146489Y-108570489D01*
D31*
X143699000Y-114427000D02*
X144277000Y-114427000D01*
X150876000Y-116546600D02*
X152400000Y-115022600D01*
D30*
X150302000Y-121678000D02*
X150302000Y-120706000D01*
%TO.N,/MISO*%
X118872000Y-105156000D02*
X119380000Y-104648000D01*
X119380000Y-104648000D02*
X120855000Y-104648000D01*
X120855000Y-104648000D02*
X120982000Y-104775000D01*
%TO.N,/MOSI*%
X116332000Y-106172000D02*
X120855000Y-106172000D01*
X120855000Y-106172000D02*
X120982000Y-106045000D01*
%TO.N,/SCK*%
X120855000Y-103632000D02*
X120982000Y-103505000D01*
X116840000Y-103632000D02*
X120855000Y-103632000D01*
%TO.N,/~{SS}*%
X113792000Y-103632000D02*
X111809000Y-103632000D01*
X111809000Y-103632000D02*
X111682000Y-103505000D01*
%TO.N,Current Sense*%
X117348000Y-112268000D02*
X111809000Y-112268000D01*
X111809000Y-112268000D02*
X111682000Y-112395000D01*
%TO.N,Net-(J2-Pad1)*%
X123444000Y-114808000D02*
X121109000Y-114808000D01*
X121109000Y-114808000D02*
X120982000Y-114935000D01*
X131064000Y-107945000D02*
X131064000Y-115316000D01*
X125476000Y-116840000D02*
X123444000Y-114808000D01*
X129540000Y-116840000D02*
X125476000Y-116840000D01*
X131064000Y-115316000D02*
X129540000Y-116840000D01*
X136652000Y-102357000D02*
X131064000Y-107945000D01*
%TO.N,Net-(R12-Pad2)*%
X143129000Y-115697000D02*
X143699000Y-115697000D01*
X143699000Y-115697000D02*
X146177000Y-115697000D01*
X147320000Y-122096000D02*
X147320000Y-120064000D01*
X148402000Y-123178000D02*
X147320000Y-122096000D01*
X147320000Y-120064000D02*
X146304000Y-119048000D01*
X141732000Y-114300000D02*
X143129000Y-115697000D01*
X141732000Y-114300000D02*
X144672000Y-111360000D01*
X146177000Y-115697000D02*
X146304000Y-115824000D01*
X144672000Y-111360000D02*
X144672000Y-109920000D01*
X146304000Y-119048000D02*
X146304000Y-115824000D01*
%TO.N,Net-(R13-Pad2)*%
X148336000Y-124460000D02*
X149052000Y-123744000D01*
X143764000Y-124460000D02*
X141224000Y-121920000D01*
X143872000Y-110128000D02*
X143872000Y-109920000D01*
X141224000Y-121920000D02*
X141224000Y-117348000D01*
X148336000Y-124460000D02*
X148844000Y-124968000D01*
X141224000Y-117348000D02*
X141224000Y-112776000D01*
X148336000Y-124460000D02*
X143764000Y-124460000D01*
X149052000Y-123744000D02*
X149052000Y-123178000D01*
X141605000Y-116967000D02*
X141224000Y-117348000D01*
X143699000Y-116967000D02*
X141605000Y-116967000D01*
X141224000Y-112776000D02*
X143872000Y-110128000D01*
X148844000Y-124968000D02*
X149860000Y-124968000D01*
%TO.N,/SCL*%
X118364000Y-109506928D02*
X118364000Y-121701000D01*
X140716000Y-116840000D02*
X139573000Y-115697000D01*
X120555928Y-107315000D02*
X118364000Y-109506928D01*
X118364000Y-121701000D02*
X124196000Y-127533000D01*
X124196000Y-127533000D02*
X125695000Y-129032000D01*
X139596500Y-122936000D02*
X140716000Y-121816500D01*
X125695000Y-129032000D02*
X133500500Y-129032000D01*
X139573000Y-115697000D02*
X138749000Y-115697000D01*
X120982000Y-107315000D02*
X120555928Y-107315000D01*
X133500500Y-129032000D02*
X139596500Y-122936000D01*
X140716000Y-121816500D02*
X140716000Y-116840000D01*
%TO.N,/SDA*%
X118872000Y-121573282D02*
X122774718Y-125476000D01*
X135128000Y-119079000D02*
X135128000Y-118364000D01*
X136525000Y-116967000D02*
X138749000Y-116967000D01*
X122774718Y-125476000D02*
X124968000Y-125476000D01*
X126736000Y-127533000D02*
X135128000Y-119141000D01*
X126736000Y-127244000D02*
X126736000Y-127533000D01*
X124968000Y-125476000D02*
X126736000Y-127244000D01*
X135128000Y-118364000D02*
X136525000Y-116967000D01*
X120555928Y-108585000D02*
X118872000Y-110268928D01*
X120982000Y-108585000D02*
X120555928Y-108585000D01*
X135128000Y-119141000D02*
X135128000Y-119079000D01*
X118872000Y-110268928D02*
X118872000Y-121573282D01*
%TO.N,Net-(U5-Pad5)*%
X143256000Y-121920000D02*
X143699000Y-121477000D01*
X143699000Y-121477000D02*
X143699000Y-118237000D01*
%TD*%
M02*
