%TF.GenerationSoftware,KiCad,Pcbnew,(6.0.1)*%
%TF.CreationDate,2022-03-15T19:27:33-04:00*%
%TF.ProjectId,Main-Board,4d61696e-2d42-46f6-9172-642e6b696361,rev?*%
%TF.SameCoordinates,Original*%
%TF.FileFunction,Legend,Top*%
%TF.FilePolarity,Positive*%
%FSLAX46Y46*%
G04 Gerber Fmt 4.6, Leading zero omitted, Abs format (unit mm)*
G04 Created by KiCad (PCBNEW (6.0.1)) date 2022-03-15 19:27:33*
%MOMM*%
%LPD*%
G01*
G04 APERTURE LIST*
%ADD10C,0.150000*%
%ADD11C,0.120000*%
%ADD12C,0.100000*%
G04 APERTURE END LIST*
D10*
X153382309Y-117347380D02*
X153715642Y-118347380D01*
X154048976Y-117347380D01*
X154810880Y-118299761D02*
X154715642Y-118347380D01*
X154525166Y-118347380D01*
X154429928Y-118299761D01*
X154382309Y-118252142D01*
X154334690Y-118156904D01*
X154334690Y-117871190D01*
X154382309Y-117775952D01*
X154429928Y-117728333D01*
X154525166Y-117680714D01*
X154715642Y-117680714D01*
X154810880Y-117728333D01*
X155668023Y-118299761D02*
X155572785Y-118347380D01*
X155382309Y-118347380D01*
X155287071Y-118299761D01*
X155239452Y-118252142D01*
X155191833Y-118156904D01*
X155191833Y-117871190D01*
X155239452Y-117775952D01*
X155287071Y-117728333D01*
X155382309Y-117680714D01*
X155572785Y-117680714D01*
X155668023Y-117728333D01*
X152477547Y-119957380D02*
X152477547Y-118957380D01*
X152810880Y-119671666D01*
X153144214Y-118957380D01*
X153144214Y-119957380D01*
X153620404Y-119957380D02*
X153620404Y-118957380D01*
X154048976Y-119909761D02*
X154191833Y-119957380D01*
X154429928Y-119957380D01*
X154525166Y-119909761D01*
X154572785Y-119862142D01*
X154620404Y-119766904D01*
X154620404Y-119671666D01*
X154572785Y-119576428D01*
X154525166Y-119528809D01*
X154429928Y-119481190D01*
X154239452Y-119433571D01*
X154144214Y-119385952D01*
X154096595Y-119338333D01*
X154048976Y-119243095D01*
X154048976Y-119147857D01*
X154096595Y-119052619D01*
X154144214Y-119005000D01*
X154239452Y-118957380D01*
X154477547Y-118957380D01*
X154620404Y-119005000D01*
X155239452Y-118957380D02*
X155429928Y-118957380D01*
X155525166Y-119005000D01*
X155620404Y-119100238D01*
X155668023Y-119290714D01*
X155668023Y-119624047D01*
X155620404Y-119814523D01*
X155525166Y-119909761D01*
X155429928Y-119957380D01*
X155239452Y-119957380D01*
X155144214Y-119909761D01*
X155048976Y-119814523D01*
X155001357Y-119624047D01*
X155001357Y-119290714D01*
X155048976Y-119100238D01*
X155144214Y-119005000D01*
X155239452Y-118957380D01*
X152477547Y-121567380D02*
X152477547Y-120567380D01*
X152810880Y-121281666D01*
X153144214Y-120567380D01*
X153144214Y-121567380D01*
X153810880Y-120567380D02*
X154001357Y-120567380D01*
X154096595Y-120615000D01*
X154191833Y-120710238D01*
X154239452Y-120900714D01*
X154239452Y-121234047D01*
X154191833Y-121424523D01*
X154096595Y-121519761D01*
X154001357Y-121567380D01*
X153810880Y-121567380D01*
X153715642Y-121519761D01*
X153620404Y-121424523D01*
X153572785Y-121234047D01*
X153572785Y-120900714D01*
X153620404Y-120710238D01*
X153715642Y-120615000D01*
X153810880Y-120567380D01*
X154620404Y-121519761D02*
X154763261Y-121567380D01*
X155001357Y-121567380D01*
X155096595Y-121519761D01*
X155144214Y-121472142D01*
X155191833Y-121376904D01*
X155191833Y-121281666D01*
X155144214Y-121186428D01*
X155096595Y-121138809D01*
X155001357Y-121091190D01*
X154810880Y-121043571D01*
X154715642Y-120995952D01*
X154668023Y-120948333D01*
X154620404Y-120853095D01*
X154620404Y-120757857D01*
X154668023Y-120662619D01*
X154715642Y-120615000D01*
X154810880Y-120567380D01*
X155048976Y-120567380D01*
X155191833Y-120615000D01*
X155620404Y-121567380D02*
X155620404Y-120567380D01*
X153096595Y-123129761D02*
X153239452Y-123177380D01*
X153477547Y-123177380D01*
X153572785Y-123129761D01*
X153620404Y-123082142D01*
X153668023Y-122986904D01*
X153668023Y-122891666D01*
X153620404Y-122796428D01*
X153572785Y-122748809D01*
X153477547Y-122701190D01*
X153287071Y-122653571D01*
X153191833Y-122605952D01*
X153144214Y-122558333D01*
X153096595Y-122463095D01*
X153096595Y-122367857D01*
X153144214Y-122272619D01*
X153191833Y-122225000D01*
X153287071Y-122177380D01*
X153525166Y-122177380D01*
X153668023Y-122225000D01*
X154668023Y-123082142D02*
X154620404Y-123129761D01*
X154477547Y-123177380D01*
X154382309Y-123177380D01*
X154239452Y-123129761D01*
X154144214Y-123034523D01*
X154096595Y-122939285D01*
X154048976Y-122748809D01*
X154048976Y-122605952D01*
X154096595Y-122415476D01*
X154144214Y-122320238D01*
X154239452Y-122225000D01*
X154382309Y-122177380D01*
X154477547Y-122177380D01*
X154620404Y-122225000D01*
X154668023Y-122272619D01*
X155096595Y-123177380D02*
X155096595Y-122177380D01*
X155668023Y-123177380D02*
X155239452Y-122605952D01*
X155668023Y-122177380D02*
X155096595Y-122748809D01*
X153953738Y-123505000D02*
X154906119Y-123505000D01*
X154144214Y-124739761D02*
X154287071Y-124787380D01*
X154525166Y-124787380D01*
X154620404Y-124739761D01*
X154668023Y-124692142D01*
X154715642Y-124596904D01*
X154715642Y-124501666D01*
X154668023Y-124406428D01*
X154620404Y-124358809D01*
X154525166Y-124311190D01*
X154334690Y-124263571D01*
X154239452Y-124215952D01*
X154191833Y-124168333D01*
X154144214Y-124073095D01*
X154144214Y-123977857D01*
X154191833Y-123882619D01*
X154239452Y-123835000D01*
X154334690Y-123787380D01*
X154572785Y-123787380D01*
X154715642Y-123835000D01*
X154906119Y-123505000D02*
X155858500Y-123505000D01*
X155096595Y-124739761D02*
X155239452Y-124787380D01*
X155477547Y-124787380D01*
X155572785Y-124739761D01*
X155620404Y-124692142D01*
X155668023Y-124596904D01*
X155668023Y-124501666D01*
X155620404Y-124406428D01*
X155572785Y-124358809D01*
X155477547Y-124311190D01*
X155287071Y-124263571D01*
X155191833Y-124215952D01*
X155144214Y-124168333D01*
X155096595Y-124073095D01*
X155096595Y-123977857D01*
X155144214Y-123882619D01*
X155191833Y-123835000D01*
X155287071Y-123787380D01*
X155525166Y-123787380D01*
X155668023Y-123835000D01*
X153572785Y-125445000D02*
X153477547Y-125397380D01*
X153334690Y-125397380D01*
X153191833Y-125445000D01*
X153096595Y-125540238D01*
X153048976Y-125635476D01*
X153001357Y-125825952D01*
X153001357Y-125968809D01*
X153048976Y-126159285D01*
X153096595Y-126254523D01*
X153191833Y-126349761D01*
X153334690Y-126397380D01*
X153429928Y-126397380D01*
X153572785Y-126349761D01*
X153620404Y-126302142D01*
X153620404Y-125968809D01*
X153429928Y-125968809D01*
X154048976Y-126397380D02*
X154048976Y-125397380D01*
X154620404Y-126397380D01*
X154620404Y-125397380D01*
X155096595Y-126397380D02*
X155096595Y-125397380D01*
X155334690Y-125397380D01*
X155477547Y-125445000D01*
X155572785Y-125540238D01*
X155620404Y-125635476D01*
X155668023Y-125825952D01*
X155668023Y-125968809D01*
X155620404Y-126159285D01*
X155572785Y-126254523D01*
X155477547Y-126349761D01*
X155334690Y-126397380D01*
X155096595Y-126397380D01*
%TO.C,R12*%
X146573642Y-117926380D02*
X146240309Y-117450190D01*
X146002214Y-117926380D02*
X146002214Y-116926380D01*
X146383166Y-116926380D01*
X146478404Y-116974000D01*
X146526023Y-117021619D01*
X146573642Y-117116857D01*
X146573642Y-117259714D01*
X146526023Y-117354952D01*
X146478404Y-117402571D01*
X146383166Y-117450190D01*
X146002214Y-117450190D01*
X147526023Y-117926380D02*
X146954595Y-117926380D01*
X147240309Y-117926380D02*
X147240309Y-116926380D01*
X147145071Y-117069238D01*
X147049833Y-117164476D01*
X146954595Y-117212095D01*
X147906976Y-117021619D02*
X147954595Y-116974000D01*
X148049833Y-116926380D01*
X148287928Y-116926380D01*
X148383166Y-116974000D01*
X148430785Y-117021619D01*
X148478404Y-117116857D01*
X148478404Y-117212095D01*
X148430785Y-117354952D01*
X147859357Y-117926380D01*
X148478404Y-117926380D01*
%TO.C,U5*%
X140462095Y-112384380D02*
X140462095Y-113193904D01*
X140509714Y-113289142D01*
X140557333Y-113336761D01*
X140652571Y-113384380D01*
X140843047Y-113384380D01*
X140938285Y-113336761D01*
X140985904Y-113289142D01*
X141033523Y-113193904D01*
X141033523Y-112384380D01*
X141985904Y-112384380D02*
X141509714Y-112384380D01*
X141462095Y-112860571D01*
X141509714Y-112812952D01*
X141604952Y-112765333D01*
X141843047Y-112765333D01*
X141938285Y-112812952D01*
X141985904Y-112860571D01*
X142033523Y-112955809D01*
X142033523Y-113193904D01*
X141985904Y-113289142D01*
X141938285Y-113336761D01*
X141843047Y-113384380D01*
X141604952Y-113384380D01*
X141509714Y-113336761D01*
X141462095Y-113289142D01*
%TO.C,C8*%
X111151333Y-125481142D02*
X111103714Y-125528761D01*
X110960857Y-125576380D01*
X110865619Y-125576380D01*
X110722761Y-125528761D01*
X110627523Y-125433523D01*
X110579904Y-125338285D01*
X110532285Y-125147809D01*
X110532285Y-125004952D01*
X110579904Y-124814476D01*
X110627523Y-124719238D01*
X110722761Y-124624000D01*
X110865619Y-124576380D01*
X110960857Y-124576380D01*
X111103714Y-124624000D01*
X111151333Y-124671619D01*
X111722761Y-125004952D02*
X111627523Y-124957333D01*
X111579904Y-124909714D01*
X111532285Y-124814476D01*
X111532285Y-124766857D01*
X111579904Y-124671619D01*
X111627523Y-124624000D01*
X111722761Y-124576380D01*
X111913238Y-124576380D01*
X112008476Y-124624000D01*
X112056095Y-124671619D01*
X112103714Y-124766857D01*
X112103714Y-124814476D01*
X112056095Y-124909714D01*
X112008476Y-124957333D01*
X111913238Y-125004952D01*
X111722761Y-125004952D01*
X111627523Y-125052571D01*
X111579904Y-125100190D01*
X111532285Y-125195428D01*
X111532285Y-125385904D01*
X111579904Y-125481142D01*
X111627523Y-125528761D01*
X111722761Y-125576380D01*
X111913238Y-125576380D01*
X112008476Y-125528761D01*
X112056095Y-125481142D01*
X112103714Y-125385904D01*
X112103714Y-125195428D01*
X112056095Y-125100190D01*
X112008476Y-125052571D01*
X111913238Y-125004952D01*
%TO.C,R11*%
X143525642Y-120722380D02*
X143192309Y-120246190D01*
X142954214Y-120722380D02*
X142954214Y-119722380D01*
X143335166Y-119722380D01*
X143430404Y-119770000D01*
X143478023Y-119817619D01*
X143525642Y-119912857D01*
X143525642Y-120055714D01*
X143478023Y-120150952D01*
X143430404Y-120198571D01*
X143335166Y-120246190D01*
X142954214Y-120246190D01*
X144478023Y-120722380D02*
X143906595Y-120722380D01*
X144192309Y-120722380D02*
X144192309Y-119722380D01*
X144097071Y-119865238D01*
X144001833Y-119960476D01*
X143906595Y-120008095D01*
X145430404Y-120722380D02*
X144858976Y-120722380D01*
X145144690Y-120722380D02*
X145144690Y-119722380D01*
X145049452Y-119865238D01*
X144954214Y-119960476D01*
X144858976Y-120008095D01*
%TO.C,C13*%
X146743142Y-110945142D02*
X146695523Y-110992761D01*
X146552666Y-111040380D01*
X146457428Y-111040380D01*
X146314571Y-110992761D01*
X146219333Y-110897523D01*
X146171714Y-110802285D01*
X146124095Y-110611809D01*
X146124095Y-110468952D01*
X146171714Y-110278476D01*
X146219333Y-110183238D01*
X146314571Y-110088000D01*
X146457428Y-110040380D01*
X146552666Y-110040380D01*
X146695523Y-110088000D01*
X146743142Y-110135619D01*
X147695523Y-111040380D02*
X147124095Y-111040380D01*
X147409809Y-111040380D02*
X147409809Y-110040380D01*
X147314571Y-110183238D01*
X147219333Y-110278476D01*
X147124095Y-110326095D01*
X148028857Y-110040380D02*
X148647904Y-110040380D01*
X148314571Y-110421333D01*
X148457428Y-110421333D01*
X148552666Y-110468952D01*
X148600285Y-110516571D01*
X148647904Y-110611809D01*
X148647904Y-110849904D01*
X148600285Y-110945142D01*
X148552666Y-110992761D01*
X148457428Y-111040380D01*
X148171714Y-111040380D01*
X148076476Y-110992761D01*
X148028857Y-110945142D01*
%TO.C,J1*%
X157146666Y-111930380D02*
X157146666Y-112644666D01*
X157099047Y-112787523D01*
X157003809Y-112882761D01*
X156860952Y-112930380D01*
X156765714Y-112930380D01*
X158146666Y-112930380D02*
X157575238Y-112930380D01*
X157860952Y-112930380D02*
X157860952Y-111930380D01*
X157765714Y-112073238D01*
X157670476Y-112168476D01*
X157575238Y-112216095D01*
%TO.C,C9*%
X123801142Y-108812666D02*
X123848761Y-108860285D01*
X123896380Y-109003142D01*
X123896380Y-109098380D01*
X123848761Y-109241238D01*
X123753523Y-109336476D01*
X123658285Y-109384095D01*
X123467809Y-109431714D01*
X123324952Y-109431714D01*
X123134476Y-109384095D01*
X123039238Y-109336476D01*
X122944000Y-109241238D01*
X122896380Y-109098380D01*
X122896380Y-109003142D01*
X122944000Y-108860285D01*
X122991619Y-108812666D01*
X123896380Y-108336476D02*
X123896380Y-108146000D01*
X123848761Y-108050761D01*
X123801142Y-108003142D01*
X123658285Y-107907904D01*
X123467809Y-107860285D01*
X123086857Y-107860285D01*
X122991619Y-107907904D01*
X122944000Y-107955523D01*
X122896380Y-108050761D01*
X122896380Y-108241238D01*
X122944000Y-108336476D01*
X122991619Y-108384095D01*
X123086857Y-108431714D01*
X123324952Y-108431714D01*
X123420190Y-108384095D01*
X123467809Y-108336476D01*
X123515428Y-108241238D01*
X123515428Y-108050761D01*
X123467809Y-107955523D01*
X123420190Y-107907904D01*
X123324952Y-107860285D01*
%TO.C,U4*%
X115570095Y-101312380D02*
X115570095Y-102121904D01*
X115617714Y-102217142D01*
X115665333Y-102264761D01*
X115760571Y-102312380D01*
X115951047Y-102312380D01*
X116046285Y-102264761D01*
X116093904Y-102217142D01*
X116141523Y-102121904D01*
X116141523Y-101312380D01*
X117046285Y-101645714D02*
X117046285Y-102312380D01*
X116808190Y-101264761D02*
X116570095Y-101979047D01*
X117189142Y-101979047D01*
%TO.C,C10*%
X139123142Y-109929142D02*
X139075523Y-109976761D01*
X138932666Y-110024380D01*
X138837428Y-110024380D01*
X138694571Y-109976761D01*
X138599333Y-109881523D01*
X138551714Y-109786285D01*
X138504095Y-109595809D01*
X138504095Y-109452952D01*
X138551714Y-109262476D01*
X138599333Y-109167238D01*
X138694571Y-109072000D01*
X138837428Y-109024380D01*
X138932666Y-109024380D01*
X139075523Y-109072000D01*
X139123142Y-109119619D01*
X140075523Y-110024380D02*
X139504095Y-110024380D01*
X139789809Y-110024380D02*
X139789809Y-109024380D01*
X139694571Y-109167238D01*
X139599333Y-109262476D01*
X139504095Y-109310095D01*
X140694571Y-109024380D02*
X140789809Y-109024380D01*
X140885047Y-109072000D01*
X140932666Y-109119619D01*
X140980285Y-109214857D01*
X141027904Y-109405333D01*
X141027904Y-109643428D01*
X140980285Y-109833904D01*
X140932666Y-109929142D01*
X140885047Y-109976761D01*
X140789809Y-110024380D01*
X140694571Y-110024380D01*
X140599333Y-109976761D01*
X140551714Y-109929142D01*
X140504095Y-109833904D01*
X140456476Y-109643428D01*
X140456476Y-109405333D01*
X140504095Y-109214857D01*
X140551714Y-109119619D01*
X140599333Y-109072000D01*
X140694571Y-109024380D01*
%TO.C,R9*%
X133930380Y-120158166D02*
X133454190Y-120491500D01*
X133930380Y-120729595D02*
X132930380Y-120729595D01*
X132930380Y-120348642D01*
X132978000Y-120253404D01*
X133025619Y-120205785D01*
X133120857Y-120158166D01*
X133263714Y-120158166D01*
X133358952Y-120205785D01*
X133406571Y-120253404D01*
X133454190Y-120348642D01*
X133454190Y-120729595D01*
X133930380Y-119681976D02*
X133930380Y-119491500D01*
X133882761Y-119396261D01*
X133835142Y-119348642D01*
X133692285Y-119253404D01*
X133501809Y-119205785D01*
X133120857Y-119205785D01*
X133025619Y-119253404D01*
X132978000Y-119301023D01*
X132930380Y-119396261D01*
X132930380Y-119586738D01*
X132978000Y-119681976D01*
X133025619Y-119729595D01*
X133120857Y-119777214D01*
X133358952Y-119777214D01*
X133454190Y-119729595D01*
X133501809Y-119681976D01*
X133549428Y-119586738D01*
X133549428Y-119396261D01*
X133501809Y-119301023D01*
X133454190Y-119253404D01*
X133358952Y-119205785D01*
%TO.C,C12*%
X146743142Y-120245142D02*
X146695523Y-120292761D01*
X146552666Y-120340380D01*
X146457428Y-120340380D01*
X146314571Y-120292761D01*
X146219333Y-120197523D01*
X146171714Y-120102285D01*
X146124095Y-119911809D01*
X146124095Y-119768952D01*
X146171714Y-119578476D01*
X146219333Y-119483238D01*
X146314571Y-119388000D01*
X146457428Y-119340380D01*
X146552666Y-119340380D01*
X146695523Y-119388000D01*
X146743142Y-119435619D01*
X147695523Y-120340380D02*
X147124095Y-120340380D01*
X147409809Y-120340380D02*
X147409809Y-119340380D01*
X147314571Y-119483238D01*
X147219333Y-119578476D01*
X147124095Y-119626095D01*
X148076476Y-119435619D02*
X148124095Y-119388000D01*
X148219333Y-119340380D01*
X148457428Y-119340380D01*
X148552666Y-119388000D01*
X148600285Y-119435619D01*
X148647904Y-119530857D01*
X148647904Y-119626095D01*
X148600285Y-119768952D01*
X148028857Y-120340380D01*
X148647904Y-120340380D01*
%TO.C,R13*%
X146677142Y-125420380D02*
X146343809Y-124944190D01*
X146105714Y-125420380D02*
X146105714Y-124420380D01*
X146486666Y-124420380D01*
X146581904Y-124468000D01*
X146629523Y-124515619D01*
X146677142Y-124610857D01*
X146677142Y-124753714D01*
X146629523Y-124848952D01*
X146581904Y-124896571D01*
X146486666Y-124944190D01*
X146105714Y-124944190D01*
X147629523Y-125420380D02*
X147058095Y-125420380D01*
X147343809Y-125420380D02*
X147343809Y-124420380D01*
X147248571Y-124563238D01*
X147153333Y-124658476D01*
X147058095Y-124706095D01*
X147962857Y-124420380D02*
X148581904Y-124420380D01*
X148248571Y-124801333D01*
X148391428Y-124801333D01*
X148486666Y-124848952D01*
X148534285Y-124896571D01*
X148581904Y-124991809D01*
X148581904Y-125229904D01*
X148534285Y-125325142D01*
X148486666Y-125372761D01*
X148391428Y-125420380D01*
X148105714Y-125420380D01*
X148010476Y-125372761D01*
X147962857Y-125325142D01*
%TO.C,R10*%
X138041142Y-121738380D02*
X137707809Y-121262190D01*
X137469714Y-121738380D02*
X137469714Y-120738380D01*
X137850666Y-120738380D01*
X137945904Y-120786000D01*
X137993523Y-120833619D01*
X138041142Y-120928857D01*
X138041142Y-121071714D01*
X137993523Y-121166952D01*
X137945904Y-121214571D01*
X137850666Y-121262190D01*
X137469714Y-121262190D01*
X138993523Y-121738380D02*
X138422095Y-121738380D01*
X138707809Y-121738380D02*
X138707809Y-120738380D01*
X138612571Y-120881238D01*
X138517333Y-120976476D01*
X138422095Y-121024095D01*
X139612571Y-120738380D02*
X139707809Y-120738380D01*
X139803047Y-120786000D01*
X139850666Y-120833619D01*
X139898285Y-120928857D01*
X139945904Y-121119333D01*
X139945904Y-121357428D01*
X139898285Y-121547904D01*
X139850666Y-121643142D01*
X139803047Y-121690761D01*
X139707809Y-121738380D01*
X139612571Y-121738380D01*
X139517333Y-121690761D01*
X139469714Y-121643142D01*
X139422095Y-121547904D01*
X139374476Y-121357428D01*
X139374476Y-121119333D01*
X139422095Y-120928857D01*
X139469714Y-120833619D01*
X139517333Y-120786000D01*
X139612571Y-120738380D01*
%TO.C,U7*%
X146772380Y-123189904D02*
X147581904Y-123189904D01*
X147677142Y-123142285D01*
X147724761Y-123094666D01*
X147772380Y-122999428D01*
X147772380Y-122808952D01*
X147724761Y-122713714D01*
X147677142Y-122666095D01*
X147581904Y-122618476D01*
X146772380Y-122618476D01*
X146772380Y-122237523D02*
X146772380Y-121570857D01*
X147772380Y-121999428D01*
%TO.C,U6*%
X142147058Y-110509723D02*
X142956582Y-110509723D01*
X143051820Y-110462104D01*
X143099439Y-110414485D01*
X143147058Y-110319247D01*
X143147058Y-110128771D01*
X143099439Y-110033533D01*
X143051820Y-109985914D01*
X142956582Y-109938295D01*
X142147058Y-109938295D01*
X142147058Y-109033533D02*
X142147058Y-109224009D01*
X142194678Y-109319247D01*
X142242297Y-109366866D01*
X142385154Y-109462104D01*
X142575630Y-109509723D01*
X142956582Y-109509723D01*
X143051820Y-109462104D01*
X143099439Y-109414485D01*
X143147058Y-109319247D01*
X143147058Y-109128771D01*
X143099439Y-109033533D01*
X143051820Y-108985914D01*
X142956582Y-108938295D01*
X142718487Y-108938295D01*
X142623249Y-108985914D01*
X142575630Y-109033533D01*
X142528011Y-109128771D01*
X142528011Y-109319247D01*
X142575630Y-109414485D01*
X142623249Y-109462104D01*
X142718487Y-109509723D01*
%TO.C,C11*%
X146505142Y-108404857D02*
X146552761Y-108452476D01*
X146600380Y-108595333D01*
X146600380Y-108690571D01*
X146552761Y-108833428D01*
X146457523Y-108928666D01*
X146362285Y-108976285D01*
X146171809Y-109023904D01*
X146028952Y-109023904D01*
X145838476Y-108976285D01*
X145743238Y-108928666D01*
X145648000Y-108833428D01*
X145600380Y-108690571D01*
X145600380Y-108595333D01*
X145648000Y-108452476D01*
X145695619Y-108404857D01*
X146600380Y-107452476D02*
X146600380Y-108023904D01*
X146600380Y-107738190D02*
X145600380Y-107738190D01*
X145743238Y-107833428D01*
X145838476Y-107928666D01*
X145886095Y-108023904D01*
X146600380Y-106500095D02*
X146600380Y-107071523D01*
X146600380Y-106785809D02*
X145600380Y-106785809D01*
X145743238Y-106881047D01*
X145838476Y-106976285D01*
X145886095Y-107071523D01*
D11*
%TO.C,R12*%
X147443564Y-116559000D02*
X146989436Y-116559000D01*
X147443564Y-115089000D02*
X146989436Y-115089000D01*
%TO.C,U5*%
X141224000Y-118892000D02*
X139274000Y-118892000D01*
X141224000Y-113772000D02*
X137774000Y-113772000D01*
X141224000Y-113772000D02*
X143174000Y-113772000D01*
X141224000Y-118892000D02*
X143174000Y-118892000D01*
%TO.C,C8*%
X111579252Y-122709000D02*
X111056748Y-122709000D01*
X111579252Y-124179000D02*
X111056748Y-124179000D01*
%TO.C,R11*%
X143941436Y-121185000D02*
X144395564Y-121185000D01*
X143941436Y-122655000D02*
X144395564Y-122655000D01*
%TO.C,C13*%
X147124748Y-111533000D02*
X147647252Y-111533000D01*
X147124748Y-113003000D02*
X147647252Y-113003000D01*
%TO.C,J1*%
X156150000Y-116078000D02*
X156150000Y-128838000D01*
X156150000Y-116078000D02*
X158810000Y-116078000D01*
X158810000Y-116078000D02*
X158810000Y-128838000D01*
X156150000Y-113478000D02*
X157480000Y-113478000D01*
X156150000Y-128838000D02*
X158810000Y-128838000D01*
X156150000Y-114808000D02*
X156150000Y-113478000D01*
%TO.C,C9*%
X125703000Y-108958748D02*
X125703000Y-109481252D01*
X124233000Y-108958748D02*
X124233000Y-109481252D01*
%TO.C,U4*%
X120192000Y-102700000D02*
X120192000Y-102945000D01*
X116332000Y-102700000D02*
X112472000Y-102700000D01*
X112472000Y-102700000D02*
X112472000Y-102945000D01*
X120192000Y-120820000D02*
X120192000Y-120575000D01*
X116332000Y-120820000D02*
X120192000Y-120820000D01*
X116332000Y-102700000D02*
X120192000Y-102700000D01*
X112472000Y-102945000D02*
X110657000Y-102945000D01*
X116332000Y-120820000D02*
X112472000Y-120820000D01*
X112472000Y-120820000D02*
X112472000Y-120575000D01*
%TO.C,C10*%
X139504748Y-111987000D02*
X140027252Y-111987000D01*
X139504748Y-110517000D02*
X140027252Y-110517000D01*
%TO.C,R9*%
X134393000Y-120218564D02*
X134393000Y-119764436D01*
X135863000Y-120218564D02*
X135863000Y-119764436D01*
%TO.C,C12*%
X150172748Y-120623000D02*
X150695252Y-120623000D01*
X150172748Y-119153000D02*
X150695252Y-119153000D01*
%TO.C,R13*%
X150999564Y-125703000D02*
X150545436Y-125703000D01*
X150999564Y-124233000D02*
X150545436Y-124233000D01*
%TO.C,R10*%
X138456936Y-122201000D02*
X138911064Y-122201000D01*
X138456936Y-123671000D02*
X138911064Y-123671000D01*
D12*
%TO.C,U7*%
X150702000Y-121328000D02*
X148002000Y-121328000D01*
X148002000Y-121328000D02*
X148002000Y-123528000D01*
X148002000Y-123528000D02*
X150702000Y-123528000D01*
X150702000Y-123528000D02*
X150702000Y-121328000D01*
D11*
%TO.C,U6*%
X143388209Y-109213128D02*
X143388209Y-108613128D01*
X145143516Y-109813863D02*
X145143516Y-108613863D01*
%TO.C,C11*%
X147093000Y-108023252D02*
X147093000Y-107500748D01*
X148563000Y-108023252D02*
X148563000Y-107500748D01*
%TD*%
M02*
